<svg id="Layer_1" data-name="Layer 1" xmlns="http://www.w3.org/2000/svg" viewBox="0 0 50 50"><defs><style>.cls-1{fill:#f7b119;}</style></defs><title>icon (2)</title><path class="cls-1" d="M18.38,49.1,2.87,38.8A3.34,3.34,0,0,1,1.38,36V20.42a3.33,3.33,0,0,1,5.17-2.77L22.07,28a3.31,3.31,0,0,1,1.48,2.77v15.6A3.33,3.33,0,0,1,18.38,49.1Z"/><path class="cls-1" d="M32,49.1,47.56,38.8A3.34,3.34,0,0,0,49.05,36V20.42a3.33,3.33,0,0,0-5.17-2.77L28.36,28a3.32,3.32,0,0,0-1.49,2.77v15.6A3.33,3.33,0,0,0,32,49.1Z"/><path class="cls-1" d="M45.66,13.73,27.23,25.56a3.35,3.35,0,0,1-3.6,0L5.2,13.73a2.1,2.1,0,0,1,0-3.53L22.83.87a3.31,3.31,0,0,1,3.6,0L45.66,10.2A2.1,2.1,0,0,1,45.66,13.73Z"/></svg>