<svg id="Layer_1" data-name="Layer 1" xmlns="http://www.w3.org/2000/svg" viewBox="0 0 50 50"><defs><style>.cls-1{fill:#f7b119;}</style></defs><title>icon (2)</title><path class="cls-1" d="M33.91,13c.2-.95.37-1.92.53-2.89a.76.76,0,0,0-.38-.8c-1.1-.74-2.19-1.51-3.29-2.28A.94.94,0,0,0,29.71,7a2.69,2.69,0,0,0-.34.17C28,8,26.64,8.85,25.28,9.69a.67.67,0,0,1-.38.08c-.53-.1-1.06-.23-1.58-.36a.47.47,0,0,1-.28-.2c-.66-1-1.31-2.08-2-3.12-.32-.48-.7-.92-1.05-1.37a.69.69,0,0,0-.68-.23l-4.22.7a.64.64,0,0,0-.57.42,8.93,8.93,0,0,0-.41,1.16c-.31,1.35-.59,2.71-.88,4.05a.5.5,0,0,1-.23.35c-.46.26-.92.55-1.38.83a.7.7,0,0,1-.32.05c-.66-.15-1.28-.32-2-.44C8.26,11.39,7.15,11.19,6,11a.84.84,0,0,0-.87.4L3.05,14.29c-.63.87-.67.91-.09,1.86.8,1.29,1.66,2.56,2.51,3.84a.48.48,0,0,1,.07.42c-.12.48-.23,1-.34,1.46A.51.51,0,0,1,5,22.2c-1,.61-2.06,1.23-3.06,1.87A17,17,0,0,0,.43,25.12a.73.73,0,0,0-.31.74C.37,27.25.59,28.62.81,30a.72.72,0,0,0,.44.58,5.8,5.8,0,0,0,.86.29c1.49.33,3,.63,4.46.93a.43.43,0,0,1,.34.23c.25.4.51.84.78,1.25a.5.5,0,0,1,.08.46c-.34,1.37-.66,2.75-1,4.13-.09.42-.12.85-.18,1.31a2.24,2.24,0,0,0,.32.41l3.53,2.48a.78.78,0,0,0,.78.07c.21-.11.43-.19.63-.31,1.33-.82,2.64-1.66,4-2.5a.56.56,0,0,1,.38-.06c.52.1,1.05.21,1.56.34a.55.55,0,0,1,.29.23c.76,1.16,1.5,2.33,2.26,3.5.24.35.54.67.81,1a.68.68,0,0,0,.63.22l4.29-.72a.64.64,0,0,0,.51-.38,6.3,6.3,0,0,0,.36-1c.33-1.42.63-2.84.95-4.26a.69.69,0,0,1,.22-.33L29.5,37a.46.46,0,0,1,.31,0l.54.12.33-.67c.07-.13.13-.26.21-.38q2.76-5.72,5.51-11.37a.94.94,0,0,0-.15-1,8,8,0,0,1-.79-6.25l-.89-.18a.46.46,0,0,1-.36-.23c-.26-.43-.53-.84-.8-1.27a.54.54,0,0,1-.07-.43C33.55,14.55,33.75,13.8,33.91,13ZM22,32.91a8.51,8.51,0,1,1,7-9.79A8.52,8.52,0,0,1,22,32.91Z"/><path class="cls-1" d="M46.26,25.72a23,23,0,0,1-2.21.75,1.13,1.13,0,0,0-.58.56c-1.45,3.24-2.88,6.48-4.32,9.72l-1.92,4.36c-.1.21-.19.43-.28.64l-.82,1.82A3.34,3.34,0,0,1,30,40.82l2.85-6.32c0-.11.11-.22.17-.33l4.4-9.92a.8.8,0,0,0-.15-.88,6.78,6.78,0,0,1,2.24-9.49c.44-.27.92-.48,1.38-.72l1.15-.26c.39.06.19.28.12.47l-1.79,4.05c-.51,1.16-.33,1.68.85,2.2l3.22,1.43a1.29,1.29,0,0,0,2-.77c.6-1.33,1.18-2.66,1.77-4,.08-.19.19-.38.29-.58A6.74,6.74,0,0,1,46.26,25.72Z"/></svg>