<svg id="Layer_1" data-name="Layer 1" xmlns="http://www.w3.org/2000/svg" viewBox="0 0 50 50"><defs><style>.cls-1{fill:#f7b119;}</style></defs><title>icon (2)</title><path class="cls-1" d="M34.05.28c-8.78,0-15.89,5.81-15.89,13a11.49,11.49,0,0,0,3.27,7.87l-1.14,4.05a.38.38,0,0,0,.48.45l4.92-1.36a18.4,18.4,0,0,0,8.36,2c8.76,0,15.87-5.82,15.87-13S42.81.28,34.05.28Zm1.73,20.47a1.63,1.63,0,0,1-.41,1.18,1.56,1.56,0,0,1-1.16.4h-.34a1.54,1.54,0,0,1-1.16-.4,1.63,1.63,0,0,1-.41-1.18V20.3a1.58,1.58,0,0,1,.41-1.16,1.54,1.54,0,0,1,1.16-.4h.34a1.56,1.56,0,0,1,1.16.4,1.58,1.58,0,0,1,.41,1.16Zm4.79-9.3a5.19,5.19,0,0,1-1.11,1.73,5.41,5.41,0,0,1-1.67,1.15,8.6,8.6,0,0,1-2.09.61l-.09.06a.07.07,0,0,0,0,.07v1a1.54,1.54,0,0,1-.44,1.13,1.59,1.59,0,0,1-2.26,0A1.49,1.49,0,0,1,32.44,16v-2a1.58,1.58,0,0,1,.43-1.15A1.53,1.53,0,0,1,34,12.45a5.2,5.2,0,0,0,1.94-.33,2.77,2.77,0,0,0,1.37-1,3.37,3.37,0,0,0,.51-1.94,2.9,2.9,0,0,0-.42-1.57,3,3,0,0,0-1.19-1.07,3.7,3.7,0,0,0-3.06-.13,4.38,4.38,0,0,0-1.16.7,2.45,2.45,0,0,1-1,.53,1.31,1.31,0,0,1-1.2-.27,1.56,1.56,0,0,1-.68-1.11A1.47,1.47,0,0,1,29.61,5a6.36,6.36,0,0,1,2.2-1.51A7.08,7.08,0,0,1,34.52,3a6.51,6.51,0,0,1,3.27.82A6.34,6.34,0,0,1,40.1,6,5.87,5.87,0,0,1,41,9.13,6.37,6.37,0,0,1,40.57,11.45Z"/><path class="cls-1" d="M32.79,31.29c-1,1.82-2.14,4-2.1,6.05.08,4.14.91,8.26,1.45,12.38H12.79c-.31-1.44-.62-2.87-.92-4.33-.24-1.21-.82-1.76-1.92-1.69s-2.54,0-3.8,0c-2.86,0-4-1.91-3.16-5.13a7.89,7.89,0,0,0,0-2.47c-.09-.81-.28-1.6-.52-2.85a8.4,8.4,0,0,1,.15-2.17c.41-1.36.59-2.22-1-2.64s-2-1.58-1-3.32a25.06,25.06,0,0,1,2.21-2.81,3.69,3.69,0,0,0,.74-1.17,17.53,17.53,0,0,0,1.26-5.29A12.8,12.8,0,0,1,9.34,6.42,14.5,14.5,0,0,1,21.27,2.83a14,14,0,0,0-5.6,10.94,13.54,13.54,0,0,0,3.58,9l-1.18,3.63a1.15,1.15,0,0,0,1.47,1.46l4.37-1.47a19.53,19.53,0,0,0,9.15,2.23h1A23.51,23.51,0,0,1,32.79,31.29Z"/></svg>