<svg id="Layer_1" data-name="Layer 1" xmlns="http://www.w3.org/2000/svg" viewBox="0 0 50 50"><defs><style>.cls-1{fill:#f7b119;}</style></defs><title>icon (2)</title><path class="cls-1" d="M21.41,25l.32,0h.06L22,25h6.59Z"/><path class="cls-1" d="M32,10.9a1.6,1.6,0,0,1-1.34.66A1.81,1.81,0,0,1,29.55,11L27.21,8.35l-.1,7.18,0,2.17-.16,11.9a2.57,2.57,0,0,1-2.28,2.74c-1.17,0-2.16-1.28-2.15-2.8l.16-11.81,0-2.2.1-7-2.27,3.16a1.47,1.47,0,0,1-2.4.16,2.21,2.21,0,0,1-.53-1.66A2.24,2.24,0,0,1,18,8.87l5.41-7.53A1.63,1.63,0,0,1,24.78.66a1.7,1.7,0,0,1,.58.15,1.93,1.93,0,0,1,.45.37l.28.35,5.75,6.33A2.59,2.59,0,0,1,32,10.9Z"/><path class="cls-1" d="M42.85,21.43V43.27a6.32,6.32,0,0,1-6.53,6.07H13.68a6.32,6.32,0,0,1-6.53-6.07V21.43a6.24,6.24,0,0,1,5.73-6l.39,0h.06a1.07,1.07,0,0,1,.25,0h8a1.26,1.26,0,0,1,.66,1.1v.36a1.23,1.23,0,0,1-.6,1.06H13.33l-.37,0a3.41,3.41,0,0,0-3.19,3.27V43.55a3.46,3.46,0,0,0,3.56,3.3H36.67a3.46,3.46,0,0,0,3.56-3.3V21.17a3.41,3.41,0,0,0-3.31-3.27,1.06,1.06,0,0,0-.25,0H28.26a1.24,1.24,0,0,1-.59-1.06v-.36a1.24,1.24,0,0,1,.66-1.1h8l.27,0a2.86,2.86,0,0,1,.42,0h0A6.25,6.25,0,0,1,42.85,21.43Z"/><path class="cls-1" d="M36.92,17.9a1.06,1.06,0,0,0-.25,0H28.26Z"/><path class="cls-1" d="M37,15.42a2.86,2.86,0,0,0-.42,0l-.27,0h-8Z"/></svg>