<svg id="Layer_1" data-name="Layer 1" xmlns="http://www.w3.org/2000/svg" viewBox="0 0 50 50"><defs><style>.cls-1{fill:#f6b21a;}.cls-2{fill:none;stroke:#f6b21a;stroke-miterlimit:10;stroke-width:2px;}</style></defs><title>icon (2)</title><path class="cls-1" d="M16.38,32.63a1.5,1.5,0,0,1-1.78-1.16,1.47,1.47,0,0,1,0-.66c1.12-4.84,4.66-17.43,12.3-18.36a7.34,7.34,0,0,1,6.58,2.8c1.67,2.14,2.33,4.3-3.9,10.17l-.17.15C25.06,28.78,19.76,31.89,16.38,32.63Z"/><path class="cls-1" d="M37.7,21.44a9.49,9.49,0,0,1,.41,2.8,1.82,1.82,0,0,1,0,.33c-.24,1.65-2.77,9.16-16.77,13.2a3.66,3.66,0,0,0-.46.18c-10.31,5.1-15,9.62-16.23,10.9a2,2,0,0,1-1.12.6c-.65.11-1.34-.08-.44-1.86C4.39,45,12,36.73,13.61,35a1.11,1.11,0,0,1,.72-.34A30.86,30.86,0,0,0,35.7,21.28a1.11,1.11,0,0,1,1.53-.39A1.15,1.15,0,0,1,37.7,21.44Z"/><path class="cls-1" d="M47.06,5.59A1.68,1.68,0,0,0,46,4.43c-.24-1-1.79-4.22-6.71-3.88A11.62,11.62,0,0,0,30.36,6a28.79,28.79,0,0,0-2.54,4.7l.26-.07a10.54,10.54,0,0,1,2.24-.19,11.32,11.32,0,0,1,3.93.86c2.68,1,4.29,3.77,4.93,6.43a12.08,12.08,0,0,1,.35,2.81v1.91c0,.19-.12.63.16.67s.65-.39.81-.51A9,9,0,0,0,42,21.2a9.66,9.66,0,0,0,1.72-6.91A13,13,0,0,0,43,10.93a2.65,2.65,0,0,1,.08-2.45,1.23,1.23,0,0,1,1.3-.68l.26.11A7.7,7.7,0,0,1,47,9.28,9.36,9.36,0,0,0,47.06,5.59Zm-5.25-.53a.6.6,0,0,1-.59-.61.6.6,0,0,1,.67-.54.61.61,0,0,1,.6.62A.6.6,0,0,1,41.81,5.06Z"/><path class="cls-2" d="M14.13,40.44l27.51,0a3.12,3.12,0,0,0,3.26-2.94A2.77,2.77,0,0,0,44,35.47a3.47,3.47,0,0,0-2.31-.88l-13.92.09H17.1l-6.64-.1A3.11,3.11,0,0,0,7.2,37.52a2.76,2.76,0,0,0,1,2.08,13.51,13.51,0,0,0,1.33.77"/><path class="cls-1" d="M44.05,8.33a.21.21,0,0,0-.19,0,.44.44,0,0,0-.13.14,1.63,1.63,0,0,0-.27,1,.66.66,0,0,0,.11.36,3.88,3.88,0,0,1,.31-.26,1,1,0,0,1,.44-.15,3.83,3.83,0,0,1,1.12-.08,2.07,2.07,0,0,1,.43.1,1.26,1.26,0,0,1,.46.2,6.25,6.25,0,0,0-.58-.57,4.19,4.19,0,0,0-1.24-.69A1.46,1.46,0,0,0,44.05,8.33Z"/></svg>