<svg id="Layer_1" data-name="Layer 1" xmlns="http://www.w3.org/2000/svg" viewBox="0 0 50 50"><defs><style>.cls-1{fill:#f6b21a;}</style></defs><title>icon (2)</title><path class="cls-1" d="M41.76,47.88l0-.06a20.53,20.53,0,0,1-1.72-5,16.07,16.07,0,0,1,.3-8.06,22.94,22.94,0,0,0,1.34-5.84A16,16,0,0,0,41,22.52a14.72,14.72,0,0,0-2.1-4.05,12.22,12.22,0,0,1-1.68-2.17l-.07-.15c-.8-1.95.25-4.43,1.7-5.8A7.34,7.34,0,0,1,40,9.68a5.05,5.05,0,0,0,2.26-5.15,16.65,16.65,0,0,0-1.05-3.46,2.92,2.92,0,0,0-.35-.68A.86.86,0,0,0,40.25,0a1.23,1.23,0,0,0-.52.12c-1.73.67-3.27,2.25-5.24,2l-1-.12a13.84,13.84,0,0,0-4.88.37A8.74,8.74,0,0,0,24,5.17a8.79,8.79,0,0,0-1.13,1.76,9.66,9.66,0,0,0-.46,1,8.86,8.86,0,0,0-.26,3.2,9.84,9.84,0,0,0,1.06,4.4l-.1-.27a10.48,10.48,0,0,0,1.55,1.89,5.32,5.32,0,0,0,1.92,1.3,2.73,2.73,0,0,0,2.1,0,3.75,3.75,0,0,0,1-.52c.3-.21.58-.46.87-.7a3.54,3.54,0,0,0,.21-3.41,9.87,9.87,0,0,0-.87-1.79c-.32-.6-.73-1.14-1.11-1.72a12,12,0,0,1,1.49,1.45,8.55,8.55,0,0,1,1.2,1.76,4.93,4.93,0,0,1,.56,2.09,3.62,3.62,0,0,1-.67,2.23,12.46,12.46,0,0,1-1.05.84,4.56,4.56,0,0,1-1.23.61,3.51,3.51,0,0,1-2.77-.1A4.87,4.87,0,0,1,25,18.32a5,5,0,0,1-.15,4,7.22,7.22,0,0,1-2.57,3c-1.87,1.41-4,2.4-5.72,4a15.85,15.85,0,0,0-2.85,3.41A12.11,12.11,0,0,0,12,37.1a7.81,7.81,0,0,0,.71,4.78A10.68,10.68,0,0,0,15.24,45a8.88,8.88,0,0,0,1.66,1.2c.4.22,1.34.47,1,1.12s-1.45.4-1.89.2a10.14,10.14,0,0,1-4.38-4.41,9.76,9.76,0,0,0-2.08-3.67,1,1,0,0,0-1.19-.2c-2.21,1.34,1.15,5.82,2.18,7.07a7.94,7.94,0,0,0,5.71,3.11,8.8,8.8,0,0,1,1.26.1,4.58,4.58,0,0,0,1.38.16h10A1.13,1.13,0,0,0,30,48.58a1.5,1.5,0,0,0,0-.22c-.07-.4-.25-.76-.52-.84-.8-.22-4.83.23-2.59-1.41a14,14,0,0,0,2.14-2c1.45-1.6,2.3-5.2,5.2-4.28,2,.62,2.1,3.09,2.53,4.75.09.32.17.64.26,1a8,8,0,0,0,1.26,3.22,3.31,3.31,0,0,0,3,1.23,1.17,1.17,0,0,0,.82-.37,1,1,0,0,0,.1-.89A4.57,4.57,0,0,0,41.76,47.88ZM32.09,5.38a1.07,1.07,0,1,1,1.07-1.07A1.08,1.08,0,0,1,32.09,5.38Z"/></svg>