<svg id="Layer_1" data-name="Layer 1" xmlns="http://www.w3.org/2000/svg" viewBox="0 0 50 50"><defs><style>.cls-1{fill:#f7b119;}</style></defs><title>icon (2)</title><rect class="cls-1" x="0.82" y="3.57" width="48.93" height="5.42" rx="1.32" ry="1.32"/><path class="cls-1" d="M44.07,9.84H6.5a3,3,0,0,0-3,3V45.63a3,3,0,0,0,3,3H44.07a3,3,0,0,0,3-3V12.84A3,3,0,0,0,44.07,9.84ZM31.8,31.22l-5.71,5.67-.59.6a.29.29,0,0,1-.4,0l-8.83-8.78a5.61,5.61,0,0,1-.65-.64,5.78,5.78,0,0,1-1.07-1.85,6,6,0,0,1,0-4,5.49,5.49,0,0,1,3.2-3.25,5.83,5.83,0,0,1,7.08,2.26.49.49,0,0,0,.81,0A5.84,5.84,0,0,1,32.86,19,5.49,5.49,0,0,1,36,22.42C37.36,26.6,34.14,28.9,31.8,31.22Z"/><ellipse class="cls-1" cx="23.49" cy="23.9" rx="1.3" ry="1.74" transform="translate(-4.95 6.17) rotate(-13.55)"/><ellipse class="cls-1" cx="26.88" cy="23.83" rx="1.69" ry="1.26" transform="translate(0.89 48.62) rotate(-85.21)"/><ellipse class="cls-1" cx="21.06" cy="26.56" rx="1.24" ry="1.66" transform="translate(-7.02 7.57) rotate(-17.52)"/><ellipse class="cls-1" cx="29.52" cy="26.13" rx="1.66" ry="1.24" transform="translate(-3.65 47.43) rotate(-74.23)"/><path class="cls-1" d="M25.15,26.21a1.9,1.9,0,0,0-.92.36,2.67,2.67,0,0,0-.73.73,7.87,7.87,0,0,1-.59.91c-.21.24-.44.47-.67.69a2.41,2.41,0,0,0-.68,1,2,2,0,0,0,.51,2.1,2,2,0,0,0,.79.33A3.46,3.46,0,0,0,25,31.84a2,2,0,0,1,1.64.14c.19.07,3.13.87,2.83-2.08A1.66,1.66,0,0,0,29,29a4.28,4.28,0,0,0-.83-.7,3.26,3.26,0,0,1-.71-.81A2.66,2.66,0,0,0,25.15,26.21Z"/></svg>