<svg id="Layer_1" data-name="Layer 1" xmlns="http://www.w3.org/2000/svg" viewBox="0 0 50 50"><defs><style>.cls-1{fill:#f6b21a;}</style></defs><title>icon (2)</title><path class="cls-1" d="M40.9,23.7H7.39V18.9H40.9ZM8.64,22.48H39.71V20.13H8.6Z"/><path class="cls-1" d="M32.33,1.27A3.76,3.76,0,0,0,27,1.61,3.79,3.79,0,0,0,24.15.28,3.61,3.61,0,0,0,22.88.5,3.74,3.74,0,0,0,20.6,5.29a3.51,3.51,0,0,0,.69,1.2,2.28,2.28,0,0,0,.38.38l4.78,4.77a.72.72,0,0,0,.53.23.75.75,0,0,0,.54-.26l5-5a3.83,3.83,0,0,0,.88-1.37A3.94,3.94,0,0,0,33.61,4,3.76,3.76,0,0,0,32.33,1.27Z"/><path class="cls-1" d="M23.18,11.35a2.26,2.26,0,0,0-3-.16,2.18,2.18,0,0,0-1.56-.58,2.16,2.16,0,0,0-2.07,2.23,3,3,0,0,0,.12.73,2.74,2.74,0,0,0,.41.7,2.09,2.09,0,0,0,.22.2l2.39,2.39a.7.7,0,0,0,.49.2c.61,0,1.35-1,1.75-1.45.11-.12.23-.22.34-.33a5.71,5.71,0,0,0,1.4-1.73,1.65,1.65,0,0,0,.15-.69A2.08,2.08,0,0,0,23.18,11.35Z"/><path class="cls-1" d="M9.15,23.05V49.86h30V23.05Zm15.17,9c.17-1.23,1.05-2.11,1.95-2a2,2,0,0,1,1.35,2.43c-.18,1.22-1.06,2.1-2,2A2,2,0,0,1,24.32,32Zm-3.23-2.19c.94-.17,1.88.7,2.1,2s-.34,2.4-1.28,2.56-1.88-.7-2.11-2A2.08,2.08,0,0,1,21.09,29.81Zm-4.59,6a2,2,0,0,1,1.06-2.53c.87-.21,1.81.56,2.11,1.73a2,2,0,0,1-1.05,2.53C17.75,37.73,16.8,37,16.5,35.77ZM25,43a2.63,2.63,0,0,0-2.15-.31,4.63,4.63,0,0,1-2.86.47,2.78,2.78,0,0,1-1-.5,2.7,2.7,0,0,1-.51-2.8,3.47,3.47,0,0,1,1-1.3c.32-.28.63-.56.93-.85a9,9,0,0,0,.9-1.14,3.78,3.78,0,0,1,1-.9,2.43,2.43,0,0,1,1.19-.41,3.56,3.56,0,0,1,3,2,4.13,4.13,0,0,0,.87,1.07,5.93,5.93,0,0,1,1.07,1,2.14,2.14,0,0,1,.5,1.19C29.08,44.37,25.26,43.08,25,43Zm5.79-7a2,2,0,0,1-2.27,1.53,2,2,0,0,1-.82-2.61A2,2,0,0,1,30,33.39,2,2,0,0,1,30.81,36Z"/></svg>