<svg id="Layer_1" data-name="Layer 1" xmlns="http://www.w3.org/2000/svg" viewBox="0 0 50 50"><defs><style>.cls-1,.cls-2{fill:#f6b21a;}.cls-2{opacity:0.43;isolation:isolate;}</style></defs><title>icon (2)</title><circle class="cls-1" cx="20.16" cy="40" r="2.45"/><circle class="cls-1" cx="40.06" cy="40" r="2.45"/><circle class="cls-2" cx="40.07" cy="40" r="1.65"/><circle class="cls-2" cx="20.16" cy="40" r="1.65"/><path class="cls-1" d="M49.81,14.43A1.2,1.2,0,0,0,49,13.3a1.16,1.16,0,0,0-.78,0H10.1l-1-3.8-.28-1a1,1,0,0,0-.52-.66A1.22,1.22,0,0,0,8,7.74H1.23a1.41,1.41,0,0,0-1,.41,1.37,1.37,0,0,0-.41,1,1.41,1.41,0,0,0,1.4,1.41H7.15L12.2,29l.58,2.12L14,35.45a1,1,0,0,0,1,.76H43.3a1.06,1.06,0,0,0,0-2.11H15.83l-.82-3H44.59a1,1,0,0,0,1.1-.9,1,1,0,0,0-.26-.77l4.33-14.63A1.27,1.27,0,0,0,49.81,14.43ZM29.1,18.49c.13-.93.81-1.59,1.5-1.49a1.53,1.53,0,0,1,1,1.86c-.13.93-.81,1.6-1.5,1.5A1.54,1.54,0,0,1,29.1,18.49Zm-2.46-1.66c.71-.13,1.44.54,1.61,1.49a1.59,1.59,0,0,1-1,2c-.72.13-1.43-.54-1.61-1.5A1.59,1.59,0,0,1,26.64,16.83ZM23.12,21.4a1.53,1.53,0,0,1,.81-1.94c.67-.17,1.4.43,1.63,1.33a1.51,1.51,0,0,1-.8,1.92C24.08,22.89,23.35,22.29,23.12,21.4Zm6.53,5.49A2,2,0,0,0,28,26.65a3.54,3.54,0,0,1-2.19.37,2.48,2.48,0,0,1-.78-.39,2.07,2.07,0,0,1-.4-2.14,2.67,2.67,0,0,1,.75-1c.25-.2.49-.42.72-.64a9.08,9.08,0,0,0,.64-.89,2.73,2.73,0,0,1,.78-.7,1.94,1.94,0,0,1,1-.3,2.64,2.64,0,0,1,2.3,1.44,3.59,3.59,0,0,0,.68.86,4.37,4.37,0,0,1,.79.76,1.76,1.76,0,0,1,.38.91C32.75,28,29.83,27,29.65,26.89Zm4.43-5.32c-.31.87-1.09,1.4-1.74,1.17a1.51,1.51,0,0,1-.64-2,1.53,1.53,0,0,1,1.74-1.18A1.52,1.52,0,0,1,34.08,21.57Z"/></svg>