<svg id="Layer_1" data-name="Layer 1" xmlns="http://www.w3.org/2000/svg" viewBox="0 0 50 50"><defs><style>.cls-1{fill:#f7b119;}</style></defs><title>icon (2)</title><path class="cls-1" d="M49.83,19.43,33.07,16.36,25,1.37l-8.08,15L.15,19.43,11.91,31.74,9.65,48.63,25,41.25l15.35,7.38L38.07,31.74Zm-24.2,4.9a1.94,1.94,0,0,1,2-1.78A1.8,1.8,0,0,1,29,24.74a2,2,0,0,1-2,1.78A1.78,1.78,0,0,1,25.63,24.33Zm-4.55-.16A1.82,1.82,0,0,1,23,22.33a2,2,0,0,1,1.52,2.27,1.82,1.82,0,0,1-1.89,1.85A2,2,0,0,1,21.08,24.17Zm-3.32,3.56a1.7,1.7,0,0,1,1-2.26A1.94,1.94,0,0,1,21,27a1.73,1.73,0,0,1-1.05,2.27A2,2,0,0,1,17.76,27.73Zm8.58,6.46a2.89,2.89,0,0,0-2.17-.28,5.12,5.12,0,0,1-2.88.43,3,3,0,0,1-1-.46,2.2,2.2,0,0,1-.51-2.51,3.22,3.22,0,0,1,1-1.14,12.06,12.06,0,0,0,.94-.77,9.78,9.78,0,0,0,.87-1,2.94,2.94,0,0,1,1-.8,2.85,2.85,0,0,1,1.25-.38,3.57,3.57,0,0,1,3,1.71,3.68,3.68,0,0,0,.88,1,6.42,6.42,0,0,1,1.05.89,2.08,2.08,0,0,1,.5,1.07C30.42,35.45,26.58,34.28,26.34,34.19Zm5.82-6.25a2,2,0,0,1-2.28,1.37A1.69,1.69,0,0,1,29.05,27a2,2,0,0,1,2.27-1.37A1.69,1.69,0,0,1,32.16,27.94Z"/></svg>