<svg id="Layer_1" data-name="Layer 1" xmlns="http://www.w3.org/2000/svg" viewBox="0 0 50 50"><defs><style>.cls-1{fill:#f7b119;}</style></defs><title>icon (2)</title><path class="cls-1" d="M18.26,19.73c-3.08,0-6-2.65-6.74-6.3A7.72,7.72,0,0,1,12.6,7.52a5.51,5.51,0,0,1,3.63-2.35c3.36-.54,6.78,2.26,7.58,6.24a7.72,7.72,0,0,1-1.08,5.91,5.44,5.44,0,0,1-3.63,2.34A4.76,4.76,0,0,1,18.26,19.73ZM17.08,6.13a4,4,0,0,0-.69,0,4.42,4.42,0,0,0-3,1.92,6.67,6.67,0,0,0-.91,5.12c.69,3.46,3.56,5.9,6.41,5.43a4.4,4.4,0,0,0,2.95-1.91,6.69,6.69,0,0,0,.91-5.13C22.17,8.44,19.68,6.13,17.08,6.13Z"/><path class="cls-1" d="M32.14,20a4.82,4.82,0,0,1-.65,0,5.43,5.43,0,0,1-3.63-2.18,7.57,7.57,0,0,1-1.27-5.7c.63-3.9,3.83-6.72,7.14-6.3A5.36,5.36,0,0,1,37.35,8a7.59,7.59,0,0,1,1.27,5.7C38,17.33,35.21,20,32.14,20ZM33.06,6.8c-2.57,0-5,2.34-5.45,5.48a6.52,6.52,0,0,0,1.07,4.93A4.34,4.34,0,0,0,31.62,19c2.78.37,5.45-2.09,6-5.45a6.5,6.5,0,0,0-1.08-4.92A4.39,4.39,0,0,0,33.6,6.83,4.89,4.89,0,0,0,33.06,6.8Z"/><path class="cls-1" d="M7.06,29.28c-2.84,0-5.64-2.31-6.58-5.63a7.4,7.4,0,0,1,.6-5.73,5.16,5.16,0,0,1,3.3-2.44c3.19-.73,6.64,1.75,7.7,5.5a7.35,7.35,0,0,1-.61,5.73,5.13,5.13,0,0,1-3.29,2.45A5.33,5.33,0,0,1,7.06,29.28ZM5.51,16.37a4.7,4.7,0,0,0-.91.1,4.09,4.09,0,0,0-2.64,2,6.31,6.31,0,0,0-.49,4.92c.91,3.24,3.82,5.39,6.49,4.79a4.1,4.1,0,0,0,2.64-2,6.34,6.34,0,0,0,.49-4.93C10.28,18.39,7.9,16.37,5.51,16.37Z"/><path class="cls-1" d="M42.59,29.47a5,5,0,0,1-1.52-.23,5,5,0,0,1-3-2.67A7.24,7.24,0,0,1,38,20.79c1.41-3.65,5.09-5.84,8.19-4.88a5,5,0,0,1,3,2.67,7.32,7.32,0,0,1,.06,5.78C48.08,27.43,45.29,29.47,42.59,29.47Zm2-12.77c-2.29,0-4.67,1.79-5.71,4.46h0a6.29,6.29,0,0,0,0,5,3.93,3.93,0,0,0,2.42,2.14c2.6.81,5.71-1.11,6.94-4.28a6.29,6.29,0,0,0,0-5,4,4,0,0,0-3.65-2.32Z"/><path class="cls-1" d="M34.77,46.29a18.77,18.77,0,0,1-5.49-.88,9.1,9.1,0,0,0-6.87-.92c-.55.16-1.09.34-1.63.51-2.58.84-5.24,1.7-8.21.91A10.73,10.73,0,0,1,9,44.34c-2.63-1.94-3.1-6.3-1.86-9a10.56,10.56,0,0,1,3.41-4c1.09-.82,2.14-1.67,3.11-2.52a12.14,12.14,0,0,0,1.72-2,17.15,17.15,0,0,1,1.05-1.37A12,12,0,0,1,20,22.65a9,9,0,0,1,4.41-1.27h0A12.21,12.21,0,0,1,34.66,27l.36.52a11.13,11.13,0,0,0,2.6,2.94,19.19,19.19,0,0,1,3.55,3A6.9,6.9,0,0,1,43,37.34c.17,3.51-.79,6-2.84,7.49A9.14,9.14,0,0,1,34.77,46.29ZM24.6,43.15a11.24,11.24,0,0,1,5.1,1.33c.93.37,6.6,1.83,9.82-.48,1.75-1.26,2.57-3.47,2.42-6.58a5.78,5.78,0,0,0-1.55-3.23A18,18,0,0,0,37,31.34a12.12,12.12,0,0,1-2.85-3.2l-.36-.51a11.13,11.13,0,0,0-9.48-5.23,8.35,8.35,0,0,0-3.89,1.16,10.65,10.65,0,0,0-3.24,2.58c-.34.4-.66.84-1,1.3a13,13,0,0,1-1.87,2.2c-1,.87-2.05,1.73-3.16,2.57a9.51,9.51,0,0,0-3.1,3.56C7,38.11,7.44,41.91,9.62,43.51a9.62,9.62,0,0,0,3.21,1.41c2.68.72,5.09-.06,7.63-.89.55-.18,1.1-.36,1.66-.52A8.6,8.6,0,0,1,24.6,43.15Z"/></svg>