<svg id="Layer_1" data-name="Layer 1" xmlns="http://www.w3.org/2000/svg" viewBox="0 0 50 50"><defs><style>.cls-1{fill:#f7b119;}</style></defs><title>icon (2)</title><path class="cls-1" d="M25,0A25,25,0,1,0,50,25,25,25,0,0,0,25,0Zm0,46.59A21.59,21.59,0,1,1,46.59,25,21.59,21.59,0,0,1,25,46.59Z"/><path class="cls-1" d="M41.13,15a2.64,2.64,0,0,1-.55,1.62l-.14.18-.88,1.15L38,20l-2,2.64-2.32,3L31.27,28.8l-2.38,3.11-2.13,2.8L25,37,23.9,38.45c-.16.21-.33.39-.5.59a2.79,2.79,0,0,1-.54.49,2.61,2.61,0,0,1-2.73.1,6.74,6.74,0,0,1-1.59-1.47l-2.35-2.53-2.86-3.07L10.92,30,10,29a2.75,2.75,0,0,1,.15-4,2.67,2.67,0,0,1,3.64.25l7.12,7.64a.35.35,0,0,0,.53,0l14.91-19.5A2.66,2.66,0,0,1,41.13,15Z"/></svg>