<svg id="Layer_1" data-name="Layer 1" xmlns="http://www.w3.org/2000/svg" viewBox="0 0 50 50"><defs><style>.cls-1{fill:#f7b119;}</style></defs><title>icon (2)</title><path class="cls-1" d="M46.7,8.83H3.34a2.75,2.75,0,0,0,0,5.49H46.7a2.75,2.75,0,0,0,0-5.49Zm0,5.12H3.34a2.38,2.38,0,1,1,0-4.75H46.7a2.38,2.38,0,1,1,0,4.75Z"/><path class="cls-1" d="M49.08,11.57A2.38,2.38,0,0,1,46.7,14H3.34a2.38,2.38,0,1,1,0-4.75H46.7A2.38,2.38,0,0,1,49.08,11.57Z"/><path class="cls-1" d="M46.7,22.25H3.34a2.74,2.74,0,0,0,0,5.48H46.7a2.74,2.74,0,0,0,0-5.48Zm0,5.12H3.34a2.38,2.38,0,1,1,0-4.75H46.7a2.38,2.38,0,1,1,0,4.75Z"/><path class="cls-1" d="M49.08,25a2.38,2.38,0,0,1-2.38,2.38H3.34a2.38,2.38,0,1,1,0-4.75H46.7A2.38,2.38,0,0,1,49.08,25Z"/><path class="cls-1" d="M46.7,35.67H3.34a2.75,2.75,0,0,0,0,5.5H46.7a2.75,2.75,0,0,0,0-5.5Zm0,5.12H3.34a2.37,2.37,0,1,1,0-4.74H46.7a2.37,2.37,0,1,1,0,4.74Z"/><path class="cls-1" d="M49.08,38.43a2.38,2.38,0,0,1-2.38,2.36H3.34a2.37,2.37,0,1,1,0-4.74H46.7A2.38,2.38,0,0,1,49.08,38.43Z"/></svg>