<svg id="Layer_1" data-name="Layer 1" xmlns="http://www.w3.org/2000/svg" viewBox="0 0 50 50"><defs><style>.cls-1{fill:#f7b119;}</style></defs><title>icon (2)</title><path class="cls-1" d="M41.87,6.81l0,1.55-9.76-.11a.5.5,0,0,0-.45.54.5.5,0,0,0,.44.56l9.75.12V11l-9.76-.11a.49.49,0,0,0-.45.54.5.5,0,0,0,.44.56l9.75.12,0,1.55L32,13.57a.49.49,0,0,0-.45.54.5.5,0,0,0,.44.56l9.75.11,0,1.56L32,16.22a.52.52,0,0,0-.46.55.53.53,0,0,0,.44.56l9.76.11,0,1.56L32,18.88a.51.51,0,0,0-.46.54A.53.53,0,0,0,32,20l9.76.11,0,1.57-9.76-.12a.56.56,0,0,0,0,1.09l9.76.12,0,1.56L31.9,24.2a.56.56,0,0,0,0,1.09l9.76.12,0,1.55-9.76-.11a.51.51,0,0,0-.45.55.5.5,0,0,0,.44.55l9.75.12v1.55l-9.76-.11a.56.56,0,0,0,0,1.1l9.75.11L41.4,46.17a.79.79,0,1,0,1.54,0L43.44,4a.94.94,0,0,0-.51-.89s0,0,0,0l-.12,0h-.12L32.15,2.93a.52.52,0,0,0-.45.55.51.51,0,0,0,.44.56l9.76.11,0,1.56-9.76-.12a.51.51,0,0,0-.45.55.5.5,0,0,0,.44.55Z"/><path class="cls-1" d="M30.84,41.44h0l0,0S30.85,41.44,30.84,41.44Zm.42-2.09h0Zm0,0h0Zm-.42,2.09h0l0,0S30.85,41.44,30.84,41.44Zm0,0h0l0,0S30.85,41.44,30.84,41.44Zm.42-2.09h0Zm0,0h0Zm-.43,2.09,0,0s0,0,0,0ZM36.49,44A6.07,6.07,0,0,1,34,39.89q-.12-.7-.3-1.44C33,35.82,31,33.36,28.91,33a4.67,4.67,0,0,1-2.57-1.68c-.23-.24-.45-.49-.67-.74a44.1,44.1,0,0,1-6.33-8.29c-2.28-4.07-4.5-8.18-6.7-12.3-2.51-4.7-2.49-4.71-5-9.42C6.36-.82,6.57,1,6.57,1c1.21,3.21,3.29,8.89,4.5,12.1,1,2.69,2.06,5.37,3,8.06a1.61,1.61,0,0,0,.8,1,18.54,18.54,0,0,1,6.25,5c1.07,1.34,2.16,2.67,3.22,4,.54.69,1.06,1.42,1.57,2.12a1.17,1.17,0,0,1-.07.15c-1.85,1.52-2.1,5.37.21,8.78,1.81,2.68,4.65,3.67,6.41,2.17.81-.7,1.61-.51,2.54.17.43.29.83.64,1.24.93,1,.67,1.55.56,2.12-.34C37.74,44.74,37.11,44.41,36.49,44Zm-4.81-6.93a.83.83,0,0,1,.69.89c0,.51-.28.93-.66.93S31,38.49,31,38A.83.83,0,0,1,31.68,37.06Zm-1.94-.77c.38-.08.77.26.87.76a.83.83,0,0,1-.47,1.05c-.38.08-.77-.26-.87-.76A.83.83,0,0,1,29.74,36.29Zm-2,.67a.85.85,0,0,1,1.09.45.74.74,0,1,1-1.22.73A.84.84,0,0,1,27.7,37Zm.15,3.34a.94.94,0,0,1-1-1.48.83.83,0,0,1,1.09.35A.82.82,0,0,1,27.85,40.3Zm3.28,1.2-.27,0a1,1,0,0,0-.6.2v0l0,0s0,0,0,0-.05.06,0,.07l0,0-.07,0a1.22,1.22,0,0,1-1.48.39,1.13,1.13,0,0,1-.32-1.59,3.23,3.23,0,0,0,.26-.52,1.55,1.55,0,0,1,.83-1.36,1.43,1.43,0,0,1,1.44.3,1.86,1.86,0,0,0,.49.29c.8.26.88.56.93.64C32.92,41.45,31.24,41.51,31.13,41.5Zm.1-2.14h0Zm-.4,2.08,0,0s0,0,0,0Zm0,0h0l0,0S30.85,41.44,30.84,41.44Zm.42-2.09h0Zm0,0h0Zm-.42,2.09h0l0,0S30.85,41.44,30.84,41.44Zm0,0h0l0,0S30.85,41.44,30.84,41.44Zm.42-2.09h0Zm0,0h0Zm-.42,2.09h0l0,0S30.85,41.44,30.84,41.44Z"/><path class="cls-1" d="M20.9,46.5a.16.16,0,0,0,0,.09s0,0,0,0l0,0v0a.13.13,0,0,1,0-.06S20.88,46.49,20.9,46.5Zm.54-.24a.05.05,0,0,0-.08,0,.2.2,0,0,1,.11,0Zm.21-2.13h0Zm0,0h0Zm-.21,2.13a.05.05,0,0,0-.08,0,.2.2,0,0,1,.11,0Zm-.54.24a.16.16,0,0,0,0,.09s0,0,0,0l0,0v0a.13.13,0,0,1,0-.06S20.88,46.49,20.9,46.5Zm0,0a.16.16,0,0,0,0,.09s0,0,0,0l0,0v0a.13.13,0,0,1,0-.06S20.88,46.49,20.9,46.5Zm.54-.24a.05.05,0,0,0-.08,0,.2.2,0,0,1,.11,0Zm.21-2.13h0Zm0,0h0Zm-.21,2.13a.05.05,0,0,0-.08,0,.2.2,0,0,1,.11,0Zm-.54.24a.16.16,0,0,0,0,.09s0,0,0,0l0,0v0a.13.13,0,0,1,0-.06S20.88,46.49,20.9,46.5Zm0,0a.16.16,0,0,0,0,.09s0,0,0,0l0,0v0a.13.13,0,0,1,0-.06S20.88,46.49,20.9,46.5Zm.54-.24a.05.05,0,0,0-.08,0,.2.2,0,0,1,.11,0Zm.21-2.13h0Zm0,0h0Zm-.21,2.13a.05.05,0,0,0-.08,0,.2.2,0,0,1,.11,0Zm-.54.24a.16.16,0,0,0,0,.09s0,0,0,0l0,0v0a.13.13,0,0,1,0-.06S20.88,46.49,20.9,46.5Zm0,0a.16.16,0,0,0,0,.09s0,0,0,0l0,0v0a.13.13,0,0,1,0-.06S20.88,46.49,20.9,46.5Zm.54-.24a.05.05,0,0,0-.08,0,.2.2,0,0,1,.11,0Zm.21-2.13h0Zm0,0h0Zm-.21,2.13a.05.05,0,0,0-.08,0,.2.2,0,0,1,.11,0Zm-.54.24a.16.16,0,0,0,0,.09s0,0,0,0l0,0v0a.13.13,0,0,1,0-.06S20.88,46.49,20.9,46.5Zm0,0a.16.16,0,0,0,0,.09s0,0,0,0l0,0v0a.13.13,0,0,1,0-.06S20.88,46.49,20.9,46.5Zm.54-.24a.05.05,0,0,0-.08,0,.2.2,0,0,1,.11,0Zm.21-2.13h0Zm0,0h0Zm-.29,2.13a.2.2,0,0,1,.11,0l0,0A.05.05,0,0,0,21.36,46.26Zm-.5.33s0,0,0,0l0,0v0a.13.13,0,0,1,0-.06s0,0,0,0A.16.16,0,0,0,20.86,46.59Zm3.61-3.7c.58,0,.42-.46.18-.92-.13-.25-.21-.54-.35-.78s-.3-.29-.37-.26c-.31.17-.45-.14-.63-.4A6.39,6.39,0,0,0,20.42,38a17.07,17.07,0,0,0-2.05-.5c-.62-4-1.38-8-1.09-11.89a.76.76,0,0,0-.21-.51s-2.89-2.76-2.4-1.08a49.55,49.55,0,0,1,2,13.92,1.13,1.13,0,0,1-.15.68c-1.77,2-1.46,6,.74,8.92C20,51,23.85,50.8,24.73,47.09A8.15,8.15,0,0,0,24.47,42.89Zm-2.63-1.07c.37,0,.72.31.79.81a.82.82,0,0,1-.57,1c-.37.05-.72-.32-.79-.81S21.46,41.86,21.84,41.82Zm-2-.58c.36-.12.78.17.95.66a.84.84,0,0,1-.38,1.1,1,1,0,0,1-.57-1.76Zm-1.48,4.19a.94.94,0,0,1-1.17-1.38.94.94,0,0,1,1.17,1.38Zm-.5-2.13a.86.86,0,0,1,0-1.19.87.87,0,0,1,1.14.34.88.88,0,0,1,0,1.2A.85.85,0,0,1,17.86,43.3Zm3.89,3a1.06,1.06,0,0,0-.87.28l0,0-.07.06a1.22,1.22,0,0,1-1.43.54,1.15,1.15,0,0,1-.49-1.55,3.19,3.19,0,0,0,.22-.55,1.56,1.56,0,0,1,.68-1.43,1.45,1.45,0,0,1,1.47.16,1.79,1.79,0,0,0,.52.24c.81.18.93.47,1,.54C23.52,46.05,21.85,46.28,21.75,46.29Zm-.16-2.15h0Zm-.23,2.12a.2.2,0,0,1,.11,0l0,0A.05.05,0,0,0,21.36,46.26Zm-.45.27a.13.13,0,0,1,0-.06s0,0,0,0a.16.16,0,0,0,0,.09s0,0,0,0l0,0Zm0,0a.16.16,0,0,0,0,.09s0,0,0,0l0,0v0a.13.13,0,0,1,0-.06S20.88,46.49,20.9,46.5Zm.54-.24a.05.05,0,0,0-.08,0,.2.2,0,0,1,.11,0Zm.21-2.13h0Zm0,0h0Zm-.21,2.13a.05.05,0,0,0-.08,0,.2.2,0,0,1,.11,0Zm-.54.24a.16.16,0,0,0,0,.09s0,0,0,0l0,0v0a.13.13,0,0,1,0-.06S20.88,46.49,20.9,46.5Zm0,0a.16.16,0,0,0,0,.09s0,0,0,0l0,0v0a.13.13,0,0,1,0-.06S20.88,46.49,20.9,46.5Zm.54-.24a.05.05,0,0,0-.08,0,.2.2,0,0,1,.11,0Zm.21-2.13h0Zm0,0h0Zm-.21,2.13a.05.05,0,0,0-.08,0,.2.2,0,0,1,.11,0Zm-.54.24a.16.16,0,0,0,0,.09s0,0,0,0l0,0v0a.13.13,0,0,1,0-.06S20.88,46.49,20.9,46.5Zm0,0a.16.16,0,0,0,0,.09s0,0,0,0l0,0v0a.13.13,0,0,1,0-.06S20.88,46.49,20.9,46.5Zm.54-.24a.05.05,0,0,0-.08,0,.2.2,0,0,1,.11,0Zm.21-2.13h0Zm0,0h0Zm-.21,2.13a.05.05,0,0,0-.08,0,.2.2,0,0,1,.11,0Zm-.54.24a.16.16,0,0,0,0,.09s0,0,0,0l0,0v0a.13.13,0,0,1,0-.06S20.88,46.49,20.9,46.5Zm0,0a.16.16,0,0,0,0,.09s0,0,0,0l0,0v0a.13.13,0,0,1,0-.06S20.88,46.49,20.9,46.5Zm.54-.24a.05.05,0,0,0-.08,0,.2.2,0,0,1,.11,0Zm.21-2.13h0Zm0,0h0Zm-.21,2.13a.05.05,0,0,0-.08,0,.2.2,0,0,1,.11,0Zm-.54.24a.16.16,0,0,0,0,.09s0,0,0,0l0,0v0a.13.13,0,0,1,0-.06S20.88,46.49,20.9,46.5Z"/><path class="cls-1" d="M20.92,46.47a.13.13,0,0,0,0,.06v0S20.9,46.47,20.92,46.47Z"/><path class="cls-1" d="M21.58,44.15h0Z"/><path class="cls-1" d="M21.69,44.14h0Z"/><path class="cls-1" d="M20.92,46.47a.13.13,0,0,0,0,.06v0l0,0s0,0,0,0a.16.16,0,0,1,0-.09S20.9,46.47,20.92,46.47Z"/><path class="cls-1" d="M21.47,46.28a.2.2,0,0,0-.11,0,.05.05,0,0,1,.08,0Z"/><path class="cls-1" d="M20.9,46.5s0,0,0,0a.13.13,0,0,0,0,.06v0l0,0s0,0,0,0A.16.16,0,0,1,20.9,46.5Z"/><path class="cls-1" d="M21.44,46.26l0,0a.2.2,0,0,0-.11,0A.05.05,0,0,1,21.44,46.26Z"/><path class="cls-1" d="M21.69,44.14h0Z"/><path class="cls-1" d="M30.29,41.6l0,0h0S30.27,41.59,30.29,41.6Z"/><path class="cls-1" d="M31.18,39.35h0Z"/><path class="cls-1" d="M31.29,39.36h0Z"/><path class="cls-1" d="M30.29,41.6l0,0v0s0,0,0,0,0-.05,0-.07S30.27,41.59,30.29,41.6Z"/><path class="cls-1" d="M30.85,41.46l0,0h0S30.85,41.45,30.85,41.46Z"/><path class="cls-1" d="M30.26,41.64s0,0,0,0l0,0v0s0,0,0,0S30.24,41.66,30.26,41.64Z"/><path class="cls-1" d="M30.84,41.44s0,0,0,0l0,0Z"/><path class="cls-1" d="M31.29,39.36h0Z"/></svg>