<svg id="Layer_1" data-name="Layer 1" xmlns="http://www.w3.org/2000/svg" viewBox="0 0 50 50"><defs><style>.cls-1,.cls-2,.cls-3{fill:none;stroke-miterlimit:10;}.cls-1,.cls-3{stroke:#000;}.cls-1{stroke-width:0.71px;}.cls-2{stroke:#fff;stroke-width:0.25px;}.cls-3{stroke-width:0.5px;}</style></defs><title>icon (2)</title><line class="cls-1" x1="25.3" y1="23.39" x2="16.86" y2="23.39"/><path class="cls-1" d="M29.86,23.39h18.6a.63.63,0,0,1,.62.63v3.47a.63.63,0,0,1-.62.63H2.19a.63.63,0,0,1-.63-.63V24a.63.63,0,0,1,.63-.63H12.3"/><path class="cls-1" d="M3.34,28.12h44a0,0,0,0,1,0,0v9.54A8.35,8.35,0,0,1,39,46H11.69a8.35,8.35,0,0,1-8.35-8.35V28.12a0,0,0,0,1,0,0Z"/><path class="cls-1" d="M37.19,14.86H30.62a3.27,3.27,0,0,1,2.46-3.18.67.67,0,0,0,.66.62h.33a.68.68,0,0,0,.67-.61A3.26,3.26,0,0,1,37.19,14.86Z"/><path class="cls-1" d="M41.86,23.39V8.55a.89.89,0,0,0-.89-.9l-.2,0-.19,0H34c-.33,0-.59,0-.81.29s-.14.94-.14,1.43v2.26a.11.11,0,0,0,0,0,.67.67,0,0,0,.66.62h.33a.68.68,0,0,0,.67-.61V10.13a1.5,1.5,0,0,1,0-.6c.16-.31.45-.22.72-.22h3.45c.28,0,.66-.09.89.07a.54.54,0,0,1,.16.14c.16.22.08.72.08,1V23.39"/><path d="M20,17.25c-.33-.37.05-.86.67-.88l.62,0,.62,0c.63,0,1,.44.73.84l-.3.38-.29.39a1,1,0,0,1-1.41,0l-.32-.37Z"/><path class="cls-1" d="M20.52,14.75a2.61,2.61,0,0,0-.27.06,2.51,2.51,0,0,0-1.08.8,11.11,11.11,0,0,0-1.67,2.84c-.3.11-2.47-.6-2.2,1.27.33.78,1.12,1.87,3.66,1.91a6,6,0,0,0,4.79,0c.64,0,4.49-.19,3.71-2.92-.41-.34-1.57-.25-1.57-.25s-.64.17-1.61-2a10.89,10.89,0,0,0-1-1.18,2.28,2.28,0,0,0-1.06-.54,3,3,0,0,0-.79-.07A5.18,5.18,0,0,0,20.52,14.75Z"/><path d="M16.79,19.49a5.66,5.66,0,0,0,2.21.6,6.45,6.45,0,0,0,2.23-.27h.05A3.07,3.07,0,0,1,22,20l.62.13a5.92,5.92,0,0,0,1.26.06,7.42,7.42,0,0,0,2.49-.66,5.24,5.24,0,0,1-2.45,1.05,4.43,4.43,0,0,1-1.36,0c-.23,0-.46-.07-.68-.12l-.55-.14h0a5.31,5.31,0,0,1-2.41.17A4.3,4.3,0,0,1,16.79,19.49Z"/><line class="cls-1" x1="21.3" y1="17.98" x2="21.3" y2="20.05"/><path class="cls-2" d="M19.37,14.48a3.68,3.68,0,0,1,3.86,0"/><circle cx="19.02" cy="17.86" r="0.14"/><circle cx="19.26" cy="17.42" r="0.14"/><circle cx="19.53" cy="17.86" r="0.14"/><circle cx="19.39" cy="18.41" r="0.14"/><circle cx="18.75" cy="18.54" r="0.14"/><circle cx="23.35" cy="17.73" r="0.14"/><circle cx="23.11" cy="17.29" r="0.14"/><circle cx="22.84" cy="17.73" r="0.14"/><circle cx="22.97" cy="18.28" r="0.14"/><circle cx="23.62" cy="18.42" r="0.14"/><path d="M29.33,7.48a4.22,4.22,0,0,0,0-.49c.05-1-.79-2.47-2-2.46s-1.9,1.78-2.24,2.72a15,15,0,0,0-.75,2.68,7.59,7.59,0,0,0-6,0s-1.64-8.58-4.86-4.12a5.33,5.33,0,0,0,0,2,10.15,10.15,0,0,1-.19,3.43,1.89,1.89,0,0,0-.09.34,1.18,1.18,0,0,0,.21.73,1.24,1.24,0,0,0,.44.44,2,2,0,0,0,.4.16c.31.1,1.26.13,1.32.56a4.77,4.77,0,0,1-.19,1,13.63,13.63,0,0,0,.11,4.18.76.76,0,0,1,.25-.18l.08,0a2.88,2.88,0,0,1,1.64-.06l.06-.12a9.82,9.82,0,0,1,2.28-3.36,2.92,2.92,0,0,1,2.68-.38c.88.23,1.64,1.51,2.08,2.27.09.17.58,1.29.8,1.29.36.31,1.81.13,2.06.57a5.15,5.15,0,0,1,.25-1,7.18,7.18,0,0,0,.09-1,8.69,8.69,0,0,0-.2-1.83,13,13,0,0,1-.38-1.27c-.06-.77.89-.41,1.2-.79a.71.71,0,0,0,.14-.29,8.65,8.65,0,0,0-.09-1.43,2,2,0,0,1,0-.35C28.71,9.59,29.18,8.6,29.33,7.48Zm-13,3.41c-.19.34-.5,0-.75.06,0,1.23-1,1.09-1.1.81.31-.2.22-1.21.06-2.13-.73-2.72.33-3.88.82-3.79C18,8.56,16.29,10.89,16.29,10.89Zm1.47,4.21a.74.74,0,1,1,.74-.73A.73.73,0,0,1,17.76,15.1ZM24.6,15a.74.74,0,1,1,.74-.74A.74.74,0,0,1,24.6,15Zm3.34-5.25c-.29,1-.5,2-.19,2.26-.15.28-1.26.3-1.1-1-.27-.09-.64.23-.81-.15,0,0-1.61-2.66,1.66-5.2C28,5.62,29.06,7,27.94,9.73Z"/><path class="cls-3" d="M12.46,22.76a1.89,1.89,0,0,1,2-1c.58.07,2.32,0,2.36,1.28.25,1.38-.48,2.24-.84,1.7,0,.08-.78.75-1.27,0a.64.64,0,0,1-1-.06c0,.08-.51.49-1.21-.3A1.82,1.82,0,0,1,12.46,22.76Z"/><path class="cls-3" d="M25.46,22.76a1.89,1.89,0,0,1,2-1c.59.07,2.33,0,2.36,1.28.25,1.38-.48,2.24-.83,1.7,0,.08-.79.75-1.27,0a.64.64,0,0,1-1-.06c0,.08-.52.49-1.22-.3A1.82,1.82,0,0,1,25.46,22.76Z"/></svg>