<svg id="Layer_1" data-name="Layer 1" xmlns="http://www.w3.org/2000/svg" viewBox="0 0 50 50"><defs><style>.cls-1{fill:#f7b119;}.cls-2{fill:none;stroke:#f7b119;stroke-miterlimit:10;}</style></defs><title>icon (2)</title><path class="cls-1" d="M29.86,16.37v3a12.33,12.33,0,0,1-12.09,12.3,1,1,0,0,1-.24,0A12.36,12.36,0,0,1,5.21,19.33v-3H6.27v2.79A11.3,11.3,0,0,0,17.53,30.42a.75.75,0,0,0,.21,0A11.27,11.27,0,0,0,28.79,19.16V16.37Z"/><path class="cls-2" d="M45.75,16.37V30.52A15.94,15.94,0,0,1,29.86,46.41h0A12.13,12.13,0,0,1,17.77,34.32V31.63"/><path class="cls-1" d="M45.64,8.68a4.16,4.16,0,1,0,4.16,4.15A4.15,4.15,0,0,0,45.64,8.68ZM46.38,11c.28,0,.48.36.46.75s-.3.68-.59.65-.49-.36-.47-.75S46.09,11,46.38,11Zm-1.65,0c.29-.07.61.19.69.58a.64.64,0,0,1-.34.83c-.29.07-.61-.19-.71-.58A.65.65,0,0,1,44.73,11Zm-1.34,2a.62.62,0,0,1,.29-.82c.27-.08.58.14.7.51a.62.62,0,0,1-.29.81C43.82,13.58,43.51,13.35,43.39,13Zm2.82,2.1a.77.77,0,0,0-.68-.05,1.41,1.41,0,0,1-.9.19,1.06,1.06,0,0,1-.33-.14.86.86,0,0,1-.21-.87,1.22,1.22,0,0,1,.29-.42c.1-.08.18-.18.28-.27a3.22,3.22,0,0,0,.25-.39,1.41,1.41,0,0,1,.29-.31.93.93,0,0,1,.39-.15,1.11,1.11,0,0,1,1,.56,1.21,1.21,0,0,0,.31.33,1.81,1.81,0,0,1,.33.29.59.59,0,0,1,.18.36C47.51,15.45,46.3,15.12,46.21,15.09Zm1.71-2.3c-.11.38-.42.61-.7.53a.62.62,0,0,1-.3-.8c.1-.38.4-.61.68-.53S48,12.42,47.92,12.79Z"/><path class="cls-1" d="M8.94,4.74A1.14,1.14,0,0,1,7.81,5.87H6.27v8.66H5.21V5.68a1.23,1.23,0,0,1-.5-.94,1.19,1.19,0,0,1,.5-1,1.17,1.17,0,0,1,.64-.19h2a1,1,0,0,1,.94.54A.92.92,0,0,1,8.94,4.74Z"/><path class="cls-1" d="M30.38,4.74a1.16,1.16,0,0,1-.52,1v8.83H28.8V5.87H27.28a1.15,1.15,0,0,1-1.13-1.13,1.2,1.2,0,0,1,.17-.6,1.13,1.13,0,0,1,1-.54h2a1,1,0,0,1,.62.21A1,1,0,0,1,30.38,4.74Z"/></svg>