<svg id="Layer_1" data-name="Layer 1" xmlns="http://www.w3.org/2000/svg" viewBox="0 0 50 50"><defs><style>.cls-1,.cls-2{fill:#f7b119;}.cls-1,.cls-3{stroke:#f7b119;stroke-miterlimit:10;}.cls-3{fill:none;}</style></defs><title>icon (2)</title><path class="cls-1" d="M46.87,45.2a12.43,12.43,0,0,1-18.69.07,9.67,9.67,0,0,0,0-16.49,12.46,12.46,0,0,1,18.69.08,9.67,9.67,0,0,0,0,16.34Z"/><path class="cls-2" d="M7.34,41.83a6.41,6.41,0,1,0,9.42-5.66L34.45,18.48a6.41,6.41,0,1,0,5.34-9.94,6.58,6.58,0,0,0-.9.06A6.41,6.41,0,1,0,29.59,13L11.89,30.7a6.4,6.4,0,1,0-5.34,9.94,6.84,6.84,0,0,0,.91-.06A6.39,6.39,0,0,0,7.34,41.83Z"/><path class="cls-3" d="M49.93,37a12.44,12.44,0,0,1-3.06,8.17,9.67,9.67,0,0,1,0-16.34A12.4,12.4,0,0,1,49.93,37Z"/><path class="cls-3" d="M32.8,37a9.62,9.62,0,0,1-4.62,8.24,12.45,12.45,0,0,1,0-16.49A9.66,9.66,0,0,1,32.8,37Z"/></svg>