<svg id="Layer_1" data-name="Layer 1" xmlns="http://www.w3.org/2000/svg" viewBox="0 0 50 50"><defs><style>.cls-1{fill:#f7b119;}.cls-2{fill:#fff;}</style></defs><title>icon (2)</title><circle class="cls-1" cx="25.17" cy="24.97" r="24.61"/><path class="cls-2" d="M22.07,40.39c0-4.29,0-8.58,0-12.86,0-.46-.13-.57-.57-.56-1.22,0-2.45,0-3.67,0-.33,0-.44-.08-.43-.42q0-2.3,0-4.59c0-.36.12-.42.43-.41,1.26,0,2.53,0,3.79,0,.36,0,.45-.1.44-.45,0-1.33,0-2.67,0-4a6.84,6.84,0,0,1,1.56-4.33,6.3,6.3,0,0,1,4.52-2.11,27.34,27.34,0,0,1,4.43.14c.32,0,.41.14.4.46,0,1.3,0,2.6,0,3.89,0,.35-.08.47-.44.46-.92,0-1.84,0-2.76,0-1.51.06-2.22.71-2.3,2.16,0,1.15,0,2.3,0,3.45,0,.34.17.33.4.33,1.48,0,3,0,4.43,0,.4,0,.47.09.41.48-.22,1.51-.41,3-.58,4.55,0,.31-.14.39-.43.38-1.22,0-2.45,0-3.67,0-.45,0-.57.1-.57.56,0,4.28,0,8.57,0,12.86Z"/></svg>