<svg id="Layer_1" data-name="Layer 1" xmlns="http://www.w3.org/2000/svg" viewBox="0 0 50 50"><defs><style>.cls-1{fill:#f7b119;}</style></defs><title>icon (2)</title><ellipse class="cls-1" cx="14.44" cy="18.26" rx="0.94" ry="1.25" transform="translate(-3.88 3.89) rotate(-13.55)"/><ellipse class="cls-1" cx="16.88" cy="18.21" rx="1.22" ry="0.91" transform="translate(-2.67 33.51) rotate(-85.21)"/><ellipse class="cls-1" cx="12.69" cy="20.18" rx="0.89" ry="1.2" transform="matrix(0.95, -0.3, 0.3, 0.95, -5.49, 4.76)"/><ellipse class="cls-1" cx="18.78" cy="19.87" rx="1.2" ry="0.89" transform="translate(-5.44 32.54) rotate(-74.23)"/><path class="cls-1" d="M15.64,19.93a1.35,1.35,0,0,0-.67.26,2,2,0,0,0-.52.52,5.74,5.74,0,0,1-.43.66c-.15.17-.31.33-.48.49a2,2,0,0,0-.49.72,1.45,1.45,0,0,0,.37,1.51,1.61,1.61,0,0,0,.57.24A2.56,2.56,0,0,0,15.53,24a1.43,1.43,0,0,1,1.18.1c.14.05,2.26.63,2-1.5a1.21,1.21,0,0,0-.31-.63,3.13,3.13,0,0,0-.59-.5,2.21,2.21,0,0,1-.52-.58A1.87,1.87,0,0,0,15.64,19.93Z"/><circle class="cls-1" cx="11.24" cy="34.51" r="3.91"/><circle class="cls-1" cx="40.37" cy="34.59" r="3.71"/><path class="cls-1" d="M50,23.88v7.67a3.26,3.26,0,0,1-3.27,3.27H44.84v-.13a4.28,4.28,0,0,0,0-.52,4.53,4.53,0,0,0-4.49-4,4.44,4.44,0,0,0-2,.45,4.56,4.56,0,0,0-2.48,3.24,4.51,4.51,0,0,0-.07.81v.15h-.15a3.11,3.11,0,0,1-1.1-.33,3.27,3.27,0,0,1-1.83-2.93V21.25A3.26,3.26,0,0,1,36,18h6.35a3.24,3.24,0,0,1,2,.71l.07.05,2.33,1.85A3.28,3.28,0,0,1,50,23.88Z"/><path class="cls-1" d="M28.3,11.58H4.91a3.28,3.28,0,0,0-3.28,3.26v14.8A2.32,2.32,0,0,0,0,31.86v1.22a2.31,2.31,0,0,0,2.31,2.31h4.5l0-.16a4.9,4.9,0,0,1-.06-.77,4.52,4.52,0,0,1,9,0,4.9,4.9,0,0,1-.06.77l0,.16H29.25a2.32,2.32,0,0,0,2.32-2.31V14.84A3.27,3.27,0,0,0,28.3,11.58ZM15.92,27.67a6.74,6.74,0,1,1,6.75-6.74A6.75,6.75,0,0,1,15.92,27.67Z"/></svg>