<svg id="Layer_1" data-name="Layer 1" xmlns="http://www.w3.org/2000/svg" viewBox="0 0 50 50"><defs><style>.cls-1{fill:#f7b119;}</style></defs><title>icon (2)</title><path class="cls-1" d="M48.12,17.74h-7l.19.4a1.26,1.26,0,0,1-.6,1.67,1.25,1.25,0,0,1-1.67-.6l-.69-1.47H12.8l-.69,1.47a1.25,1.25,0,0,1-2.39-.54,1.24,1.24,0,0,1,.12-.53l.19-.4H3.15A1.19,1.19,0,0,0,2,18.94v.55a1.19,1.19,0,0,0,1.19,1.19h.18L8.85,43.26l.46,1.86s0,.07,0,.1H41.78a.38.38,0,0,0,.18,0l.47-1.93,5.5-22.59h.19a1.19,1.19,0,0,0,1.19-1.19v-.55A1.2,1.2,0,0,0,48.12,17.74ZM40.33,42.47a.76.76,0,0,1-.74.58H11.69a.76.76,0,0,1-.74-.58L5.63,20.68h40Zm.26-23a.86.86,0,0,0,.51-.79A.85.85,0,0,0,41,18.3l-.26-.56h-2l.62,1.31A.88.88,0,0,0,40.59,19.47ZM10.44,17.74l-.26.56a.88.88,0,0,0,1.59.75l.62-1.31Z"/><rect class="cls-1" x="12.8" y="24.11" width="2.46" height="14.77" rx="0.94" ry="0.94" transform="translate(-7.36 4.45) rotate(-14.33)"/><rect class="cls-1" x="24.41" y="23.53" width="2.46" height="14.77" rx="0.94" ry="0.94"/><rect class="cls-1" x="36.01" y="24.11" width="2.46" height="14.77" rx="0.94" ry="0.94" transform="translate(65.53 71.21) rotate(-165.67)"/><path class="cls-1" d="M17.88,6.06,12.39,17.74l-.62,1.31a.88.88,0,0,1-1.59-.75l.26-.56L16.28,5.31a.89.89,0,0,1,.5-.45.86.86,0,0,1,.67,0A.89.89,0,0,1,17.88,6.06Z"/><path class="cls-1" d="M41.1,18.68a.86.86,0,0,1-.51.79.88.88,0,0,1-1.17-.42l-.62-1.31L33.31,6.06a.89.89,0,0,1,.43-1.17.78.78,0,0,1,.37-.09.8.8,0,0,1,.3.06.89.89,0,0,1,.5.45l5.84,12.43.26.56A.85.85,0,0,1,41.1,18.68Z"/></svg>