<svg id="Layer_1" data-name="Layer 1" xmlns="http://www.w3.org/2000/svg" viewBox="0 0 50 50"><defs><style>.cls-1,.cls-2{fill:#f7b119;}.cls-2{opacity:0.43;}</style></defs><title>icon (2)</title><ellipse class="cls-1" cx="27.12" cy="23.05" rx="1.1" ry="1.47" transform="translate(-3.65 5.17) rotate(-10.2)"/><ellipse class="cls-1" cx="29.98" cy="23.15" rx="1.42" ry="1.07" transform="translate(2.81 49.55) rotate(-81.85)"/><ellipse class="cls-1" cx="24.94" cy="25.17" rx="1.05" ry="1.4" transform="translate(-5.4 6.87) rotate(-14.17)"/><ellipse class="cls-1" cx="32.09" cy="25.22" rx="1.4" ry="1.05" transform="translate(-2.26 47.28) rotate(-70.87)"/><path class="cls-1" d="M28.4,25.08a1.49,1.49,0,0,0-.79.26,2.12,2.12,0,0,0-.65.58,7.77,7.77,0,0,1-.54.74c-.2.18-.4.37-.6.54a2.09,2.09,0,0,0-.63.81,1.72,1.72,0,0,0,.33,1.79,2,2,0,0,0,.65.32A2.94,2.94,0,0,0,28,29.81a1.69,1.69,0,0,1,1.38.21c.15.06,2.59.89,2.48-1.62a1.43,1.43,0,0,0-.32-.76,3.58,3.58,0,0,0-.66-.63,2.63,2.63,0,0,1-.56-.72A2.24,2.24,0,0,0,28.4,25.08Z"/><path class="cls-1" d="M49.75,18.38a1.16,1.16,0,0,0-.84-1.12,1.1,1.1,0,0,0-.78,0H10.42l-1-3.77-.27-1a1,1,0,0,0-.52-.65,1,1,0,0,0-.27-.09l-.14,0H1.64a1.39,1.39,0,0,0-1,.41,1.35,1.35,0,0,0-.41,1,1.4,1.4,0,0,0,1.39,1.4H7.5l5,18.28L13.11,35l1.18,4.27a1,1,0,0,0,1,.76l.23,0a1.26,1.26,0,0,0,.28,0H43.31a1,1,0,1,0,0-2.09H16.1l-.82-3h29.3a1,1,0,0,0,1-1.05,1.08,1.08,0,0,0-.2-.61L49.7,18.71A1,1,0,0,0,49.75,18.38ZM43.11,32.86H14.7L11,19.4H47.07Z"/><circle class="cls-1" cx="20.39" cy="43.7" r="2.43"/><circle class="cls-1" cx="40.1" cy="43.7" r="2.43"/><circle class="cls-2" cx="40.1" cy="43.7" r="1.63"/><circle class="cls-2" cx="20.39" cy="43.7" r="1.63"/></svg>