<svg id="Layer_1" data-name="Layer 1" xmlns="http://www.w3.org/2000/svg" viewBox="0 0 50 50"><defs><style>.cls-1,.cls-2{fill:#f7b119;}.cls-2{opacity:0.43;}</style></defs><title>icon (2)</title><path class="cls-1" d="M20.57,26.39a1.4,1.4,0,1,0,2.05-1.23l3.85-3.86a1.39,1.39,0,1,0,1.17-2.16h-.2a1.23,1.23,0,0,0,0-.27,1.4,1.4,0,1,0-2.05,1.23L21.56,24a1.41,1.41,0,0,0-1.17-.62,1.4,1.4,0,0,0,0,2.79h.2A1.14,1.14,0,0,0,20.57,26.39Z"/><path class="cls-1" d="M26.82,26.39a1.4,1.4,0,1,0,2.05-1.23l3.85-3.86a1.39,1.39,0,1,0,1.17-2.16h-.2a1.24,1.24,0,0,0,0-.27,1.4,1.4,0,1,0-2.06,1.23L27.81,24a1.4,1.4,0,1,0-1.16,2.17h.19A2.13,2.13,0,0,0,26.82,26.39Z"/><path class="cls-1" d="M33,26.39a1.4,1.4,0,1,0,2-1.23l3.85-3.86a1.39,1.39,0,1,0,1.17-2.16h-.2a1.24,1.24,0,0,0,0-.27,1.4,1.4,0,1,0-2.06,1.23L34,24a1.41,1.41,0,0,0-1.16-.62,1.4,1.4,0,1,0,0,2.79H33A2.13,2.13,0,0,0,33,26.39Z"/><path class="cls-1" d="M49.24,14.94a1.13,1.13,0,0,0-.82-1.09,1.1,1.1,0,0,0-.74.05H11.2l-1-3.65L9.93,9.3a1,1,0,0,0-.5-.62.78.78,0,0,0-.27-.09L9,8.57H2.71a1.35,1.35,0,0,0-.95.4,1.31,1.31,0,0,0-.4.95,1.36,1.36,0,0,0,1.35,1.35H8.38l4.87,17.68.56,2,1.13,4.13a1,1,0,0,0,1,.74l.22,0a1.26,1.26,0,0,0,.27,0H43a1,1,0,0,0,0-2H16.69L15.9,31H44.23a1,1,0,0,0,.82-1.6l4.14-14.11A1.12,1.12,0,0,0,49.24,14.94Zm-6.42,14H15.34l-3.58-13H46.64Z"/><circle class="cls-1" cx="20.84" cy="39.43" r="2.35"/><circle class="cls-1" cx="39.9" cy="39.43" r="2.35"/><circle class="cls-2" cx="39.9" cy="39.43" r="1.58"/><circle class="cls-2" cx="20.84" cy="39.43" r="1.58"/></svg>