<?xml version="1.0" encoding="utf-8"?>
<!-- Generator: Adobe Illustrator 21.0.2, SVG Export Plug-In . SVG Version: 6.00 Build 0)  -->
<svg version="1.1" id="Layer_1" xmlns="http://www.w3.org/2000/svg" xmlns:xlink="http://www.w3.org/1999/xlink" x="0px" y="0px"
	 viewBox="0 0 50 50" style="enable-background:new 0 0 50 50;" xml:space="preserve">
<style type="text/css">
	.st0{fill:#EA4535;}
	.st1{fill:#36A852;}
	.st2{fill:#557EBF;}
	.st3{fill:#F9BC17;}
</style>
<path class="st0" d="M32.2,1.1c3.4,0.9,6.6,2.6,9.4,4.9c0.4,0.3,0.5,0.5,0,1c-2.1,2-4.1,4.1-6.2,6.2c-0.3,0.3-0.6,0.6-1.1,0.2
	c-6.5-4.8-15.7-3.5-20.5,3c-0.9,1.2-1.6,2.5-2.1,3.9c0,0,0,0.1-0.1,0.2c-0.3,0.2-0.6,0-0.8-0.2l-7-5.4c-0.3-0.2-0.4-0.4-0.5-0.7
	C6.8,6.9,13.5,1.9,21.3,0.6C24.9-0.1,28.7,0.1,32.2,1.1z"/>
<path class="st1" d="M11.8,29.7c1.2,3.5,3.7,6.4,7,8.2c4.6,2.5,10.1,2.5,14.7,0l0.7-0.3c1.2,0.6,2.3,1.4,3.3,2.3
	c1.3,0.9,2.5,2,3.8,3c0.3,0.2,0.6,0.4,0.6,0.8c-2.9,2.8-6.6,4.8-10.7,5.6C20.1,51.8,8.6,46.4,3.5,36.2c0-0.1,0-0.1,0-0.2
	C4,35,5,34.6,5.8,34c1.5-1.3,3.2-2.4,4.7-3.6C10.9,30,11.3,29.6,11.8,29.7z"/>
<path class="st2" d="M42,43.7l-7.8-6.1c2.2-1.5,3.9-3.7,4.7-6.3c0.3-0.9,0.2-1.2-0.9-1.2c-3.7,0-7.5,0-11.3,0c-0.8,0-1-0.2-1-1
	c0-2.5,0-5.1,0-7.6c0-0.7,0.1-1,0.9-1c7.2,0,14.3,0,21.5,0c0.9,0,0.9,0.5,1,1.1c0.8,5,0.1,10.1-1.9,14.7
	C46.2,39.1,44.3,41.6,42,43.7z"/>
<path class="st3" d="M11.8,29.7L3.5,36c-3.5-6.9-3.5-15,0-21.9l7.8,5.8c0.2,0.2,0.4,0.3,0.6,0.4C11,23.4,10.9,26.6,11.8,29.7z"/>
</svg>
