<svg id="Layer_1" data-name="Layer 1" xmlns="http://www.w3.org/2000/svg" viewBox="0 0 50 50"><defs><style>.cls-1{fill:#f7b119;}</style></defs><title>icon (2)</title><path class="cls-1" d="M48.18,23A31.54,31.54,0,0,0,25.85,13h0l-.82,0h-.16a10.88,10.88,0,0,0-1.14.06h0A31.51,31.51,0,0,0,1.87,23a2.91,2.91,0,0,0,0,3.95,31.55,31.55,0,0,0,22,10.08l1.16,0h.75A31.55,31.55,0,0,0,48.18,27,2.91,2.91,0,0,0,48.18,23ZM24,15.1h0a7.94,7.94,0,0,1,1,0c.25,0,.51,0,.76,0h0a9.95,9.95,0,0,1-.07,19.84c-.23,0-.47,0-.7,0s-.59,0-.87,0A10,10,0,0,1,24,15.1Z"/></svg>