<svg id="Layer_1" data-name="Layer 1" xmlns="http://www.w3.org/2000/svg" viewBox="0 0 50 50"><defs><style>.cls-1{fill:#f7b119;}</style></defs><title>icon (2)</title><path class="cls-1" d="M48.15,23.21A31.45,31.45,0,0,0,25.82,13.12h0a7.32,7.32,0,0,0-.81,0h-.16a10.6,10.6,0,0,0-1.14.06h-.05A31.51,31.51,0,0,0,1.84,23.21a2.91,2.91,0,0,0,0,3.94,31.49,31.49,0,0,0,22,10.08q.59,0,1.17,0h.75a31.53,31.53,0,0,0,22.4-10.09A2.89,2.89,0,0,0,48.15,23.21ZM24,15.27h0c.32,0,.65,0,1,0a6.34,6.34,0,0,1,.76,0h0a9.94,9.94,0,0,1-.06,19.83c-.24,0-.47,0-.71,0s-.58,0-.87,0A10,10,0,0,1,24,15.27Z"/><circle class="cls-1" cx="25" cy="25.17" r="8.16"/></svg>