<svg id="Layer_1" data-name="Layer 1" xmlns="http://www.w3.org/2000/svg" viewBox="0 0 50 50"><defs><style>.cls-1{fill:#f7b119;}</style></defs><title>icon (2)</title><path class="cls-1" d="M37.57,4H4.83a3.38,3.38,0,0,0-1,.14l-.55.29-.83.42,0,0A3.63,3.63,0,0,0,1.15,7.64V40.38a3.69,3.69,0,0,0,3.68,3.69h17l-.14-.14a1.74,1.74,0,0,1,0-2.36,18.82,18.82,0,0,1,13-6h0c.22,0,.45,0,.68,0h.09c.17,0,.33,0,.49,0a18.11,18.11,0,0,1,5.29.9V7.64A3.69,3.69,0,0,0,37.57,4ZM32.71,34.38H5.12a1.36,1.36,0,0,1,0-2.72H32.71a1.36,1.36,0,1,1,0,2.72Zm4.56-7.56H5.12a1.37,1.37,0,0,1,0-2.73H37.27a1.37,1.37,0,1,1,0,2.73Zm0-7.57H5.12a1.36,1.36,0,0,1-1.36-1.36,1.37,1.37,0,0,1,1.36-1.36H37.27a1.38,1.38,0,0,1,1.37,1.36A1.36,1.36,0,0,1,37.27,19.25Zm0-7H5.12a1.38,1.38,0,0,1-1.36-1.38A1.36,1.36,0,0,1,5.12,9.48H37.27a1.37,1.37,0,0,1,1.37,1.35A1.39,1.39,0,0,1,37.27,12.21Z"/><path class="cls-1" d="M44.45,37.81a3.33,3.33,0,0,0,.09-.78V4.29A3.69,3.69,0,0,0,40.86.62H8.12a3.67,3.67,0,0,0-1,.13l-1.35.7,0,0A3.54,3.54,0,0,0,4.56,3.38l.61-.32a3.2,3.2,0,0,1,1-.13H38.88a3.69,3.69,0,0,1,3.68,3.66V36.92Z"/><path class="cls-1" d="M42.56,36.92l1.89.89A20.41,20.41,0,0,0,42.56,36.92Z"/><path class="cls-1" d="M47.57,41.85a16.87,16.87,0,0,0-12-5.41h0l-.43,0h-.09c-.2,0-.41,0-.61,0h0a16.87,16.87,0,0,0-11.67,5.39,1.56,1.56,0,0,0,0,2.11,16.86,16.86,0,0,0,11.77,5.39l.63,0h.4a16.84,16.84,0,0,0,12-5.4A1.54,1.54,0,0,0,47.57,41.85ZM34.63,37.6h0a4.43,4.43,0,0,1,.52,0,2.82,2.82,0,0,1,.41,0h0a5.32,5.32,0,0,1,0,10.61l-.38,0-.47,0a5.32,5.32,0,0,1-.08-10.6Z"/><circle class="cls-1" cx="35.18" cy="42.89" r="4.37"/></svg>