<svg xmlns="http://www.w3.org/2000/svg" viewBox="0 0 50 50">
    <defs>
        <style>.cls-1{fill:#000;}</style>
    </defs>
    <path class="cls-1"
          d="M26.05,36.53a6.67,6.67,0,1,0,6.67,6.67A6.69,6.69,0,0,0,26.05,36.53Zm1.69,2.85a1.18,1.18,0,0,1,.89,1.44A1.27,1.27,0,0,1,27.33,42a1.18,1.18,0,0,1-.87-1.45A1.24,1.24,0,0,1,27.74,39.38Zm-3.43-.12a1.34,1.34,0,0,1,1.41,1.15,1.23,1.23,0,0,1-.87,1.51,1.3,1.3,0,0,1-1.38-1.14A1.19,1.19,0,0,1,24.31,39.26Zm-3,3.5A1.08,1.08,0,0,1,22,41.3a1.25,1.25,0,0,1,1.4,1,1.13,1.13,0,0,1-.7,1.51A1.27,1.27,0,0,1,21.3,42.76ZM26.91,47a2.06,2.06,0,0,0-1.4-.19,3.27,3.27,0,0,1-1.9.29,1.33,1.33,0,0,1-.66-.29,1.44,1.44,0,0,1-.35-1.65,1.8,1.8,0,0,1,.66-.74,7.12,7.12,0,0,0,.62-.52,4.75,4.75,0,0,0,.54-.68,2.89,2.89,0,0,1,.68-.54,2.12,2.12,0,0,1,.82-.23,2.34,2.34,0,0,1,2,1.12,1.8,1.8,0,0,0,.57.66,4.36,4.36,0,0,1,.68.6,1.08,1.08,0,0,1,.31.7C29.58,47.82,27.08,47.08,26.91,47Zm3.84-4.09a1.32,1.32,0,0,1-1.5.91,1.12,1.12,0,0,1-.54-1.55,1.34,1.34,0,0,1,1.49-.91A1.15,1.15,0,0,1,30.75,42.91Z"/>
    <path class="cls-1"
          d="M34.35,6.87,32,28.08a6.06,6.06,0,0,1-12,0L17.72,6.87A5.92,5.92,0,0,1,23.59.33h4.88A5.93,5.93,0,0,1,34.35,6.87Z"/>
</svg>
