<svg id="Layer_1" data-name="Layer 1" xmlns="http://www.w3.org/2000/svg" xmlns:xlink="http://www.w3.org/1999/xlink"
     viewBox="0 0 50 50">
    <defs>
        <style>.cls-4{clip-path:url(#clip-path);}</style>
        <clipPath id="clip-path">
            <path fill="none"
                  d="M49.54,25.16a24.73,24.73,0,0,1-2.9,11.62,6,6,0,0,0-1-.48,8.1,8.1,0,0,0-11.21,7.48A7.92,7.92,0,0,0,35,46.53a5.38,5.38,0,0,0,.42.95A24.69,24.69,0,1,1,49.54,25.16Z"/>
        </clipPath>
    </defs>
    <path
            d="M49.54,25a24.73,24.73,0,0,1-2.9,11.62,6,6,0,0,0-1-.48,8.1,8.1,0,0,0-11.21,7.48A7.88,7.88,0,0,0,35,46.37a5.38,5.38,0,0,0,.42,1A24.69,24.69,0,1,1,49.54,25Z"/>
    <path
            d="M45.54,37.65a5.5,5.5,0,0,0-.95-.45,6.54,6.54,0,0,0-2.38-.45,6.63,6.63,0,0,0-6.62,6.63,6.74,6.74,0,0,0,.32,2.07,6.93,6.93,0,0,0,.42,1,6.62,6.62,0,1,0,9.21-8.77Zm0,6.6H43.09v2.48a.88.88,0,0,1-.88.87.87.87,0,0,1-.86-.87V44.25H38.87a.87.87,0,0,1-.88-.87.89.89,0,0,1,.88-.87h2.48V40a.87.87,0,0,1,.86-.87.89.89,0,0,1,.72.38.82.82,0,0,1,.16.49v2.48h2.47a.87.87,0,1,1,0,1.74Z"/>
    <path fill="#fff"
          d="M46.44,43.38a.87.87,0,0,1-.88.87H43.09v2.48a.88.88,0,0,1-.88.87.87.87,0,0,1-.86-.87V44.25H38.87a.87.87,0,0,1-.88-.87.89.89,0,0,1,.88-.87h2.48V40a.87.87,0,0,1,.86-.87.89.89,0,0,1,.72.38.82.82,0,0,1,.16.49v2.48h2.47A.88.88,0,0,1,46.44,43.38Z"/>
    <circle fill="none" cx="24.85" cy="24.99" r="23.64"/>
    <path fill="none"
          d="M49.54,25a24.73,24.73,0,0,1-2.9,11.62,6,6,0,0,0-1-.48,8.1,8.1,0,0,0-11.21,7.48A7.88,7.88,0,0,0,35,46.37a5.38,5.38,0,0,0,.42,1A24.69,24.69,0,1,1,49.54,25Z"/>
    <g class="cls-4">
        <path fill="#fff"
              d="M-74.27,67.56a3.29,3.29,0,0,1,.39-.17,25.17,25.17,0,0,0,4.95-1.9,12.7,12.7,0,0,0,5.44-5.32c.88-1.65,1.64-3.36,2.43-5.06a31.26,31.26,0,0,1,2.71-4.91,32.08,32.08,0,0,1,7-7.09,32.34,32.34,0,0,1,8.87-4.81A29.72,29.72,0,0,1-37.95,37c1.15-.22,2.3-.47,3.46-.59,1.73-.19,3.46-.35,5.19-.39,2.35-.05,4.69,0,7,0,1.21,0,2.43.15,3.64.1,1.49,0,3-.21,4.47-.36,1-.09,2-.24,2.93-.37l1.14-.14L-8,35c.62-.1,1.24-.23,1.86-.34s1.51-.27,2.26-.44,1.62-.4,2.42-.63,1.86-.55,2.78-.84a1,1,0,0,0,.46-.29c.93-1.13,1.81-2.29,2.76-3.39C5.89,27.54,7.26,26,8.62,24.5c.38-.42.8-.82,1.21-1.22s.75-.77,1.16-1.11c.91-.75,1.83-1.48,2.77-2.19a20.16,20.16,0,0,1,1.88-1.29c.78-.47,1.6-.88,2.4-1.31.21-.11.44-.16.64-.27a1.81,1.81,0,0,0,.47-.4,2.78,2.78,0,0,0,.29-.63,5.27,5.27,0,0,1,1-1.88A4.72,4.72,0,0,1,22.1,13a5.87,5.87,0,0,1,2.1-.62.7.7,0,0,1,.78.33c.14.25.32.25.53.07a1,1,0,0,0,.15-.14.55.55,0,0,1,.91.09,2.64,2.64,0,0,1,.32.82,9.45,9.45,0,0,0,.47,1.81,1.42,1.42,0,0,0,.86.82c.7.24,1.39.53,2.08.78a10.16,10.16,0,0,1,2.27,1.29c.48.33.92.71,1.4,1a1.23,1.23,0,0,1,.64,1.07c0,.22,0,.44,0,.66a1.72,1.72,0,0,0,1.46,1.72c.33.05.66.11,1,.14a14.14,14.14,0,0,1,3.75.83c.15.05.3.17.45.17a2,2,0,0,1,1.14.59A1.73,1.73,0,0,1,42.85,26c-.31.89-.6,1.78-.94,2.66a9.45,9.45,0,0,1-2.31,3.74,4.36,4.36,0,0,1-2.37,1.21c-.31,0-.63.07-.94.14-.69.17-1.38.39-2.08.52-.86.16-1.73.27-2.61.37-1.33.15-2.67.26-4,.4-.33,0-.66.11-1,.13a.64.64,0,0,0-.48.25,30.3,30.3,0,0,0-3.22,5C22,42.18,21,44,20.11,45.72a2,2,0,0,0-.17.63c-.06.44-.08.89-.12,1.33a22.28,22.28,0,0,1-.69,3.9c-.37,1.35-.77,2.69-1.25,4a23.85,23.85,0,0,1-2,4.19,19.48,19.48,0,0,1-3.69,4.54,1.22,1.22,0,0,0-.42.71c0,.16-.07.33-.11.5-.28,1.24-.57,2.47-.85,3.71-.21.93-.44,1.86-.63,2.8-.24,1.22-.47,2.44-.68,3.67S9.11,77.92,9,79c-.12.81-.22,1.63-.28,2.44-.08,1-.14,1.94-.17,2.92,0,.57,0,1.14.06,1.71a4.55,4.55,0,0,0,.65,2.24,2.87,2.87,0,0,0,.6.74c.4.32.88.56,1.27.9a4.58,4.58,0,0,1,1.7,2.81,1.52,1.52,0,0,0,.22.69.64.64,0,0,1,.06.22h-.31c0,.09.08.14.1.2s0,.17.05.25l-.24,0a5.63,5.63,0,0,0-.58,0,2.82,2.82,0,0,0-.57.09l-.55.08a1.12,1.12,0,0,1-.31,0c-.23,0-.46-.12-.69-.13-.5,0-1,0-1.49,0a6,6,0,0,1-2.05-.4,3.91,3.91,0,0,1-1.64-1.43c-.21-.3-.4-.61-.61-.93a.3.3,0,0,1-.47,0,.49.49,0,0,0-.25,0c-.38,0-.77,0-1.15,0-.68-.06-1.36-.12-2-.21a2.84,2.84,0,0,1-1.65-.85,6.52,6.52,0,0,1-1.55-2.57,12.37,12.37,0,0,1-.65-4,.6.6,0,0,0-.26-.6,1.08,1.08,0,0,1-.52-1c0-.53.1-1.07.16-1.6.08-.8.18-1.61.25-2.41.09-1,.18-2.08.25-3.11.08-1.31.16-2.61.21-3.91,0-1,0-2,0-2.93,0-.16-.05-.23-.22-.24L-5,67.8c-1.37-.09-2.73-.14-4.09-.29-1.71-.18-3.41-.42-5.11-.67s-3.15-.51-4.73-.78l-5.43-.93A8,8,0,0,0-26,64.9a6,6,0,0,1-1.47-.14c-.55-.1-1.1-.23-1.65-.32s-.91-.07-1.36-.14q-1.43-.24-2.85-.51a.55.55,0,0,0-.53.15l-2.55,2.64a28.57,28.57,0,0,1-4.71,4c-1.56,1-3.15,2-4.72,3a22.37,22.37,0,0,0-3.75,3,7.7,7.7,0,0,0-2.52,6A3.79,3.79,0,0,0-50.31,86a3.18,3.18,0,0,1,1.12,1.18,6.46,6.46,0,0,1,.68,2.48c0,.16-.09.19-.22.21-.77.09-1.53.21-2.29.28A7.87,7.87,0,0,1-53.88,90,2.54,2.54,0,0,1-55.8,88.2a8.4,8.4,0,0,1-.3-2.28,17.1,17.1,0,0,0-.32-3.27,1.18,1.18,0,0,0-.27-.69c-.28.34-.57.64-.8,1A17.58,17.58,0,0,0-60,88.62a.48.48,0,0,0,.1.38c.56.72,1.15,1.41,1.7,2.12a3.38,3.38,0,0,1,.74,1.59,1.41,1.41,0,0,1-.67,1.49,7.21,7.21,0,0,1-3.52.53,3.93,3.93,0,0,1-2.23-1A3.84,3.84,0,0,1-65,90.6a9.34,9.34,0,0,1,.66-2.89c.75-2.08,1.5-4.16,2.23-6.25a27.6,27.6,0,0,0,1.23-4.81,4.46,4.46,0,0,1,1-2.31A9.34,9.34,0,0,1-58,72.76a7.87,7.87,0,0,0,2.73-3.08,11.48,11.48,0,0,0,1.06-5.1,39.16,39.16,0,0,0-.59-5.51,29.66,29.66,0,0,1-.41-5.72c0-.07,0-.14,0-.24l-.17.11a3.07,3.07,0,0,0-.26.25A12.68,12.68,0,0,0-57.46,56c-1.22,2.09-2.38,4.22-3.8,6.19a18.88,18.88,0,0,1-4,4.17,10,10,0,0,1-8.72,1.76.37.37,0,0,1-.33-.37ZM2.48,76.63c-.13,1-.26,1.93-.38,2.9A24.68,24.68,0,0,0,2,83c0,.43.08.85.12,1.27,0,0,0,.07.09.18,0-.28.08-.47.09-.67l.12-2.65c0-.92.11-1.83.17-2.75,0-.62.06-1.24.1-1.86a2,2,0,0,0,0-.24H2.56A2.33,2.33,0,0,0,2.48,76.63Z"/>
    </g>
    <path
            d="M24.86.3a24.69,24.69,0,1,0,10.52,47,5.38,5.38,0,0,1-.42-1A23.65,23.65,0,1,1,48.49,25a23.33,23.33,0,0,1-2.8,11.14,6,6,0,0,1,1,.48A24.71,24.71,0,0,0,24.86.3Z"/>
</svg>
