<svg  xmlns="http://www.w3.org/2000/svg" viewBox="0 0 50 50">

    <path
          d="M45.41,11.44H37.72a3.65,3.65,0,0,1-3.38-2.09c-.27-.5-.5-1-.77-1.52a3.67,3.67,0,0,0-3.37-2q-5.19,0-10.4,0a3.67,3.67,0,0,0-3.36,2c-.25.45-.47.92-.69,1.38a3.75,3.75,0,0,1-3.64,2.23H4.55A3.82,3.82,0,0,0,.46,15.51V39.45a3.83,3.83,0,0,0,4.15,4.12H45.46a3.81,3.81,0,0,0,4.08-4.07V15.57A3.82,3.82,0,0,0,45.41,11.44ZM25,39.75A13.19,13.19,0,1,1,38.19,26.54,13.17,13.17,0,0,1,25,39.75ZM42,19a1.85,1.85,0,0,1-1.86-1.9A1.82,1.82,0,0,1,42,15.26a1.86,1.86,0,0,1,1.82,1.88A1.89,1.89,0,0,1,42,19Z"/>
    <path  d="M11.77,10.58H6.19A1.79,1.79,0,0,1,7.92,8.71c.7,0,1.4,0,2.09,0A1.84,1.84,0,0,1,11.77,10.58Z"/>
    <path
          d="M25.05,15.26A11.25,11.25,0,1,0,36.3,26.5,11.25,11.25,0,0,0,25.05,15.26Zm1.77,7.11h.12a1,1,0,0,1,.64.38,1.44,1.44,0,0,1,.23,1.09A1.29,1.29,0,0,1,26.5,25a1,1,0,0,1-.64-.39,1.47,1.47,0,0,1-.23-1.08A1.34,1.34,0,0,1,26.82,22.37Zm-4.29.29a.92.92,0,0,1,.65-.42h.14a1.4,1.4,0,0,1,1.26,1.19,1.46,1.46,0,0,1-.2,1.12,1,1,0,0,1-.65.43,1.37,1.37,0,0,1-1.41-1.2A1.5,1.5,0,0,1,22.53,22.66ZM19.9,26A1.39,1.39,0,0,1,20,24.93a.89.89,0,0,1,.57-.44l.2,0A1.38,1.38,0,0,1,22,25.53a1.29,1.29,0,0,1-.11,1.08.89.89,0,0,1-.57.44A1.33,1.33,0,0,1,19.9,26Zm8.33,4.51a2.76,2.76,0,0,1-2.15.11A2.33,2.33,0,0,0,25,30.33a2,2,0,0,0-.55.07l-.36.11a2.8,2.8,0,0,1-1.66.2,1.91,1.91,0,0,1-.7-.31,1.47,1.47,0,0,1-.34-1.69,2.1,2.1,0,0,1,.68-.78c.23-.18.47-.37.69-.56a3.15,3.15,0,0,0,.41-.48l.21-.29a2.7,2.7,0,0,1,.71-.56,1.76,1.76,0,0,1,.86-.25A2.42,2.42,0,0,1,27,26.93l.08.12a2.89,2.89,0,0,0,.62.7,4.29,4.29,0,0,1,.74.61,1.37,1.37,0,0,1,.34.71A1.57,1.57,0,0,1,28.23,30.51Zm1.93-4.38a1.34,1.34,0,0,1-1.52.94.88.88,0,0,1-.53-.47,1.27,1.27,0,0,1-.11-.52,1.65,1.65,0,0,1,.11-.57,1.44,1.44,0,0,1,1.24-1,1.17,1.17,0,0,1,.27,0,.82.82,0,0,1,.53.47A1.39,1.39,0,0,1,30.16,26.13Z"/>
</svg>