<svg  xmlns="http://www.w3.org/2000/svg" viewBox="0 0 50 50">

    <path
          d="M49.27,6.81V14.9H.74V6.81A2.56,2.56,0,0,1,3.31,4.25H6.55V7.82A2.13,2.13,0,0,0,8.68,9.94h1a2.12,2.12,0,0,0,2.12-2.12V4.25H38.22V7.82a2.13,2.13,0,0,0,2.12,2.12h1a2.12,2.12,0,0,0,2.12-2.12V4.25H46.7A2.55,2.55,0,0,1,49.27,6.81Z"/>
    <path
          d="M50,15.58H.06V6.81A3.24,3.24,0,0,1,3.31,3.57H7.23V7.82A1.45,1.45,0,0,0,8.68,9.26h1A1.44,1.44,0,0,0,11.1,7.82V3.57H38.9V7.82a1.46,1.46,0,0,0,1.44,1.44h1a1.45,1.45,0,0,0,1.44-1.44V3.57H46.7A3.25,3.25,0,0,1,50,6.81ZM1.42,14.22H48.59V6.81A1.89,1.89,0,0,0,46.7,4.93H44.14V7.82a2.81,2.81,0,0,1-2.8,2.8h-1a2.81,2.81,0,0,1-2.8-2.8V4.93H12.46V7.82a2.8,2.8,0,0,1-2.8,2.8h-1a2.81,2.81,0,0,1-2.81-2.8V4.93H3.31A1.88,1.88,0,0,0,1.42,6.81Z"/>
    <path
          d="M46.82,49.15H3.19A3.13,3.13,0,0,1,.06,46V14.22H50V46A3.13,3.13,0,0,1,46.82,49.15ZM1.42,15.58V46a1.78,1.78,0,0,0,1.77,1.77H46.82A1.78,1.78,0,0,0,48.59,46V15.58Z"/>
    <rect  x="7.09" y="1.04" width="4.25" height="8.53" rx="1.56" ry="1.56"/>
    <path fill="#fff"
          d="M9.22,9.77A2.32,2.32,0,0,1,6.9,7.45V3.17a2.32,2.32,0,1,1,4.63,0V7.45A2.32,2.32,0,0,1,9.22,9.77Zm0-8.53A1.94,1.94,0,0,0,7.28,3.17V7.45a1.94,1.94,0,0,0,3.87,0V3.17A1.94,1.94,0,0,0,9.22,1.24Z"/>
    <rect  x="38.81" y="1.04" width="4.25" height="8.53" rx="1.56" ry="1.56"/>
    <path fill="#fff"
          d="M40.94,9.77a2.32,2.32,0,0,1-2.32-2.32V3.17a2.32,2.32,0,1,1,4.63,0V7.45A2.32,2.32,0,0,1,40.94,9.77Zm0-8.53A1.94,1.94,0,0,0,39,3.17V7.45a1.94,1.94,0,0,0,3.87,0V3.17A1.94,1.94,0,0,0,40.94,1.24Z"/>
    <rect  x="10.08" y="18.31" width="3.99" height="2.89"/>
    <rect  x="16.03" y="18.31" width="3.99" height="2.89"/>
    <rect  x="21.87" y="18.31" width="3.99" height="2.89"/>
    <rect  x="27.82" y="18.31" width="3.99" height="2.89"/>
    <rect  x="33.68" y="18.31" width="3.99" height="2.89"/>
    <rect fill="#f04c33" x="39.93" y="18.31" width="3.99" height="2.89"/>
    <rect  x="4.24" y="23.92" width="3.99" height="2.89"/>
    <rect  x="10.19" y="23.92" width="3.99" height="2.89"/>
    <rect  x="16.03" y="23.92" width="3.99" height="2.89"/>
    <rect  x="21.98" y="23.92" width="3.99" height="2.89"/>
    <rect  x="27.84" y="23.92" width="3.99" height="2.89"/>
    <rect  x="34.09" y="23.92" width="3.99" height="2.89"/>
    <rect  x="4.24" y="29.54" width="3.99" height="2.89"/>
    <rect  x="10.19" y="29.54" width="3.99" height="2.89"/>
    <rect  x="16.03" y="29.54" width="3.99" height="2.89"/>
    <rect  x="21.98" y="29.54" width="3.99" height="2.89"/>
    <rect  x="27.84" y="29.54" width="3.99" height="2.89"/>
    <rect  x="34.09" y="29.54" width="3.99" height="2.89"/>
    <rect  x="4.24" y="35.16" width="3.99" height="2.89"/>
    <rect  x="10.19" y="35.16" width="3.99" height="2.89"/>
    <rect  x="16.03" y="35.16" width="3.99" height="2.89"/>
    <rect  x="4.18" y="40.78" width="3.99" height="2.89"/>
    <rect  x="10.14" y="40.78" width="3.99" height="2.89"/>
    <rect  x="15.97" y="40.78" width="3.99" height="2.89"/>
    <rect  x="21.98" y="35.16" width="3.99" height="2.89"/>
    <rect  x="27.84" y="35.16" width="3.99" height="2.89"/>
    <rect  x="34.09" y="35.16" width="3.99" height="2.89"/>
    <rect fill="#f04c33" x="39.93" y="23.92" width="3.99" height="2.89"/>
    <rect fill="#f04c33" x="39.93" y="29.54" width="3.99" height="2.89"/>
    <rect fill="#f04c33" x="39.93" y="35.16" width="3.99" height="2.89"/>
</svg>