<svg  xmlns="http://www.w3.org/2000/svg" viewBox="0 0 50 50">

    <path
          d="M18.36,10.51l4.15,6.11a1.82,1.82,0,0,1-.66,2.48L20.56,20a1.82,1.82,0,0,0-.67,2.48l6.65,9.79a1.82,1.82,0,0,0,2.55.3l1.29-.88a1.83,1.83,0,0,1,2.55.3l3.85,5.66a1.84,1.84,0,0,1-.67,2.49l-2,1.36a2,2,0,0,1-1.84.25C28,40.05,10.7,32,12.83,13.05a2,2,0,0,1,.87-1.4c.88-.64,1.61-1.12,2.18-1.48A1.8,1.8,0,0,1,18.36,10.51Z"/>
    <path fill="none" stroke="none"
          d="M42.27,29.68a3.49,3.49,0,0,1-3.73,3.19,4.2,4.2,0,0,1-2-.47l-1.41.47.4-1.25a3,3,0,0,1-.76-1.94,3.49,3.49,0,0,1,3.73-3.19A3.49,3.49,0,0,1,42.27,29.68Z"/>
    <ellipse  cx="37.83" cy="28.56" rx="0.43" ry="0.58" transform="translate(-5.64 9.66) rotate(-13.55)"/>
    <ellipse  cx="38.96" cy="28.54" rx="0.56" ry="0.42" transform="translate(7.26 64.98) rotate(-85.21)"/>
    <ellipse  cx="37.02" cy="29.45" rx="0.41" ry="0.55" transform="translate(-7.15 12.51) rotate(-17.52)"/>
    <ellipse  cx="39.84" cy="29.31" rx="0.55" ry="0.41" transform="translate(0.81 59.68) rotate(-74.23)"/>
    <path
          d="M38.38,29.33a1,1,0,0,0-.72.64,2.9,2.9,0,0,1-.24.26.69.69,0,0,0-.1,1,.74.74,0,0,0,.92,0l.06,0a.56.56,0,0,1,.58,0c.06,0,1,.29.94-.69,0-.06,0-.24-.42-.54a1,1,0,0,1-.23-.25A.91.91,0,0,0,38.38,29.33Z"/>
    <path stroke="none" fill="none"
          d="M49.13,25.64c0,11-10.46,20-23.33,20a26.08,26.08,0,0,1-12.27-3l-8.82,3,2.55-7.86A18.14,18.14,0,0,1,2.47,25.64c0-11,10.45-20,23.33-20S49.13,14.62,49.13,25.64Z"/>
</svg>