<svg xmlns="http://www.w3.org/2000/svg" viewBox="0 0 50 50">

    <path
            d="M49.35,11.88c-.6,2-2.28,1.37-3.34,1.37-2.8.47-1.83,2.34-1.83,2.34s.92,3,1.52,5.13c2.39,8.23-2.44,11.07-3,11.53-3.56,2.29-2.6,4.48-2.14,5.29a10.19,10.19,0,0,1,.72,1,4.48,4.48,0,0,1,.92,7.1h0s.51,3.25.51,4.06c-3.46.86-4.73-.61-4.73-.61s-1-1.6-1.87-3.32a4.44,4.44,0,0,1-1-5.47h0a9.58,9.58,0,0,1,1.65-2.74c2.08-2.74-.91-3.71-1.22-3.82-7.21.67-10.31-2.43-11-3.09-4.32-2.24-5.23,0-5.59.45-.56,1.63-2.49,3.36-4.17,5a23.23,23.23,0,0,0-4.52,5.16h0a4.71,4.71,0,0,1,.26,1.55,4.82,4.82,0,0,1-2.83,4.39h0a3,3,0,0,0,.7,1c1.05.88.15,1.47.15,1.47H3.74A5.64,5.64,0,0,0,3.38,48a11.29,11.29,0,0,1-1.91-2.86h0A4.84,4.84,0,0,1,5.72,38a4.28,4.28,0,0,1,.72.06.53.53,0,0,0,.1-.06c4.16.46,5.08-7.21,5-7.87A7.93,7.93,0,0,1,12,24.38c1.79-2.46.48-2.84-.34-2.86a4.55,4.55,0,0,0-.53,0l-1.42-.22h0l0,0a6.43,6.43,0,0,1-1.94-1.17A4.88,4.88,0,0,1,6.26,16.8a8.25,8.25,0,0,1,.21-1.47.93.93,0,0,0,0-.13v0c.06-.16.12-.3.18-.44a2.49,2.49,0,0,1,.16-.33A4.83,4.83,0,0,1,10,12h0a9.26,9.26,0,0,1,1.32-.1,2.59,2.59,0,0,1,.48,0h.06a6.54,6.54,0,0,1,1.76.66l.15.1a4.84,4.84,0,0,1,1.74,2.08.08.08,0,0,0,0,0,6.72,6.72,0,0,1,0,3.71,10.68,10.68,0,0,0-.55,1c-1.24,2.6.9,2,.9,2,7.07.94,8.44-1.74,9.4-3.11a8.25,8.25,0,0,1,1.93-4.2,12.84,12.84,0,0,0,2.17-4h0a6.7,6.7,0,0,1-.76-3.07C28.67,3.18,32.14,0,36.42,0s7.76,3.18,7.76,7.12A3.59,3.59,0,0,0,47.53,10C50.17,9.5,49.57,11.12,49.35,11.88Z"/>
</svg>