<svg xmlns="http://www.w3.org/2000/svg" viewBox="0 0 50 50">

    <rect x="10.65" y="8.34" width="22.11" height="1.64" rx="0.69" ry="0.69"/>
    <rect x="10.65" y="14.02" width="22.11" height="1.64" rx="0.69" ry="0.69"/>
    <rect x="10.65" y="19.61" width="22.11" height="1.64" rx="0.69" ry="0.69"/>
    <rect x="10.65" y="25.2" width="22.11" height="1.64" rx="0.69" ry="0.69"/>
    <path
            d="M39.26,29.51V3.84L35.41.44H5.54v41H23.16a10.82,10.82,0,1,0,16.1-11.91Zm-5.42,15a1.78,1.78,0,1,1,1.78-1.78A1.77,1.77,0,0,1,33.84,44.54Zm1.6-5.81a1.61,1.61,0,0,1-3.21,0l-.61-5.65a1.58,1.58,0,0,1,1.56-1.75h1.31a1.58,1.58,0,0,1,1.56,1.75ZM38.38,29c-.3-.14-.6-.28-.91-.39A10.82,10.82,0,0,0,22.82,38.74v.44c0,.35.05.68.09,1l.06.34H6.41V1.31H33.08V6.86h5.3Zm-3.83,13.5a.29.29,0,0,0,.14.41.35.35,0,0,0,.4-.24.32.32,0,0,0-.14-.42A.36.36,0,0,0,34.55,42.52Zm-.06.52a.46.46,0,0,1-.16-.18.6.6,0,0,0-.52-.29.51.51,0,0,0-.22.06.55.55,0,0,0-.19.14.86.86,0,0,1-.14.18l-.16.14a.44.44,0,0,0-.18.2.39.39,0,0,0,.09.44.36.36,0,0,0,.18.07.9.9,0,0,0,.51-.07.49.49,0,0,1,.37.05s.71.22.68-.39a.26.26,0,0,0-.08-.19Zm-.31-.6a.34.34,0,0,0,.35-.31.31.31,0,0,0-.24-.38.32.32,0,0,0-.34.3A.32.32,0,0,0,34.18,42.44Zm-.66,0a.32.32,0,0,0,.23-.4.36.36,0,0,0-.37-.31.33.33,0,0,0-.23.41A.35.35,0,0,0,33.52,42.42Zm-.39.1a.34.34,0,0,0-.38-.26.3.3,0,0,0-.18.39.33.33,0,0,0,.37.27A.3.3,0,0,0,33.13,42.52Z"/>
</svg>