<svg id="Layer_1" data-name="Layer 1" xmlns="http://www.w3.org/2000/svg" viewBox="0 0 50 50"><defs><style>.cls-1{fill:none;stroke:#f7b119;stroke-miterlimit:10;}.cls-2{fill:#f7b119;}</style></defs><title>icon (2)</title><path class="cls-1" d="M18.07,7.8a8.27,8.27,0,0,1,14.34,0L40.05,21l7.64,13.23a8.28,8.28,0,0,1-7.17,12.42H10A8.28,8.28,0,0,1,2.79,34.26L10.43,21Z"/><path class="cls-2" d="M25.23,29.79h0a3.35,3.35,0,0,1-3.32-3L20.65,15.09a3.26,3.26,0,0,1,3.24-3.61h2.7a3.26,3.26,0,0,1,3.24,3.61L28.56,26.81A3.35,3.35,0,0,1,25.23,29.79Z"/><path class="cls-2" d="M25.24,32.39a3.23,3.23,0,1,0,3.23,3.23A3.24,3.24,0,0,0,25.24,32.39Zm.2,1.94a.61.61,0,0,1,.63-.56.57.57,0,0,1,.43.7.62.62,0,0,1-.63.56A.57.57,0,0,1,25.44,34.33Zm-1-.62a.63.63,0,0,1,.67.56.58.58,0,0,1-.41.73.65.65,0,0,1-.68-.56A.59.59,0,0,1,24.41,33.71Zm-1.47,1.7a.53.53,0,0,1,.34-.71.61.61,0,0,1,.68.48.54.54,0,0,1-.34.73A.63.63,0,0,1,22.94,35.41Zm2.73,2.05a1,1,0,0,0-.69-.09,1.6,1.6,0,0,1-.91.14.71.71,0,0,1-.33-.14.69.69,0,0,1-.16-.8.89.89,0,0,1,.31-.36l.3-.25a2.27,2.27,0,0,0,.27-.33,1.4,1.4,0,0,1,.32-.26,1,1,0,0,1,.4-.11,1.14,1.14,0,0,1,1,.54,1,1,0,0,0,.27.32,1.93,1.93,0,0,1,.34.29.53.53,0,0,1,.15.34C27,37.86,25.75,37.5,25.67,37.46Zm1.85-2a.63.63,0,0,1-.72.44.55.55,0,0,1-.27-.75.64.64,0,0,1,.73-.44A.55.55,0,0,1,27.52,35.48Z"/></svg>