<svg xmlns="http://www.w3.org/2000/svg" viewBox="0 0 50 50">

    <ellipse cx="17.59" cy="11.14" rx="5.76" ry="6.96" transform="translate(-2.42 5.38) rotate(-16.29)"/>
    <ellipse cx="32.68" cy="11.63" rx="6.74" ry="5.6" transform="translate(13.92 40.82) rotate(-76.85)"/>
    <ellipse cx="6.08" cy="21.14" rx="5.47" ry="6.68" transform="translate(-7.51 3.84) rotate(-22.11)"/>
    <ellipse cx="43.82" cy="21.4" rx="6.73" ry="5.43" transform="translate(3.94 49.47) rotate(-61.18)"/>
    <path
            d="M24.36,20.71a9.24,9.24,0,0,0-4.2,1.23,11.46,11.46,0,0,0-3.42,2.73,32.75,32.75,0,0,1-2.85,3.48c-1,.89-2.08,1.75-3.17,2.57a10.4,10.4,0,0,0-3.29,3.8C6.3,37,6.7,41.17,9.15,43a10.33,10.33,0,0,0,3.42,1.51C16,45.4,19,44,22.24,43.05a9.71,9.71,0,0,1,7.27,1c.81.31,13.68,4.2,13.12-7.62a6.35,6.35,0,0,0-1.69-3.58,18.16,18.16,0,0,0-3.49-3,12.87,12.87,0,0,1-3-3.39A11.93,11.93,0,0,0,24.36,20.71Z"/>
</svg>