<svg xmlns="http://www.w3.org/2000/svg" viewBox="0 0 50 50">

    <path
          d="M31.15,38.46a6.06,6.06,0,0,1-2.4,5.19c-1.67,1.33-3.27,2.77-4.92,4.13a14.21,14.21,0,0,1-1.26.94,2.24,2.24,0,0,1-1.31.41,2.14,2.14,0,0,1-1.34-.44,3.26,3.26,0,0,1-1.12-2.85q.06-6.59,0-13.19H31.13C31.11,34.59,31.13,36.52,31.15,38.46Z"/>
    <path
          d="M45.53,6.27c-1.6,3-3.47,5.73-5.25,8.58-2.84,4.52-5.71,9-8.51,13.58a4,4,0,0,0-.56,1.67H18.77a3.8,3.8,0,0,0-.54-1.61c-4.31-6.9-8.66-13.78-13-20.69A13.67,13.67,0,0,1,4.13,5.65,3.26,3.26,0,0,1,7.34,1c2,0,3.91,0,5.87,0h29C45.61,1,47.14,3.29,45.53,6.27Z"/>
</svg>