<svg xmlns="http://www.w3.org/2000/svg" viewBox="0 0 50 50">
    <defs>
        <style>
            .cls-2{fill:#231f20;}.cls-3{fill:#ea4535;}.cls-4{fill:#36a852;}.cls-5{fill:#557ebf;}.cls-6{fill:#f9bc17;}
        </style>
    </defs>
    <path class="cls-1"
          d="M49,25.21a22.06,22.06,0,0,1-.26,3.47,1.4,1.4,0,0,1-.06.41A24,24,0,0,1,28.55,48.94a2.83,2.83,0,0,1-.42.06,22.92,22.92,0,0,1-3.12.21,24,24,0,1,1,24-24Z"/>
    <path class="cls-2"
          d="M25,49.71A24.5,24.5,0,1,1,49.5,25.21a23.34,23.34,0,0,1-.27,3.54,2.6,2.6,0,0,1-.07.45A24.33,24.33,0,0,1,28.63,49.44c-.13,0-.31.05-.47.06A23.15,23.15,0,0,1,25,49.71Zm0-48a23.5,23.5,0,0,0,0,47,23.79,23.79,0,0,0,3-.2,3.59,3.59,0,0,0,.39-.06A23.34,23.34,0,0,0,48.18,29a3,3,0,0,0,.06-.36,23.85,23.85,0,0,0,.26-3.44A23.52,23.52,0,0,0,25,1.71Z"/>
    <path class="cls-3"
          d="M29,11.46a14.15,14.15,0,0,1,5.38,2.8c.25.2.31.3,0,.55-1.19,1.16-2.37,2.35-3.54,3.53-.19.19-.32.33-.61.11a8.4,8.4,0,0,0-12.93,3.94s0,.08-.05.12c-.19.1-.33,0-.46-.12l-4-3.07a.68.68,0,0,1-.3-.39,14,14,0,0,1,10.26-7.74A14.52,14.52,0,0,1,29,11.46Z"/>
    <path class="cls-4"
          d="M17.31,27.89a8.49,8.49,0,0,0,4,4.71,8.9,8.9,0,0,0,8.43,0l.39-.2A8.12,8.12,0,0,1,32,33.73c.75.53,1.46,1.12,2.19,1.7.16.12.37.21.37.47a12.22,12.22,0,0,1-6.11,3.2,14.22,14.22,0,0,1-15.9-7.49.53.53,0,0,1,0-.12c.29-.55.87-.77,1.31-1.15.86-.74,1.81-1.37,2.69-2.08C16.77,28.08,17,27.81,17.31,27.89Z"/>
    <path class="cls-5"
          d="M34.59,35.9l-4.46-3.5a6.89,6.89,0,0,0,2.72-3.62c.16-.52.1-.7-.5-.7-2.15,0-4.3,0-6.46,0-.44,0-.57-.13-.56-.57,0-1.46,0-2.92,0-4.37,0-.38.05-.57.51-.56q6.16,0,12.35,0c.5,0,.53.31.58.63a15,15,0,0,1-1.1,8.4A11.37,11.37,0,0,1,34.59,35.9Z"/>
    <path class="cls-6"
          d="M17.31,27.89l-4.76,3.6a14,14,0,0,1,0-12.56L17,22.27a3.37,3.37,0,0,0,.37.24A9.39,9.39,0,0,0,17.31,27.89Z"/>
</svg>