<svg id="Layer_1" data-name="Layer 1" xmlns="http://www.w3.org/2000/svg" viewBox="0 0 63 64"><title>icon (2) [Recovered]</title><path d="M1.79,47.14V48.6a.48.48,0,0,1-.11-.09,1,1,0,0,1-.23-.62A1,1,0,0,1,1.79,47.14Z"/><path class="cls-1" d="M61.59,22.66a1,1,0,0,1-.44.81l-.87.58V21.74a1,1,0,0,1,1.14.38A1,1,0,0,1,61.59,22.66Z"/><path d="M62.17,17.58v4a2,2,0,0,1-.9,1.67L28.48,45.37a2.42,2.42,0,0,1-3.33-.66,2.48,2.48,0,0,1-.4-1.32,2.37,2.37,0,0,1,1.08-2l.86-.56L20,34.61l-15.4,13a2.39,2.39,0,0,1-1.54.56,2.31,2.31,0,0,1-1.59-.62L1,47.11V44.45l.51-.52,17-14.32a2.57,2.57,0,0,1,1.13-.52l.07,0,.39,0a2.35,2.35,0,0,1,1.63.65l9,8.38,29-19.51a1.88,1.88,0,0,1,.5-.27Z"/><circle cx="15.73" cy="15.58" r="6.11"/><path d="M52,1.42H11a10.07,10.07,0,0,0-10,10V52.54a10.07,10.07,0,0,0,10,10H52a10.07,10.07,0,0,0,10-10V11.46A10.07,10.07,0,0,0,52,1.42Zm5.32,46.4a10.07,10.07,0,0,1-10,10H15.68a10.07,10.07,0,0,1-10-10V16.18a10.07,10.07,0,0,1,10-10H47.32a10.07,10.07,0,0,1,10,10Z"/></svg>


