<svg xmlns="http://www.w3.org/2000/svg" viewBox="0 0 50 50">


    <path
            d="M46.18,25.77a1.3,1.3,0,0,1-1.82.93,2.64,2.64,0,0,1-.84-.72A10.29,10.29,0,0,1,42,22.9c-.55-1.6-1.08-3.22-1.62-4.82a2.56,2.56,0,0,0-.32-.64c-.07-.09-.26-.09-.38-.15a.93.93,0,0,0-.06.39c1.25,3.91,2.52,7.81,3.78,11.71.21.69.44,1.38.67,2.11H39.92a.11.11,0,0,0-.12.11V47.25A2.45,2.45,0,0,1,38,49.71a2.32,2.32,0,0,1-2.82-2.28V31.5h-.44V47.24a2.48,2.48,0,0,1-1.8,2.47,2.34,2.34,0,0,1-2.85-2.28V31.63a.13.13,0,0,0-.12-.12H25.65c.05-.18.08-.33.13-.48,1.15-4.12,2.33-8.25,3.49-12.37.1-.37.2-.73.29-1.11,0-.19.06-.4-.19-.46s-.22.18-.27.34c-.81,2.44-1.6,4.89-2.42,7.33A6.69,6.69,0,0,1,26,26.12a1.28,1.28,0,0,1-1.68.55,1.4,1.4,0,0,1-1-1.33,7.84,7.84,0,0,1,.53-3.11c.78-2.36,1.57-4.73,2.37-7.09.42-1.27.84-2.55,1.28-3.81a3.08,3.08,0,0,1,2.13-2.24,3.15,3.15,0,0,1,.8-.11h7.79a3.67,3.67,0,0,1,3.63,2.61c1.35,4.05,2.72,8.09,4.08,12.15A4.12,4.12,0,0,1,46.18,25.77Z"/>
    <circle cx="34.33" cy="3.92" r="3.82"/>
    <path
            d="M20.24,13.16v15.9a1.24,1.24,0,1,1-2.48,0V16.68l-.22.08V47.44a2.34,2.34,0,0,1-2.35,2.33h-.38a2.33,2.33,0,0,1-2.34-2.33V32H12V47.44a2.33,2.33,0,0,1-2.34,2.33H9.31A2.34,2.34,0,0,1,7,47.44V30.8a1.12,1.12,0,0,1,0-.32V16.76l-.22-.08V29.06a1.25,1.25,0,1,1-2.49,0V13.16a3.73,3.73,0,0,1,.59-2,4,4,0,0,1,.5-.63A3.77,3.77,0,0,1,8,9.41h8.48a3.74,3.74,0,0,1,3.73,3.75Z"/>
    <circle  cx="12.03" cy="3.92" r="3.85"/>
</svg>