<svg xmlns="http://www.w3.org/2000/svg" viewBox="0 0 50 50">

    <path fill="#fff"
          d="M38.14,5.89,34.07,10a.61.61,0,0,1-.43.18.62.62,0,0,1-.45-.2A.6.6,0,0,1,33,9.52a.57.57,0,0,1,.18-.44l1.64-1.64L32.58,5.19,30.94,6.83A.57.57,0,0,1,30.5,7a.67.67,0,0,1-.63-.63A.67.67,0,0,1,30.06,6l4.07-4.07a.6.6,0,0,1,.43-.18.65.65,0,0,1,.63.63.58.58,0,0,1-.18.43L33.39,4.38l2.25,2.25L37.26,5a.55.55,0,0,1,.44-.17.62.62,0,0,1,.43.18.6.6,0,0,1,0,.87Z"/>
    <path fill="#fff"
          d="M42.6,9.74a3.33,3.33,0,0,0-.77-1.15,3.16,3.16,0,0,0-1.15-.76,3.42,3.42,0,0,0-1.3-.22,3.75,3.75,0,0,0-1.31.31,3.93,3.93,0,0,0-1.16.81A4,4,0,0,0,36.1,9.9a3.49,3.49,0,0,0-.31,1.3A3.23,3.23,0,0,0,36,12.5a3.4,3.4,0,0,0,1.92,1.92,3.28,3.28,0,0,0,1.31.21,3.35,3.35,0,0,0,1.3-.31,3.59,3.59,0,0,0,1.16-.81,3.8,3.8,0,0,0,.81-1.16,3.49,3.49,0,0,0,.31-1.3A3.28,3.28,0,0,0,42.6,9.74Zm-1.16,1.81a2.67,2.67,0,0,1-.66,1,2.69,2.69,0,0,1-1.05.66,2.19,2.19,0,0,1-1.13.09,2,2,0,0,1-1.53-1.53,2.19,2.19,0,0,1,.09-1.13,2.62,2.62,0,0,1,.67-1,2.69,2.69,0,0,1,1-.67A2.19,2.19,0,0,1,40,8.89a2,2,0,0,1,1.53,1.53A2.19,2.19,0,0,1,41.44,11.55Z"/>
    <path fill="#fff"
          d="M48.26,15.38a.57.57,0,0,1-.18.42.56.56,0,0,1-.41.17.66.66,0,0,1-.42-.2l-1.1-1.11-3.69,3.69a.6.6,0,0,1-.44.18.68.68,0,0,1-.45-.21.63.63,0,0,1-.21-.45.58.58,0,0,1,.18-.43l3.69-3.69-1.1-1.11a.64.64,0,0,1-.2-.42.57.57,0,0,1,.18-.42.56.56,0,0,1,.41-.17.64.64,0,0,1,.42.2L48.06,15A.6.6,0,0,1,48.26,15.38Z"/>
    <path
          d="M41.53,10.42A2,2,0,0,0,40,8.89,2.19,2.19,0,0,0,38.87,9a2.69,2.69,0,0,0-1,.67,2.62,2.62,0,0,0-.67,1,2.19,2.19,0,0,0-.09,1.13,2,2,0,0,0,1.53,1.53,2.19,2.19,0,0,0,1.13-.09,2.69,2.69,0,0,0,1.05-.66,2.67,2.67,0,0,0,.66-1A2.19,2.19,0,0,0,41.53,10.42Zm0,0A2,2,0,0,0,40,8.89,2.19,2.19,0,0,0,38.87,9a2.69,2.69,0,0,0-1,.67,2.62,2.62,0,0,0-.67,1,2.19,2.19,0,0,0-.09,1.13,2,2,0,0,0,1.53,1.53,2.19,2.19,0,0,0,1.13-.09,2.69,2.69,0,0,0,1.05-.66,2.67,2.67,0,0,0,.66-1A2.19,2.19,0,0,0,41.53,10.42ZM20.16,0,50,29.84V0ZM33.64,10.14a.62.62,0,0,1-.45-.2A.6.6,0,0,1,33,9.52a.57.57,0,0,1,.18-.44l1.64-1.64L32.58,5.19,30.94,6.83A.57.57,0,0,1,30.5,7a.67.67,0,0,1-.63-.63A.67.67,0,0,1,30.06,6l4.07-4.07a.6.6,0,0,1,.43-.18.65.65,0,0,1,.63.63.58.58,0,0,1-.18.43L33.39,4.38l2.25,2.25L37.26,5a.55.55,0,0,1,.44-.17.62.62,0,0,1,.43.18.6.6,0,0,1,0,.87L34.07,10A.61.61,0,0,1,33.64,10.14Zm5.59,4.49a3.28,3.28,0,0,1-1.31-.21A3.4,3.4,0,0,1,36,12.5a3.23,3.23,0,0,1-.21-1.3,3.49,3.49,0,0,1,.31-1.3,4,4,0,0,1,.81-1.17,3.93,3.93,0,0,1,1.16-.81,3.75,3.75,0,0,1,1.31-.31,3.42,3.42,0,0,1,1.3.22,3.16,3.16,0,0,1,1.15.76,3.33,3.33,0,0,1,.77,1.15,3.28,3.28,0,0,1,.21,1.31,3.49,3.49,0,0,1-.31,1.3,3.8,3.8,0,0,1-.81,1.16,3.59,3.59,0,0,1-1.16.81A3.35,3.35,0,0,1,39.23,14.63Zm8.85,1.17a.56.56,0,0,1-.41.17.66.66,0,0,1-.42-.2l-1.1-1.11-3.69,3.69a.6.6,0,0,1-.44.18.68.68,0,0,1-.45-.21.63.63,0,0,1-.21-.45.58.58,0,0,1,.18-.43l3.69-3.69-1.1-1.11a.64.64,0,0,1-.2-.42.57.57,0,0,1,.18-.42.56.56,0,0,1,.41-.17.64.64,0,0,1,.42.2L48.06,15a.6.6,0,0,1,.2.42A.57.57,0,0,1,48.08,15.8ZM41,9.43a1.87,1.87,0,0,0-1-.54A2.19,2.19,0,0,0,38.87,9a2.69,2.69,0,0,0-1,.67,2.62,2.62,0,0,0-.67,1,2.19,2.19,0,0,0-.09,1.13,2,2,0,0,0,1.53,1.53,2.19,2.19,0,0,0,1.13-.09,2.69,2.69,0,0,0,1.05-.66,2.67,2.67,0,0,0,.66-1,2.19,2.19,0,0,0,.09-1.13A1.87,1.87,0,0,0,41,9.43Zm.54,1A2,2,0,0,0,40,8.89,2.19,2.19,0,0,0,38.87,9a2.69,2.69,0,0,0-1,.67,2.62,2.62,0,0,0-.67,1,2.19,2.19,0,0,0-.09,1.13,2,2,0,0,0,1.53,1.53,2.19,2.19,0,0,0,1.13-.09,2.69,2.69,0,0,0,1.05-.66,2.67,2.67,0,0,0,.66-1A2.19,2.19,0,0,0,41.53,10.42Zm0,0A2,2,0,0,0,40,8.89,2.19,2.19,0,0,0,38.87,9a2.69,2.69,0,0,0-1,.67,2.62,2.62,0,0,0-.67,1,2.19,2.19,0,0,0-.09,1.13,2,2,0,0,0,1.53,1.53,2.19,2.19,0,0,0,1.13-.09,2.69,2.69,0,0,0,1.05-.66,2.67,2.67,0,0,0,.66-1A2.19,2.19,0,0,0,41.53,10.42Z"/>
</svg>