<svg xmlns="http://www.w3.org/2000/svg" viewBox="0 0 50 50">

    <path
          d="M22.77,3.05a5.38,5.38,0,0,1,4.54,0l12.6,6.82,9,4.89c2.2,1.19.55,3.16-2.65,3.16H3.78c-3.2,0-4.84-2-2.64-3.16l9-4.89Z"/>
    <path
          d="M43.11,4.63v5a1.87,1.87,0,0,1-.16.75l-1.19-.64L36.45,6.82V4.63a1.82,1.82,0,0,1,1.82-1.82h3A1.82,1.82,0,0,1,43.11,4.63Z"/>
    <path
          d="M43.11,19.15H6.81a3.49,3.49,0,0,0-3.49,3.49V44.07a3.49,3.49,0,0,0,3.49,3.49H17a4,4,0,0,1-.42-.42C14.45,44,15.79,43,16,42.69c3.37-2.08,3.77-3.06,4.07-3.55,2.43-3.72,4.81-3.56,4.81-3.56,2.81.09,4.4,3.21,4.58,3.41a9.41,9.41,0,0,0,3.72,4.15c1.66,1.34.47,2.91-.22,4.12a2.37,2.37,0,0,1-.23.3H43.11a3.49,3.49,0,0,0,3.49-3.49V22.64A3.5,3.5,0,0,0,43.11,19.15ZM14.57,40.48c-.85,0-3,0-3.56-3.8,0-1.1.18-6.82,3.37-6.75,0,0,3,.28,3.37,7.29C17.38,38.84,17.21,40.34,14.57,40.48Zm7.31-7.91c-.2,0-.71,0-1.81,0-3,0-3-4.52-2.82-5.3,1.8-7.18,5-6.18,5-6.18,2.46.91,2.31,5.48,2.33,6.27C24.63,31.53,22.57,32.4,21.88,32.57Zm8.24.32c-1.12-.1-1.63-.15-1.83-.15-.68-.25-2.64-1.35-2.18-5.5.11-.78.45-5.32,3-6,0,0,3.36-.65,4.39,6.66C33.67,28.74,33.14,33.18,30.12,32.89Zm5.4,8.65c-1-.18-1.44-.25-1.62-.27h0c-.58-.27-2.25-1.39-1.54-5.05.14-.69.77-4.71,3.1-5.1,0,0,3-.33,3.44,6.25C39,38.09,38.19,42,35.52,41.54Z"/>
    <path class="cls-2" d="M21.67,32.61a.79.79,0,0,0,.21,0C22.24,32.59,21.67,32.61,21.67,32.61Z"/>
    <path class="cls-2" d="M28.5,32.8c-.07,0-.53-.07-.21-.06Z"/>
    <path class="cls-2" d="M33.9,41.27a.64.64,0,0,1,.16.07c-.09,0-.42-.1-.16-.07Z"/>
</svg>