<svg xmlns="http://www.w3.org/2000/svg" viewBox="0 0 50 50">

    <path  d="M17.5,21.29a.64.64,0,0,1-.52-.75.64.64,0,0,1,.75-.5.64.64,0,1,1-.23,1.25Z"/>
    <path
          d="M33.08,20.15a.6.6,0,0,1-.45.73.63.63,0,0,1-.68-.52.61.61,0,0,1,.45-.74A.6.6,0,0,1,33.08,20.15Z"/>
    <path
          d="M50,16.55a12.93,12.93,0,0,1-3.83,9.23v0l-5.64,5.59-.42-.23a4.1,4.1,0,0,1-.79-.54,5,5,0,0,1-1.52-3.08,8.31,8.31,0,0,1,0-1.93c0-.41.11-.81.17-1.22,0,0,0,0,0,0a6.49,6.49,0,0,0,0-.77,3.18,3.18,0,0,0,0-.82,6.11,6.11,0,0,0-.68-1.86,4,4,0,0,0-.39-.62c0-.09-.23-.26-.25-.36l-.49-3.8s-2.23,2.3-2.27,2.36a3.37,3.37,0,0,0-3.19.92c-.26.43-1.48.79-1.48.79s-.79,3.39,1.33,4.58a1.67,1.67,0,0,1,.89.95,4,4,0,0,1,.2.7,2.78,2.78,0,0,1,.11.6,2.72,2.72,0,0,1,0,.28.85.85,0,0,1-.12.28c0,.09-.09.17-.13.26-.13.27-.26.53-.37.79a8.59,8.59,0,0,0-.57,2.27,9.92,9.92,0,0,0,.32,3.38A15.53,15.53,0,0,0,32,37a8.89,8.89,0,0,1,.41,1,9.42,9.42,0,0,1,.32,1.12v0l-7.2,7.15a.58.58,0,0,1-.45.19.57.57,0,0,1-.43-.19l-6.81-6.75a7.07,7.07,0,0,1,.3-1.05,9,9,0,0,1,.45-1A13.27,13.27,0,0,0,19.7,34.8a8.56,8.56,0,0,0,.3-3.37,7.41,7.41,0,0,0-.68-2.31c-.13-.26-.26-.53-.41-.79l-.17-.28a1.38,1.38,0,0,1-.13-.28,1.37,1.37,0,0,1,0-.28,2.28,2.28,0,0,1,.13-.6,3.33,3.33,0,0,1,.21-.7,1.63,1.63,0,0,1,1-.94c2.34-1.12,1.4-4.56,1.4-4.56s-1.37-.39-1.67-.82a4.22,4.22,0,0,0-3.58-1c0-.06-2.59-2.44-2.59-2.44L13,20.23c0,.09-.2.26-.26.35a5.66,5.66,0,0,0-.43.62A5.22,5.22,0,0,0,11.58,23a2.79,2.79,0,0,0-.06.82,3.38,3.38,0,0,0,.09.72s0,0,0,.05c0,.44.15.85.21,1.28a7.79,7.79,0,0,1,0,1.93,4.67,4.67,0,0,1-1.67,3.06,3.14,3.14,0,0,1-.7.43l-4.84-4.8a15.37,15.37,0,0,1-1.46-1.45A13,13,0,0,1,.75,20.9,12.78,12.78,0,0,1,0,16.55a13.09,13.09,0,0,1,25-5.39,13.08,13.08,0,0,1,25,5.39Z"/>
</svg>