<svg  xmlns="http://www.w3.org/2000/svg" viewBox="0 0 50 50">

    <path
          d="M25.28.56A16.48,16.48,0,0,0,8.79,17a16.23,16.23,0,0,0,1.41,6.64l.18.34,7.23,13,7.67,13.28L33,37,40,24.25l.32-.58A16.47,16.47,0,0,0,25.28.56ZM26,8.8c.16-1.88,1.42-3.32,2.83-3.19s2.42,1.74,2.26,3.62-1.42,3.32-2.84,3.2S25.81,10.69,26,8.8ZM20.81,5.75c1.42-.35,2.93.91,3.39,2.8s-.32,3.71-1.74,4-2.94-.91-3.39-2.82S19.39,6.08,20.81,5.75ZM14.3,15.32c-.56-1.77.06-3.54,1.38-4s2.86.67,3.42,2.45-.06,3.54-1.39,4S14.86,17.1,14.3,15.32ZM28,25.58a4,4,0,0,0-3.34-.3c-1.43.57-2.75,1.37-4.36,1a4.76,4.76,0,0,1-1.59-.67c-1.18-.86-1.47-3-1-4.27a5.17,5.17,0,0,1,1.39-2c.47-.45.92-.92,1.36-1.4a18.19,18.19,0,0,0,1.2-1.84,5.34,5.34,0,0,1,1.47-1.49A3.85,3.85,0,0,1,25,13.86a5.42,5.42,0,0,1,4.79,2.65,6.43,6.43,0,0,0,1.43,1.64,8.49,8.49,0,0,1,1.68,1.42,3.46,3.46,0,0,1,.88,1.77C34.38,27.34,28.42,25.71,28,25.58Zm8.26-11.2c-.52,1.79-2,2.93-3.34,2.55s-2-2.13-1.51-3.92,2-2.94,3.33-2.55S36.8,12.59,36.3,14.38Z"/>
</svg>