<svg xmlns="http://www.w3.org/2000/svg" viewBox="0 0 50 50">


    <path
          d="M43.27,21.06a1.84,1.84,0,0,1-.08.42,1.3,1.3,0,0,1-.21.31l-.21.2-3.59,4.19a1.26,1.26,0,0,1-1.74.11,1.29,1.29,0,0,1-.41-1,1.46,1.46,0,0,1,.33-.76l1.49-1.71H26.63a1.58,1.58,0,1,1,0-3.16H38.75l-1.83-1.59a1.21,1.21,0,0,1-.11-1.72,1.12,1.12,0,0,1,.94-.39,1.14,1.14,0,0,1,.74.28l4.38,3.8A1.29,1.29,0,0,1,43.27,21.06Z"/>
    <path
          d="M33.3,27.33v12a3.86,3.86,0,0,1-3.84,3.87h-6v2.27a5.06,5.06,0,0,1-.37,2.68,3.38,3.38,0,0,1-.76.87,2.42,2.42,0,0,1-1,.54,2.24,2.24,0,0,1-.52,0,6.52,6.52,0,0,1-1.88-.82c-.9-.45-1.79-1.05-2.68-1.57l-5.36-3.16a18.9,18.9,0,0,1-2-1.26l-.3-.19a3.86,3.86,0,0,1-1.73-2.55l0-.17a2.61,2.61,0,0,0-.06-.27V4.21a4,4,0,0,1,.11-.93,2.64,2.64,0,0,1,.34-.83,1.61,1.61,0,0,1,.2-.37A3.7,3.7,0,0,1,8.68.87,1.88,1.88,0,0,1,9,.73a3.65,3.65,0,0,1,1.6-.37H29.46A3.85,3.85,0,0,1,33.3,4.21V16.08a.77.77,0,0,1-.76.77.78.78,0,0,1-.77-.77V4.21A2.32,2.32,0,0,0,29.46,1.9H13.63c.26.16.52.33.76.46,1.79,1.06,3.58,2.13,5.4,3.17,1.62,1,2.89,1.89,3.47,4a8.07,8.07,0,0,1,.24,2.46V41.7h6a2.32,2.32,0,0,0,2.31-2.33v-12a.78.78,0,0,1,.77-.76A.77.77,0,0,1,33.3,27.33Z"/>
    <path  d="M9.35,2.81A3.47,3.47,0,0,0,8.11,4,2.91,2.91,0,0,1,9.35,2.81Z"/>
    <path  d="M25.05,24.92A.23.23,0,0,1,25,25s0,0,0,0l0,0A.75.75,0,0,0,25.05,24.92Z"/>
</svg>