<svg id="Layer_1" data-name="Layer 1" xmlns="http://www.w3.org/2000/svg" viewBox="0 0 63 64"><title>icon (2) [Recovered]</title><circle cx="14.87" cy="26.61" r="3.84"/><circle cx="48.02" cy="26.61" r="3.84"/><path d="M34.15,34c0,1.11-1.16,1.46-2.59,1.46S29,35.06,29,34a2.8,2.8,0,0,1,2.59-2.57A2.8,2.8,0,0,1,34.15,34Z"/><path class="cls-1" d="M31.56,38.25a.78.78,0,0,1-.78-.78V33.39a.79.79,0,0,1,1.57,0v4.08A.78.78,0,0,1,31.56,38.25Z"/><path d="M22.31,37.22a16.79,16.79,0,0,0,18.51-.47c1.11-.8,0-2.66-1.09-1.86a14.64,14.64,0,0,1-16.34.48c-1.16-.75-2.24,1.11-1.08,1.85Z"/><path d="M39.19,42.79c-1.63.66-3.62-.55-4.53-2.77a5.61,5.61,0,0,1-.3-1,.48.48,0,0,1,.39-.49c.26-.08.5,0,.55.2a5.46,5.46,0,0,0,.27.87c.8,2,2.41,2.88,3.36,2.49S40.37,40,39.57,38a5.75,5.75,0,0,0-.42-.82c-.11-.17,0-.4.25-.53a.47.47,0,0,1,.62.08,5,5,0,0,1,.46.89C41.39,39.85,40.83,42.12,39.19,42.79Z"/><path d="M38.25,43.41a3.53,3.53,0,0,1-1.82-.55,5.57,5.57,0,0,1-2.17-2.68,6.18,6.18,0,0,1-.33-1,.9.9,0,0,1,.7-1,.92.92,0,0,1,.75.06.71.71,0,0,1,.34.46,5.08,5.08,0,0,0,.26.81c.72,1.77,2.13,2.52,2.78,2.25a1.51,1.51,0,0,0,.71-1.16,4.38,4.38,0,0,0-.3-2.4,5.34,5.34,0,0,0-.39-.75.71.71,0,0,1-.08-.57,1,1,0,0,1,.5-.58.89.89,0,0,1,1.19.24,5.8,5.8,0,0,1,.5,1c1,2.44.33,5-1.53,5.72h0A3,3,0,0,1,38.25,43.41ZM34.9,39a.26.26,0,0,0-.12,0c.07.22.16.52.28.81a4.73,4.73,0,0,0,1.82,2.26,2.48,2.48,0,0,0,.32.17,5,5,0,0,1-2-2.47A6.55,6.55,0,0,1,34.9,39Zm4.68-1.94a5.79,5.79,0,0,1,.39.79,5.14,5.14,0,0,1,.36,2.9,3,3,0,0,1-.08.32,4.49,4.49,0,0,0-.17-3.26,5.43,5.43,0,0,0-.4-.8s0,0-.08,0Z"/><path d="M51.2,2.11H11.68A10.12,10.12,0,0,0,1.59,12.2V51.72A10.12,10.12,0,0,0,11.68,61.81H51.2A10.12,10.12,0,0,0,61.29,51.72V12.2A10.12,10.12,0,0,0,51.2,2.11Zm5.48,48.31a6.8,6.8,0,0,1-6.77,6.78H13A6.8,6.8,0,0,1,6.2,50.42V13.49A6.8,6.8,0,0,1,13,6.72H49.91a6.79,6.79,0,0,1,6.77,6.77Z"/></svg>
