<svg xmlns="http://www.w3.org/2000/svg" viewBox="0 0 50 50">
    <path fill="#fff"
          d="M28.8,3.23v.06a1.24,1.24,0,0,1,0,.25l-.55-.16a.25.25,0,0,0,0-.09.91.91,0,0,0,0-.17C28.12,1.88,26.72.91,25,.91s-3.1,1-3.22,2.2a1,1,0,0,0,0,.18.25.25,0,0,0,0,.09l-.55.14a1,1,0,0,1,0-.23V3.23c0-1.6,1.73-2.88,3.79-2.88S28.76,1.63,28.8,3.23Z"/>
    <path fill="#fff"
          d="M20.57,46v.28a2.64,2.64,0,0,0,0,.28c.19,1.71,2.1,3,4.41,3s4.23-1.34,4.42-3a2.64,2.64,0,0,0,0-.28V46Zm4.43,3c-2,0-3.64-1.08-3.84-2.48h7.69C28.65,48,27,49.08,25,49.08Z"/>
    <path fill="#fff"
          d="M43.44,38.51V21.26a18.45,18.45,0,0,0-14.64-18,5.72,5.72,0,0,0-.57-.11A18.13,18.13,0,0,0,25,2.83a19.08,19.08,0,0,0-3.22.28c-.19,0-.38.07-.57.12a18.53,18.53,0,0,0-14.64,18V38.51A4.13,4.13,0,0,0,7.79,46.6H42.22a4.14,4.14,0,0,0,1.22-8.09ZM44.74,45a3.53,3.53,0,0,1-2.52,1H7.79a3.59,3.59,0,0,1-3.58-3.58A3.61,3.61,0,0,1,6.92,39l.21,0V21.26a17.87,17.87,0,1,1,35.73,0V38.38a4.62,4.62,0,0,0-.65-.06H29.69v.57H42.22a3.24,3.24,0,0,1,.87.11,3.57,3.57,0,0,1,1.65,6Z"/>
    <path fill="#fff"
          d="M46.36,42.46a4.15,4.15,0,0,1-4.14,4.14H29.42c-.19,1.71-2.1,3-4.42,3s-4.22-1.34-4.41-3H7.79a4.14,4.14,0,0,1-1.22-8.09V21.26a18.53,18.53,0,0,1,14.64-18c0-1.6,1.73-2.88,3.79-2.88s3.76,1.28,3.8,2.88a18.45,18.45,0,0,1,14.64,18V38.51A4.12,4.12,0,0,1,46.36,42.46Z"/>
    <path fill="#000"
          d="M28.78,3.53l-.55-.14V3.28C28.23,2,26.78.91,25,.91S21.77,2,21.77,3.28a.28.28,0,0,0,0,.1l-.55.15a.77.77,0,0,1,0-.25C21.2,1.66,22.91.35,25,.35s3.8,1.31,3.8,2.93A1.14,1.14,0,0,1,28.78,3.53Z"/>
    <path fill="#000"
          d="M25,49.65c-2.44,0-4.43-1.49-4.43-3.33V46h8.86v.28C29.43,48.16,27.45,49.65,25,49.65Zm-3.84-3C21.36,48,23,49.09,25,49.09s3.65-1.09,3.85-2.48Z"/>
    <path fill="#000"
          d="M42.22,46.61H7.78a4.14,4.14,0,0,1-2.92-7.07,4.21,4.21,0,0,1,1.7-1V21.27a18.44,18.44,0,1,1,36.87,0V38.51a4.13,4.13,0,0,1,2.92,4,4.17,4.17,0,0,1-4.14,4.14ZM7.13,38.73V39l-.21,0a3.63,3.63,0,0,0-1.66.94A3.57,3.57,0,0,0,7.78,46H42.22a3.58,3.58,0,0,0,0-7.15H29.69v-.57H42.22a3.49,3.49,0,0,1,.65.06V21.27a17.87,17.87,0,0,0-35.74,0Z"/>
</svg>
