<svg xmlns="http://www.w3.org/2000/svg" viewBox="0 0 50 32.08">
    <rect x="0.62" y="0.81" width="48.67" height="26.09" transform="translate(49.9 27.71) rotate(-180)"/>
    <polygon fill="#926a02" points="0.62 26.9 4.9 32.08 4.9 26.9 0.62 26.9"/>
    <path fill="#fff"
          d="M13.91,10.52a.93.93,0,0,1,.41.11.75.75,0,0,1,.33.27l3.41,5.24-.7,0,3.48-5.21a.82.82,0,0,1,.69-.38.88.88,0,0,1,.6.24.78.78,0,0,1,.27.62v8.1a.84.84,0,0,1-.24.61.86.86,0,0,1-.63.25.88.88,0,0,1-.64-.25.84.84,0,0,1-.24-.61V12.89l.54.12-2.85,4.36a1.18,1.18,0,0,1-.32.26.77.77,0,0,1-.76,0,1.13,1.13,0,0,1-.31-.26l-2.67-4.23.36-.74v7.08a.87.87,0,0,1-.23.61.75.75,0,0,1-.58.25.76.76,0,0,1-.58-.25.86.86,0,0,1-.22-.61v-8.1a.8.8,0,0,1,.26-.61A.89.89,0,0,1,13.91,10.52Z"/>
    <path fill="#fff"
          d="M33.51,15.44a5.5,5.5,0,0,1-.35,2,4.89,4.89,0,0,1-1,1.6,4.54,4.54,0,0,1-1.51,1.08,4.63,4.63,0,0,1-1.91.4,4.59,4.59,0,0,1-1.9-.4A4.64,4.64,0,0,1,25.34,19a5,5,0,0,1-1-1.6,5.52,5.52,0,0,1,0-3.92,5,5,0,0,1,1-1.61,4.64,4.64,0,0,1,1.51-1.08,4.58,4.58,0,0,1,1.9-.39,4.63,4.63,0,0,1,1.91.39,4.54,4.54,0,0,1,1.51,1.08,4.83,4.83,0,0,1,1,1.61A5.46,5.46,0,0,1,33.51,15.44Zm-1.82,0a3.64,3.64,0,0,0-.38-1.7,3.08,3.08,0,0,0-1-1.22,2.72,2.72,0,0,0-1.53-.44,2.66,2.66,0,0,0-1.52.44,3,3,0,0,0-1,1.21,3.77,3.77,0,0,0-.38,1.71,3.82,3.82,0,0,0,.38,1.7,3,3,0,0,0,1,1.21,2.6,2.6,0,0,0,1.52.45,2.65,2.65,0,0,0,1.53-.45,3,3,0,0,0,1-1.21A3.69,3.69,0,0,0,31.69,15.44ZM28.78,9.3a.6.6,0,0,1-.43-.14.44.44,0,0,1-.16-.36.41.41,0,0,1,0-.19.77.77,0,0,1,.15-.19l1.2-1.06a1.46,1.46,0,0,1,.33-.22.8.8,0,0,1,.36-.09.85.85,0,0,1,.49.18.58.58,0,0,1,.25.5.83.83,0,0,1-.13.42,1.07,1.07,0,0,1-.39.33l-1.4.74a.41.41,0,0,1-.17.07Zm2.14,3.49-.4-1.34a1.55,1.55,0,0,0,.77-.46.7.7,0,0,0,.12-.72.89.89,0,0,1,0-.53.61.61,0,0,1,.44-.38.55.55,0,0,1,.59.09.94.94,0,0,1,.28.42A2.37,2.37,0,0,1,32.82,11a2,2,0,0,1-.56,1A3.09,3.09,0,0,1,30.92,12.79Z"/>
    <path fill="#fff"
          d="M36.87,19.48a.82.82,0,0,1-.26.61.92.92,0,0,1-.62.25.86.86,0,0,1-.63-.25.84.84,0,0,1-.24-.61V11.39a.81.81,0,0,1,.25-.61.92.92,0,0,1,.65-.24.84.84,0,0,1,.59.24.82.82,0,0,1,.26.61Z"/>
</svg>