<svg xmlns="http://www.w3.org/2000/svg" viewBox="0 0 50 50">

    <path
          d="M41.58,4.06H4.36a3.93,3.93,0,0,0-1.09.15l-.63.33L1.71,5l-.05,0A4.17,4.17,0,0,0,.18,8.23V45.46a4.2,4.2,0,0,0,4.18,4.2H41.58a4.21,4.21,0,0,0,3.48-1.86l.2-.41.34-.75a4.1,4.1,0,0,0,.17-1.18V8.23A4.2,4.2,0,0,0,41.58,4.06ZM4.69,10.32H41.24a1.55,1.55,0,1,1,0,3.1H4.69a1.55,1.55,0,0,1,0-3.1Zm0,8H41.24a1.55,1.55,0,1,1,0,3.09H4.69a1.55,1.55,0,0,1,0-3.09Zm0,8.6H41.24a1.55,1.55,0,1,1,0,3.1H4.69a1.55,1.55,0,0,1,0-3.1Zm0,8.6H36.07a1.55,1.55,0,0,1,0,3.09H4.69a1.55,1.55,0,0,1,0-3.09Z"/>
    <path
          d="M49.51,4.42V41.64a4.23,4.23,0,0,1-.17,1.19L48.79,44a4.15,4.15,0,0,1-1.7,1.46,4.09,4.09,0,0,0,.17-1.17V7a4.2,4.2,0,0,0-4.18-4.17H5.85A4.18,4.18,0,0,0,4.74,3l-.69.36A4,4,0,0,1,5.4,1.24l0-.05L7,.4A3.81,3.81,0,0,1,8.1.25H45.32A4.19,4.19,0,0,1,49.51,4.42Z"/>
</svg>