<svg xmlns="http://www.w3.org/2000/svg" viewBox="0 0 50 50">

    <path
            d="M17.79,19.23c.32-1.38,1.18-2,2.24-1.62.14.05.34.1.4.22a1.29,1.29,0,0,0,1.82.61,1.15,1.15,0,0,1,1.14.41c.13.11.2.25.43.08,1.48-1.08,2-1.08,3.38-.06.92-1.13,1.66-1.23,2.76-.35a.76.76,0,0,0,.49.16c.13,0,.32,0,.39.05a2.43,2.43,0,0,0,2.26.49.67.67,0,0,1,.55.18c.45.6.79.31,1.26,0a2.15,2.15,0,0,1,3.17,1.17c.1.26-.07.71.49.71.31,0,.59.23,1,.13a1.5,1.5,0,0,1,1.34.22c.37.26.47.47.07.82a12.85,12.85,0,0,1-4.46,2.39A32.54,32.54,0,0,1,27,26.47a39.21,39.21,0,0,1-11.57-1.08,15.8,15.8,0,0,1-6.2-2.88c-.53-.43-.44-.72,0-1.11A2.08,2.08,0,0,1,11.4,21c.34.12.42.08.56-.25a1.56,1.56,0,0,1,1.91-.95,2,2,0,0,0,1.82-.43A1.72,1.72,0,0,1,17.79,19.23Z"/>
    <path
            d="M8.19,21.36a2.43,2.43,0,0,1,.11-2.81,8.8,8.8,0,0,1,4-2.81,28.1,28.1,0,0,1,7.84-1.9,42.78,42.78,0,0,1,8.69-.1A26.79,26.79,0,0,1,39,16.32a7.19,7.19,0,0,1,2.82,2.31,2.43,2.43,0,0,1,.2,2.48c-.12.26-.23.32-.49.11a2.23,2.23,0,0,0-2.05-.56.55.55,0,0,1-.73-.4,2.88,2.88,0,0,0-4.19-1.49.44.44,0,0,1-.53,0,2.13,2.13,0,0,0-1.74-.26c-.1,0-.26,0-.32,0-.58-.53-1.41-.48-2.05-.93a2.1,2.1,0,0,0-2.46.07.62.62,0,0,1-.71.06,2.8,2.8,0,0,0-2.69.14c-.1.05-.24.19-.28.16-.82-.46-1.87.05-2.62-.56a2.36,2.36,0,0,0-3.61.45c-.15.21-.25.36-.57.31a2.15,2.15,0,0,0-1.63.48,1.63,1.63,0,0,1-1.43.33,2.17,2.17,0,0,0-2.21.8.69.69,0,0,1-.73.28C10,20,9.2,20.34,8.19,21.36Z"/>
    <path
            d="M49.37,32.7a5.61,5.61,0,0,1-1.74,5.91c-2.78,2.29-8.81,4.85-21.94,5.19-.6,0-17.38,0-23.48-5.27A5.56,5.56,0,0,1,.63,32.78C1.72,29.08,4,21.56,4,21.56h.23C5.84,26,14.54,29.38,25,29.38S44.21,26,45.86,21.56h.23Z"/>
    <path
            d="M25,11.72c-11.34,0-20.54,3.82-20.54,8.51a4,4,0,0,0,.23,1.32C6.24,25.64,14.76,28.77,25,28.77s18.78-3.13,20.31-7.22a4,4,0,0,0,.23-1.32C45.56,15.54,36.37,11.72,25,11.72Zm17.86,8.47a3.2,3.2,0,0,1-.38,1.36c-1.73,3.26-8.9,5.72-17.48,5.72S9.25,24.81,7.52,21.55A3.18,3.18,0,0,1,7.13,20c0-4,8-7.24,17.89-7.24,9.18,0,16.75,2.81,17.74,6.41a.13.13,0,0,1,0,.09,3.06,3.06,0,0,1,.09.74S42.89,20.12,42.88,20.19Z"/>
    <path fill="#fff" d="M10.69,19v0s0,0,0,0A0,0,0,0,0,10.69,19Z"/>
    <path fill="#fff" d="M13.11,18.72a.06.06,0,0,0,0,0,0,0,0,0,0,0,0S13.11,18.7,13.11,18.72Z"/>
    <path d="M32.94,17.15s0,0,0,0v0Z"/>
    <path d="M28.5,16h0l0,0s0,0,.05,0Z"/>
    <path fill="#fff" d="M16.52,17.32s0,0,0,0l-.05,0A.1.1,0,0,1,16.52,17.32Z"/>
    <path fill="#fff" d="M11.87,18.62a.35.35,0,0,1,0,.08s0,0-.05-.05Z"/>
    <path fill="#fff" d="M13,18a.31.31,0,0,0-.08.11c-.07,0-.13-.08-.21-.11A.71.71,0,0,1,13,18Z"/>
    <path d="M10.69,19v0s0,0,0,0A0,0,0,0,0,10.69,19Z"/>
    <path d="M11.77,18.65s0,0,.05.05a.35.35,0,0,0,0-.08Z"/>
    <path d="M11.87,18.62a.35.35,0,0,1,0,.08s0,0-.05-.05Z"/>
    <path d="M13.11,18.72a.06.06,0,0,0,0,0,0,0,0,0,0,0,0S13.11,18.7,13.11,18.72Z"/>
    <path d="M13.07,18.67a0,0,0,0,1,0,0,.06.06,0,0,1,0,0S13.09,18.69,13.07,18.67Z"/>
    <path d="M13.11,18.72a.06.06,0,0,0,0,0,0,0,0,0,0,0,0S13.11,18.7,13.11,18.72Z"/>
    <path
            d="M13.07,18.67a0,0,0,0,1,0,0,.06.06,0,0,1,0,0S13.09,18.69,13.07,18.67ZM12.75,18c.08,0,.14.08.21.11A.31.31,0,0,1,13,18,.71.71,0,0,0,12.75,18Z"/>
    <path d="M13.11,18.72a.06.06,0,0,0,0,0,0,0,0,0,0,0,0S13.11,18.7,13.11,18.72Z"/>
    <path d="M13.07,18.67a0,0,0,0,1,0,0,.06.06,0,0,1,0,0S13.09,18.69,13.07,18.67Z"/>
    <path d="M16.52,17.32s0,0,0,0l-.05,0A.1.1,0,0,1,16.52,17.32Z"/>
    <path d="M16.45,17.3l.05,0s0,0,0,0A.1.1,0,0,0,16.45,17.3Z"/>
    <path d="M32.93,17.15v0s0,0,0,0Z"/>
    <path d="M28.5,16h0l0,0s0,0,.05,0Z"/>
    <path d="M28.53,16s0,0-.05,0l0,0h0Z"/>
    <path d="M32.94,17.15s0,0,0,0v0Z"/>
    <path fill="#fff"
          d="M32,35.43a2.17,2.17,0,0,1,.59,1.49A2.06,2.06,0,0,1,32,38.44a2.12,2.12,0,0,1-1.52.63,2.09,2.09,0,0,1-1.51-.63,2.05,2.05,0,0,1-.63-1.61H21.62a2.15,2.15,0,0,1-2.36,2.4,2.17,2.17,0,0,1-1.3-.62,2.14,2.14,0,0,1-.63-1.52A2.18,2.18,0,0,1,18,35.57l.05,0A2.19,2.19,0,0,1,17.42,34a2.16,2.16,0,0,1,3.68-1.53,2.24,2.24,0,0,1,.63,1.62h6.64A2.19,2.19,0,0,1,29,32.34a2.16,2.16,0,0,1,1.52-.63,2.15,2.15,0,0,1,2.16,2.16A2.18,2.18,0,0,1,32,35.39Z"/>
</svg>
