<svg xmlns="http://www.w3.org/2000/svg" viewBox="0 0 50 50">
    <path
          d="M34.47,47.64H8.92A8.4,8.4,0,0,1,.58,39.31V13.76A8.38,8.38,0,0,1,8.92,5.41H34.45a8.36,8.36,0,0,1,6.71,3.41,8.23,8.23,0,0,1,1.64,4.94V39.3A8.37,8.37,0,0,1,34.47,47.64ZM8.92,7.41a6.38,6.38,0,0,0-6.34,6.35V39.3a6.39,6.39,0,0,0,6.35,6.34H34.46A6.36,6.36,0,0,0,40.8,39.3V13.76A6.19,6.19,0,0,0,39.55,10h0a6.35,6.35,0,0,0-5.1-2.59Z"/>
    <rect  x="6.46" y="12.79" width="32.56" height="1.43" rx="0.47" ry="0.47"/>
    <rect  x="6.46" y="20.99" width="30.45" height="1.43" rx="0.47" ry="0.47"/>
    <rect  x="6.46" y="29.2" width="23.74" height="1.43" rx="0.47" ry="0.47"/>
    <path
          d="M36.35,24.84l7.56-9.43.14-.18,1.22-1.52,2.22-2.77-1.75-1.4-1-.78-.24-.18L43,10.48,40.9,13.07l-1,1.25-2,2.46-1.06,1.33-2,2.46-1,1.31-2,2.46-.68.86a1.47,1.47,0,0,0-.27.47,2.13,2.13,0,0,0-.13.93v.09l-.28,1.87-.08.6.22-.08,2.22-.84a1.91,1.91,0,0,0,1.27-.68l1.11-1.39Z"/>
    <path
          d="M49,9.22l-.57.72-.09-.11-2.2-1.75-.69-.55L46,6.81a2.54,2.54,0,0,1,.29-.28h0a2,2,0,0,1,2.36,0h0A2,2,0,0,1,49,9.22Z"/>
</svg>
