<svg xmlns="http://www.w3.org/2000/svg" viewBox="0 0 50 50">

    <path d="M27.58,1.46a17.71,17.71,0,0,0-1.94-.14Z"/>
    <rect x="5.44" y="45.83" width="39.12" height="2.33" rx="0.69" ry="0.69"/>
    <path d="M7.88,34.81a5.64,5.64,0,0,1,.06-1.42Z"/>
    <path d="M37,9.89,27.26,3.45A6,6,0,0,1,37,9.89Z"/>
    <path
            d="M36.38,11.18,20,36,10,29.37,26.32,4.55c.08-.13.18-.25.27-.37l10,6.61A4,4,0,0,1,36.38,11.18Z"/>
    <path
            d="M9.46,30.13l10.07,6.63-.63,1a5.79,5.79,0,0,1-2.16,2l-.55.27L7.61,44.07A.09.09,0,0,1,7.48,44l.4-9.18.06-1.42a5.83,5.83,0,0,1,.9-2.31Z"/>
    <path class="cls-2" d="M36.61,10.79a5.2,5.2,0,0,0,.41-.9"/>
</svg>