<svg xmlns="http://www.w3.org/2000/svg" viewBox="0 0 50 50">

    <path
          d="M39.17,7.07v-7H10.82V6.94l-4,7.12V49.81L35.18,50v-.16l8-4.57V13.39ZM11.6.85H38.4v6L12.57,6.66h-1ZM34.4,14.23v35L7.6,49.05V14.26l3.84-6.85L38,7.58Zm8,30.57-7.21,4.13V14.42l3.51-6.65,3.7,5.85Z"/>
    <path
          d="M13.62,31.83a2.26,2.26,0,1,0,3.76.94h8.83a2.26,2.26,0,0,0,3.81,2,2.27,2.27,0,0,0,0-3.2l-.24-.21a2.2,2.2,0,0,0,.34-.28,2.26,2.26,0,1,0-3.76-.94H17.53a2.26,2.26,0,1,0-3.81,1.15,1.64,1.64,0,0,0,.25.21A1.87,1.87,0,0,0,13.62,31.83Z"/>
</svg>