<svg xmlns="http://www.w3.org/2000/svg" viewBox="0 0 50 50">
    <path
          d="M45.32,25a2.72,2.72,0,0,0,.93-1.85L47.08,14l.83-9.09A4.51,4.51,0,0,0,42.68.41L33.81,2.55,25,4.69a2.75,2.75,0,0,0-1.7,1.19l-.4.41L3.32,28.9a5.18,5.18,0,0,0,.53,7.27L18.17,48.54A5.16,5.16,0,0,0,25.44,48L45,25.4A3.64,3.64,0,0,0,45.32,25ZM44,4.15a2.65,2.65,0,1,1-3.73.27A2.65,2.65,0,0,1,44,4.15ZM18,40.71a5,5,0,0,1-2.91-.61l-1,1.17a.55.55,0,0,1-.83-.72l.91-1a2.94,2.94,0,0,1-.41-.31c-.15-.13-.29-.25-.43-.39l-.9,1a.54.54,0,0,1-.81-.71l1-1.13a4.33,4.33,0,0,1-.47-.61,5.75,5.75,0,0,1-.85-2.11,1.39,1.39,0,0,1,0-.57.86.86,0,0,1,.2-.44.87.87,0,0,1,.69-.31,1.1,1.1,0,0,1,.79.29,1.19,1.19,0,0,1,.36.58,6.38,6.38,0,0,0,.57,1.54s0,.07.06.09L16.08,34c-.14-.22-.27-.42-.39-.63A4.29,4.29,0,0,1,15.16,32a2.81,2.81,0,0,1,.05-1.29,3.15,3.15,0,0,1,.67-1.15,2.83,2.83,0,0,1,1.7-1,4,4,0,0,1,2.07.24,5.12,5.12,0,0,1,.68.31l1.23-1.42a.51.51,0,0,1,.73,0,.52.52,0,0,1,.09.72l-1.12,1.29.47.38.37.33,1.11-1.28a.54.54,0,0,1,.82.71l-1.2,1.39a5.79,5.79,0,0,1,.42.59A5.49,5.49,0,0,1,24,33.54a1.09,1.09,0,0,1-.16,1,.88.88,0,0,1-.69.29,1,1,0,0,1-.78-.27.89.89,0,0,1-.28-.45,3.86,3.86,0,0,0-.33-.87l-.29-.53-2,2.35.41.59a4.9,4.9,0,0,1,.65,1.45,2.3,2.3,0,0,1,0,1.3,3.3,3.3,0,0,1-.74,1.29A2.76,2.76,0,0,1,18,40.71Zm0-4-1.6,1.85a2.24,2.24,0,0,0,.74.12,1,1,0,0,0,.77-.33,1.19,1.19,0,0,0,.3-.88A2.3,2.3,0,0,0,18.08,36.68Zm-1.31-1.83-2.13,2.47c.13.14.27.27.42.41a2.86,2.86,0,0,0,.41.3l2-2.33a9.19,9.19,0,0,0-.69-.84ZM20,31.12l-1.92,2.22c.17.22.36.46.57.71l.13.17,2.05-2.38a3.69,3.69,0,0,0-.35-.34C20.3,31.35,20.15,31.24,20,31.12Zm-2.37-.19a1.09,1.09,0,0,0-.29.84,1.51,1.51,0,0,0,.17.59L19,30.62a1.83,1.83,0,0,0-.68-.07A1.09,1.09,0,0,0,17.62,30.93Z"/>
</svg>