<svg xmlns="http://www.w3.org/2000/svg" viewBox="0 0 50 50">

    <path
            d="M46.17,15.7H3.83a2.72,2.72,0,0,1-.31,0V39.42a6.1,6.1,0,0,0,6.1,6.11H40.38a6.11,6.11,0,0,0,6.11-6.11V15.67C46.38,15.68,46.28,15.7,46.17,15.7ZM30.35,22.45H19.65a1.74,1.74,0,1,1,0-3.47h10.7a1.74,1.74,0,0,1,0,3.47Z"/>
    <path
            d="M46.18,16.24H3.83l-.37,0A3.24,3.24,0,0,1,.59,13V8A3.25,3.25,0,0,1,3.83,4.8H46.18A3.24,3.24,0,0,1,49.41,8v5a3.24,3.24,0,0,1-2.85,3.22ZM3.83,5.9A2.14,2.14,0,0,0,1.69,8v5a2.13,2.13,0,0,0,1.89,2.13l.25,0H46.18l.23,0A2.13,2.13,0,0,0,48.31,13V8A2.14,2.14,0,0,0,46.18,5.9Z"/>
</svg>