<svg xmlns="http://www.w3.org/2000/svg" viewBox="0 0 50 50">

    <path class="cls-1"
          d="M41.4,6.9a7.71,7.71,0,0,0-6.2-3.15H8.37A7.75,7.75,0,0,0,.66,11.46V38.29A7.75,7.75,0,0,0,8.37,46H35.2a7.74,7.74,0,0,0,7.71-7.71V24.7l-2.28,2.84v9.3a6.9,6.9,0,0,1-6.89,6.88H9.82A6.9,6.9,0,0,1,3,36.84V12.91A6.88,6.88,0,0,1,9.82,6H33.74a6.88,6.88,0,0,1,6.89,6.87v7.87l.57-.7,1.71-2.15V11.46A7.63,7.63,0,0,0,41.4,6.9Z"/>
    <rect class="cls-1" x="6.33" y="19.59" width="30.91" height="1.58" rx="0.47" ry="0.47"/>
    <rect class="cls-1" x="6.37" y="13.16" width="30.91" height="1.58" rx="0.47" ry="0.47"/>
    <path class="cls-1" d="M34.92,26.83l-1.2,1.5-.06.08H7a.5.5,0,0,1-.5-.5v-.58a.5.5,0,0,1,.5-.5Z"/>
    <rect class="cls-1" x="6.48" y="34.52" width="24.46" height="1.58" rx="0.47" ry="0.47"/>
    <path class="cls-1"
          d="M48.51,17.24,34.56,34.65a1.9,1.9,0,0,1-1.24.67L31,36.21h0l.34-2.37v-.12a1.94,1.94,0,0,1,.14-.92,1.72,1.72,0,0,1,.25-.46l14-17.4Z"/>
    <path class="cls-1"
          d="M49.31,16.26l-.5.62L45.92,14.6l.51-.63a1.63,1.63,0,0,1,.27-.26l0-.05a1.14,1.14,0,0,1,.31-.17,1.86,1.86,0,0,1,1.94.15l0,0a1.86,1.86,0,0,1,.66,1.25A1.76,1.76,0,0,1,49.31,16.26Z"/>
</svg>