<svg  xmlns="http://www.w3.org/2000/svg" viewBox="0 0 50 50">

    <circle  cx="25.09" cy="24.97" r="24.61"/>
    <rect  x="16.54" y="10.31" width="17.34" height="29.74" rx="2.71" ry="2.71"/>
    <path fill="#fff"
          d="M31.17,40.56H19.26A3.22,3.22,0,0,1,16,37.34V13a3.23,3.23,0,0,1,3.22-3.22H31.17A3.22,3.22,0,0,1,34.39,13V37.34A3.22,3.22,0,0,1,31.17,40.56ZM19.26,10.81A2.23,2.23,0,0,0,17,13V37.34a2.23,2.23,0,0,0,2.22,2.22H31.17a2.23,2.23,0,0,0,2.22-2.22V13a2.23,2.23,0,0,0-2.22-2.22Z"/>
    <rect fill="#fff" x="18.02" y="12.09" width="14.4" height="22.89" rx="1.1" ry="1.1"/>
    <circle fill="#fff" cx="25.22" cy="37.27" r="1.7"/>
</svg>