<svg xmlns="http://www.w3.org/2000/svg" viewBox="0 0 50 50">

    <path stroke-miterlimit="10"
          d="M25,18.37c-9.94,0-20.5-1.3-20.5-3.7,0-.82,1.1-1.51,3.37-2.11h0c.76-.18,12.39-2.81,34.15,0h0c2.28.6,3.39,1.29,3.39,2.12C45.51,17.07,35,18.37,25,18.37ZM8,13.16c-2.12.57-2.88,1.15-2.88,1.51,0,1.29,7.57,3.09,19.89,3.09s19.9-1.8,19.9-3.09c0-.36-.77-1-2.93-1.53-22.26-2.86-33.82,0-33.93,0Z"/>
    <path
            d="M22.16,38.74C2.21,38.74.59,34.26.47,33.32a.73.73,0,0,1,0-.22L3.09,17.19a.83.83,0,0,1,.54-.66.85.85,0,0,1,.84.16C7.76,19.56,21,19.91,25,20H25c14.42.54,19.16-2.18,20.53-3.38a.81.81,0,0,1,.82-.15.86.86,0,0,1,.55.66L49.52,33a.81.81,0,0,1-.07.51c-2,4.2-16.15,5.07-24.44,5.21ZM3.92,17.09H3.84a.24.24,0,0,0-.15.18L1.08,33.19c0,.28.92,5.38,23.92,4.91,13.65-.23,22.59-2.05,23.9-4.86a.23.23,0,0,0,0-.16l-2.61-15.9a.24.24,0,0,0-.16-.19.22.22,0,0,0-.21,0c-1.77,1.55-6.85,4.06-20.94,3.52h-.06c-5.16-.05-17.52-.48-20.87-3.4A.21.21,0,0,0,3.92,17.09Z"/>
    <path
            d="M27.91,31.12a2.61,2.61,0,1,1-5-1.12c.21-.54.57-1,.78-1.52l.65-1.68.94-2.42.91,2.34A15.62,15.62,0,0,0,27.5,30,2.17,2.17,0,0,1,27.91,31.12Z"/>
</svg>