<svg  xmlns="http://www.w3.org/2000/svg" viewBox="0 0 50 50">

    <path
          d="M33.66,27.36a19,19,0,0,1-8.37-1.9L20.6,26.75a.94.94,0,0,1-.91-.23.89.89,0,0,1-.23-.87l1-3.76a11.83,11.83,0,0,1-3.18-8C17.32,6.51,24.65.48,33.66.48S50,6.51,50,13.92,42.67,27.36,33.66,27.36ZM25.4,24.31l.19.09a17.81,17.81,0,0,0,8.07,1.88c8.42,0,15.26-5.54,15.26-12.36S42.08,1.55,33.66,1.55,18.39,7.1,18.39,13.92a10.83,10.83,0,0,0,3.1,7.46l.21.22-1.12,4Z"/>
    <path
          d="M32.82,31.45c-1,1.81-2.14,4-2.09,6,.07,4.12.9,8.21,1.44,12.32H12.92c-.31-1.44-.63-2.86-.92-4.32-.24-1.2-.82-1.75-1.92-1.67s-2.52,0-3.78,0c-2.84,0-3.94-1.9-3.14-5.1a7.83,7.83,0,0,0,0-2.46c-.09-.8-.28-1.59-.52-2.83a8.84,8.84,0,0,1,.15-2.17c.41-1.35.59-2.21-1-2.62s-2-1.57-1-3.31A24.43,24.43,0,0,1,3,22.54a3.58,3.58,0,0,0,.74-1.17,17.63,17.63,0,0,0,1.25-5.26A12.75,12.75,0,0,1,9.48,6.7,14.44,14.44,0,0,1,21.36,3.13,13.9,13.9,0,0,0,15.78,14a13.45,13.45,0,0,0,3.56,9l-1.17,3.62a1.15,1.15,0,0,0,1.47,1.45L24,26.61a19.48,19.48,0,0,0,9.11,2.22h1A25,25,0,0,1,32.82,31.45Z"/>
    <path
          d="M30.91,15.33a1.55,1.55,0,0,1,.44-1.14,1.52,1.52,0,0,1,1.12-.45,5.35,5.35,0,0,0,1.93-.33,2.93,2.93,0,0,0,1.37-1.05,3.39,3.39,0,0,0,.5-1.93,2.89,2.89,0,0,0-.42-1.56A3,3,0,0,0,34.67,7.8a3.67,3.67,0,0,0-3.05-.13,4.18,4.18,0,0,0-1.16.7,2.53,2.53,0,0,1-1,.53,1.3,1.3,0,0,1-1.18-.27,1.52,1.52,0,0,1-.68-1.12,1.49,1.49,0,0,1,.49-1.2,6.76,6.76,0,0,1,2.21-1.5A6.94,6.94,0,0,1,33,4.28a6.46,6.46,0,0,1,3.25.82,6.39,6.39,0,0,1,2.3,2.2,5.82,5.82,0,0,1,.86,3.13,6.3,6.3,0,0,1-.39,2.3,4.91,4.91,0,0,1-1.11,1.72,5.54,5.54,0,0,1-1.66,1.15,8.1,8.1,0,0,1-2.08.61l-.09.05a.12.12,0,0,0,0,.08v1a1.55,1.55,0,0,1-.44,1.13,1.5,1.5,0,0,1-1.12.45,1.52,1.52,0,0,1-1.12-.45,1.55,1.55,0,0,1-.44-1.13Zm1.43,8.23a1.62,1.62,0,0,1-1.16-.4,1.57,1.57,0,0,1-.4-1.16v-.45A1.4,1.4,0,0,1,32.34,20h.34a1.4,1.4,0,0,1,1.56,1.56V22a1.57,1.57,0,0,1-.4,1.16,1.62,1.62,0,0,1-1.16.4Z"/>
</svg>