<svg xmlns="http://www.w3.org/2000/svg" viewBox="0 0 50 50">

    <path
          d="M29.15,1.42A19.46,19.46,0,0,0,14.72,32.17l0,0L1.12,43.43A3,3,0,0,0,.06,45.92a2.87,2.87,0,0,0,.66,1.64,2.93,2.93,0,0,0,4.13.4L18.42,36.74a2.87,2.87,0,0,0,.39-.39A19.45,19.45,0,1,0,29.15,1.42Zm2.56,36.17a16.76,16.76,0,0,1-12.48-4.31,18.06,18.06,0,0,1-1.43-1.47h0a16.82,16.82,0,1,1,13.91,5.78Z"/>
    <path
          d="M42.46,11h-.52a2.82,2.82,0,0,1-1.59-.5h0a2.5,2.5,0,0,0-1.4-.44h-.34a2.31,2.31,0,0,0-1.88,1l-2.06,2.83a3.51,3.51,0,0,1-1.32,1.09h0a3.9,3.9,0,0,1-1.69.37H24a4.94,4.94,0,0,0-2.33.92l-1,.7a11.59,11.59,0,0,0-1.45,1.26L16,21.57l.25.07a.94.94,0,0,0,.84-.2L19.87,19a.52.52,0,0,1,.86.42l0,.76a2.16,2.16,0,0,0,.24,1.12h0a2.11,2.11,0,0,1,.23,1h0a4.57,4.57,0,0,1-.71,2.44l-1.05,1.66a.53.53,0,0,0-.08.32l.27,3.93V31a.52.52,0,0,0,.52.53h1.21a.53.53,0,0,0,.52-.62h0a.5.5,0,0,0-.3-.36l-.3-.1A.53.53,0,0,1,20.9,30l-.1-2.68a.58.58,0,0,1,.13-.37l2.44-2.75a3,3,0,0,0,.69-1.4l.29-1.42a1.89,1.89,0,0,1,.81-1.21h0a2,2,0,0,1,1.17-.34h.84a2.9,2.9,0,0,1,1.41.39l2.2,1.27a5.28,5.28,0,0,0,2,.67h0a.51.51,0,0,1,.45.38l.59,2.19a1.35,1.35,0,0,1,0,.29l.1,4.2a3.76,3.76,0,0,0,.42,1.64h0a1.28,1.28,0,0,0,1.11.68h.64a.47.47,0,0,0,.46-.47h0a.44.44,0,0,0-.19-.36l-.81-.61a1,1,0,0,1-.39-.78l-.09-4.74a.51.51,0,0,1,0-.17l.64-2a.59.59,0,0,1,.06-.14L36.76,21a4.84,4.84,0,0,0,.82-2.25l.08-.76A1.82,1.82,0,0,1,38,17.1h0a4.57,4.57,0,0,0,.73-1.78l.06-.27a1.48,1.48,0,0,1,1.33-1.21l.94-.08a1.8,1.8,0,0,0,.39-.08l.5-.17a1.61,1.61,0,0,0,.74-.49h0a1.69,1.69,0,0,0,.42-1.16A1.82,1.82,0,0,0,43,11.4.61.61,0,0,0,42.46,11Z"/>
</svg>