<svg xmlns="http://www.w3.org/2000/svg" viewBox="0 0 50 50">

    <path
            d="M45.07,15.86,43.7,17.64l-2.4,3.14a17.7,17.7,0,0,1,.51,4.27,18.1,18.1,0,1,1-4.47-11.89L40.52,9a23.15,23.15,0,1,0,4.55,6.86Z"/>
    <path
            d="M49.81,7.24a3,3,0,0,1-.63,1.85L49,9.3l-1,1.32-1.75,2.3-2.31,3L41.3,19.4l-2.78,3.65L35.8,26.61l-2.45,3.21-2,2.58-1.3,1.7c-.18.24-.37.45-.57.68a3.31,3.31,0,0,1-.62.56,3,3,0,0,1-3.12.11,7.89,7.89,0,0,1-1.82-1.69l-2.69-2.89L18,27.36l-2.76-3-1.05-1.13a3.14,3.14,0,0,1,.18-4.56A3,3,0,0,1,16.27,18a3.09,3.09,0,0,1,2.24,1l8.16,8.76a.41.41,0,0,0,.61,0L44.34,5.38a3.05,3.05,0,0,1,5.47,1.86Z"/>
</svg>