<svg id="Layer_1" data-name="Layer 1" xmlns="http://www.w3.org/2000/svg" viewBox="0 0 63 64"><defs><style>.cls-1{fill:#000;}</style></defs><title>seen</title><path class="cls-1" d="M13.12,50.35,1.54,38.77a3,3,0,0,1,0-4.28h0a3,3,0,0,1,4.28,0l8.69,8.68a.64.64,0,0,0,1-.05l23.6-29.36a3,3,0,0,1,4.25-.47h0a3,3,0,0,1,.46,4.25L17.62,50.1A3,3,0,0,1,13.12,50.35Z"/><path class="cls-1" d="M31.31,51l-4.65-4.65a2.24,2.24,0,0,1-.16-3l1-1.22a2.25,2.25,0,0,1,3.34-.19l1.38,1.38a.5.5,0,0,0,.74,0l24.19-30.1a2.25,2.25,0,0,1,3.16-.35l1.21,1a2.25,2.25,0,0,1,.35,3.16L34.65,50.78A2.24,2.24,0,0,1,31.31,51Z"/></svg>
