<svg xmlns="http://www.w3.org/2000/svg" viewBox="0 0 50 50">

    <ellipse cx="27.96" cy="15.69" rx="2.37" ry="3.17" transform="translate(-2.9 6.99) rotate(-13.55)"/>
    <ellipse cx="34.14" cy="15.56" rx="3.08" ry="2.3" transform="translate(15.78 48.28) rotate(-85.21)"/>
    <ellipse cx="23.52" cy="20.54" rx="2.26" ry="3.03" transform="translate(-5.09 8.04) rotate(-17.52)"/>
    <ellipse cx="38.95" cy="19.76" rx="3.03" ry="2.26" transform="translate(9.35 51.87) rotate(-74.23)"/>
    <path
          d="M31,19.91a3.42,3.42,0,0,0-1.68.66A4.68,4.68,0,0,0,28,21.9a14.25,14.25,0,0,1-1.07,1.66c-.39.43-.8.85-1.22,1.25a4.68,4.68,0,0,0-1.25,1.82,3.73,3.73,0,0,0,.93,3.82,4,4,0,0,0,1.44.61c1.44.34,2.63-.38,3.91-.89a3.63,3.63,0,0,1,3,.26c.34.13,5.71,1.6,5.16-3.8A3,3,0,0,0,38.08,25a7.89,7.89,0,0,0-1.5-1.27,5.79,5.79,0,0,1-1.3-1.49A4.86,4.86,0,0,0,31,19.91Z"/>
    <path
          d="M31.23,38.42a16.46,16.46,0,0,1-12-5.12,15.56,15.56,0,0,1-1.31-1.54,16.6,16.6,0,1,1,13.3,6.66Zm-12.86-7,0,0a17.3,17.3,0,0,0,1.26,1.49,16,16,0,1,0-1.28-1.51Z"/>
    <path
          d="M31.3,2.88A18.87,18.87,0,0,0,15.23,31.66l0,0-13.9,10a2.84,2.84,0,1,0,3.29,4.64l13.91-9.94a2.66,2.66,0,0,0,.4-.34A18.88,18.88,0,1,0,31.3,2.88Zm0,35.19a16.29,16.29,0,0,1-11.79-5,16.74,16.74,0,0,1-1.28-1.51h0A16.32,16.32,0,1,1,31.3,38.07Z"/>
</svg>