<svg xmlns="http://www.w3.org/2000/svg" viewBox="0 0 50 50">
    <path
          d="M42.34,21.54a1.87,1.87,0,0,1-1-1.43,1.9,1.9,0,0,1,1.26-2,1.85,1.85,0,0,0,1.28-2,1.87,1.87,0,0,0-1.75-1.67,1.92,1.92,0,0,1-1.75-1.69,1.88,1.88,0,0,1,.6-1.58,1.9,1.9,0,0,0-1.45-3.28,4.81,4.81,0,0,0-.48.12,1.9,1.9,0,0,1-2.52-1.57,2,2,0,0,1,.14-.94,1.9,1.9,0,0,0-1.95-2.65,1.85,1.85,0,0,0-1.1.54,1.88,1.88,0,0,1-3.17-1.14,1.15,1.15,0,0,1,0-.2A1.89,1.89,0,0,0,28.32.18,1.86,1.86,0,0,0,26.8,1.36a1.83,1.83,0,0,1-1.52,1.16,1.88,1.88,0,0,1-1.93-1.08,1.89,1.89,0,0,0-3.6.84,1.9,1.9,0,0,1-1.7,2,1.78,1.78,0,0,1-1.43-.47,1.9,1.9,0,0,0-3.13,1.61,1.7,1.7,0,0,0,.19.65,1.91,1.91,0,0,1-1.49,2.7,2,2,0,0,1-.76-.06,1.89,1.89,0,0,0-2.46,2,1.84,1.84,0,0,0,.68,1.2,1.94,1.94,0,0,1,.66,1.23,1.9,1.9,0,0,1-1.65,2.1,1.89,1.89,0,0,0-.31,3.7,1.88,1.88,0,0,1,1.36,1.61,1.86,1.86,0,0,1-.91,1.82A1.89,1.89,0,0,0,10,25.85h0a1.88,1.88,0,0,1,2.14,1.67,1.84,1.84,0,0,1-.32,1.29,1.89,1.89,0,0,0,1.72,3,2,2,0,0,0,.81-.3,1.91,1.91,0,0,1,2.89,1.39c0,.09,0,.16,0,.24a1.53,1.53,0,0,1,0,.36,1.88,1.88,0,0,0,2.08,2.24,1.81,1.81,0,0,0,1.33-.83A1.94,1.94,0,0,1,22,34.06a1.9,1.9,0,0,1,2.07,1.46A1.85,1.85,0,0,0,26.12,37a1.84,1.84,0,0,0,1.63-1.54,1.9,1.9,0,0,1,1.67-1.56,1.86,1.86,0,0,1,1.69.75,1.9,1.9,0,0,0,3.41-1.32c0-.06,0-.12,0-.2a.25.25,0,0,0,0-.08,1.88,1.88,0,0,1,1.63-2.32,1.75,1.75,0,0,1,1.11.23A1.9,1.9,0,0,0,40,29.09a1.76,1.76,0,0,0-.41-1,1.89,1.89,0,0,1,1.67-3A1.88,1.88,0,0,0,43.34,23,1.79,1.79,0,0,0,42.34,21.54Zm-4,2.08A13.72,13.72,0,1,1,30.81,5.75,13.73,13.73,0,0,1,38.35,23.62Z"/>
    <path
          d="M36,34.51V50L25.79,44.19,15.25,50V34.51h1.26a1.56,1.56,0,0,1,0,.35,2,2,0,0,0,2.27,2.24,2,2,0,0,0,1.45-.83,2.13,2.13,0,0,1,3.71.64,2,2,0,0,0,2.26,1.46,2,2,0,0,0,1.78-1.54,2,2,0,0,1,1.81-1.56A2.13,2.13,0,0,1,31.6,36c1.3,1.57,3.93.52,3.71-1.31a.65.65,0,0,0,0-.2Z"/>
    <polygon   points="21.67 19.38 21.63 19.33 21.63 19.19 21.67 19.38"/>
    <path
          d="M25.44,6.42A12.16,12.16,0,1,0,37.6,18.58,12.16,12.16,0,0,0,25.44,6.42ZM19.86,19.55a1.66,1.66,0,0,1-.2.84,1.42,1.42,0,0,1-.56.58,1.6,1.6,0,0,1-.83.2,1.62,1.62,0,0,1-.83-.2,1.56,1.56,0,0,1-.56-.58,1.66,1.66,0,0,1-.2-.84V17.47a.35.35,0,0,1,.1-.25.37.37,0,0,1,.26-.09.36.36,0,0,1,.24.09.32.32,0,0,1,.11.25v2.08a.94.94,0,0,0,.12.49.81.81,0,0,0,.33.33,1,1,0,0,0,.43.12,1.09,1.09,0,0,0,.47-.12.81.81,0,0,0,.33-.33.79.79,0,0,0,.14-.49V17.47a.44.44,0,0,1,.08-.25.34.34,0,0,1,.24-.09.32.32,0,0,1,.24.09.38.38,0,0,1,.09.25Zm3.7-2a.93.93,0,0,1,0,.1l-1.2,1.72v1.4a.33.33,0,0,1-.1.24.34.34,0,0,1-.58-.24V19.33l-1.19-1.59a.56.56,0,0,1-.08-.15.3.3,0,0,1,0-.13.33.33,0,0,1,.11-.25.47.47,0,0,1,.25-.1.34.34,0,0,1,.28.16l1,1.39.94-1.38a.36.36,0,0,1,.28-.17.35.35,0,0,1,.24.1.33.33,0,0,1,.11.26A.45.45,0,0,1,23.56,17.58Zm5,.12a.33.33,0,0,1-.25.09h-.89v3a.34.34,0,0,1-.11.24.35.35,0,0,1-.27.11.33.33,0,0,1-.27-.11.3.3,0,0,1-.1-.24v-3h-.91a.31.31,0,0,1-.24-.1.29.29,0,0,1-.11-.24.28.28,0,0,1,.11-.23.34.34,0,0,1,.24-.09h2.55a.33.33,0,0,1,.25.09.32.32,0,0,1,0,.48ZM30,20.8a.31.31,0,0,1-.12.24.3.3,0,0,1-.25.11.31.31,0,0,1-.26-.11.32.32,0,0,1-.09-.24V17.48a.32.32,0,0,1,.1-.25.37.37,0,0,1,.51,0,.36.36,0,0,1,.11.25Zm.52-4.36a.42.42,0,0,1-.16.13l-.57.3-.07,0h-.06a.24.24,0,0,1-.18-.06.18.18,0,0,1-.06-.15.1.1,0,0,1,0-.07.35.35,0,0,1,.05-.08l.5-.44.13-.09.15,0a.35.35,0,0,1,.2.07.25.25,0,0,1,.11.21A.44.44,0,0,1,30.53,16.44ZM34.12,21a.31.31,0,0,1-.25.11l-.15,0A.2.2,0,0,1,33.6,21l-2.11-2.66v2.44a.3.3,0,0,1-.08.23.31.31,0,0,1-.24.1.27.27,0,0,1-.22-.1.3.3,0,0,1-.09-.23V17.48a.36.36,0,0,1,.1-.25.38.38,0,0,1,.26-.1l.17,0a.27.27,0,0,1,.12.09l2.09,2.67V17.45a.36.36,0,0,1,.08-.23.33.33,0,0,1,.23-.09.27.27,0,0,1,.22.09.28.28,0,0,1,.09.23V20.8A.3.3,0,0,1,34.12,21Z"/>
    <path  d="M21.63,19.19v.14l0,.05Z"/>
</svg>