<svg xmlns="http://www.w3.org/2000/svg" viewBox="0 0 50 31.89">

    <rect x="0.67" y="0.7" width="48.67" height="26.09" transform="translate(50 27.49) rotate(-180)"/>
    <polygon fill="#926a02" points="0.67 26.79 4.95 31.97 4.95 26.79 0.67 26.79"/>
    <path fill="#fff"
          d="M10,8.11a.78.78,0,0,1,.59.25.86.86,0,0,1,.22.61V14a4.15,4.15,0,0,1-.5,2.05A3.52,3.52,0,0,1,9,17.49a3.91,3.91,0,0,1-2,.51,3.94,3.94,0,0,1-2-.51,3.55,3.55,0,0,1-1.37-1.4A4.15,4.15,0,0,1,3.05,14V9a.81.81,0,0,1,.25-.61A.91.91,0,0,1,4,8.11a.87.87,0,0,1,.58.25A.82.82,0,0,1,4.79,9V14a2.36,2.36,0,0,0,.3,1.21,2.14,2.14,0,0,0,.79.79,2.24,2.24,0,0,0,1.06.28A2.38,2.38,0,0,0,8.06,16a2.18,2.18,0,0,0,1.16-2V9a.9.9,0,0,1,.21-.61A.75.75,0,0,1,10,8.11Z"/>
    <path fill="#fff"
          d="M19,8.09a.86.86,0,0,1,.59.24.81.81,0,0,1,.25.62,1.15,1.15,0,0,1,0,.26.68.68,0,0,1-.12.26L16.53,14l.25-1v4a.82.82,0,0,1-.24.61.75.75,0,0,1-.57.25.78.78,0,0,1-.59-.25.79.79,0,0,1-.25-.61v-3.9l.11.45-3-4a1.41,1.41,0,0,1-.2-.35,1.24,1.24,0,0,1,0-.31.78.78,0,0,1,.29-.62,1,1,0,0,1,.6-.23.85.85,0,0,1,.69.39l2.69,3.71-.39-.06,2.47-3.62A.85.85,0,0,1,19,8.09Z"/>
    <path fill="#fff"
          d="M25.27,9.74a.87.87,0,0,1-.61-.23.81.81,0,0,1,0-1.17.9.9,0,0,1,.61-.21h6.21a.85.85,0,0,1,.61.22.75.75,0,0,1,.25.59.72.72,0,0,1-.25.58.85.85,0,0,1-.61.22Zm3.09,8.19a.86.86,0,0,1-.64-.25.79.79,0,0,1-.25-.61V9h1.82v8.12a.8.8,0,0,1-.26.61A.93.93,0,0,1,28.36,17.93Z"/>
    <path fill="#fff"
          d="M35.56,17.07a.78.78,0,0,1-.27.61.85.85,0,0,1-.61.25.79.79,0,0,1-.63-.25.82.82,0,0,1-.24-.61V9a.82.82,0,0,1,.25-.61.89.89,0,0,1,.64-.24.85.85,0,0,1,.6.24.83.83,0,0,1,.26.61ZM34.73,7.6a.65.65,0,0,1-.43-.14.51.51,0,0,1-.16-.37.45.45,0,0,1,0-.19,1.12,1.12,0,0,1,.15-.19l1.2-1.06a3.15,3.15,0,0,1,.33-.22.8.8,0,0,1,.36-.09.85.85,0,0,1,.49.18A.6.6,0,0,1,37,6a.71.71,0,0,1-.13.41.91.91,0,0,1-.39.33l-1.4.74a.37.37,0,0,1-.16.07Z"/>
    <path fill="#fff"
          d="M45.09,8.13a.71.71,0,0,1,.55.22.79.79,0,0,1,.21.56v8.16a.85.85,0,0,1-.86.86,1,1,0,0,1-.37-.07.74.74,0,0,1-.29-.17l-5.5-7,.37-.22v6.66a.79.79,0,0,1-.22.56.75.75,0,0,1-.57.23.71.71,0,0,1-.54-.23.78.78,0,0,1-.21-.56V9a.82.82,0,0,1,.85-.85,1,1,0,0,1,.41.08.57.57,0,0,1,.31.23l5.33,6.8-.24.17V8.91a.79.79,0,0,1,.21-.56A.73.73,0,0,1,45.09,8.13Z"/>
</svg>