<svg xmlns="http://www.w3.org/2000/svg" viewBox="0 0 50 50">

    <path d="M40.86,0H4.41V50H45.54V4.17ZM44.48,49h-39V1.08H38V7.86h6.47Z"/>
    <rect x="10.64" y="6.86" width="26.98" height="2" rx="0.69" ry="0.69"/>
    <rect x="10.64" y="11.79" width="26.98" height="2" rx="0.69" ry="0.69"/>
    <rect x="10.64" y="16.14" width="26.98" height="2" rx="0.69" ry="0.69"/>
    <rect x="10.64" y="21.07" width="26.98" height="2" rx="0.69" ry="0.69"/>
    <path
            d="M16.55,32.86a.49.49,0,0,1-.18.42.64.64,0,0,1-.45.16H14.3v5.41a.58.58,0,0,1-.19.45.65.65,0,0,1-.49.18.64.64,0,0,1-.48-.18.61.61,0,0,1-.18-.45V33.44H11.34a.64.64,0,0,1-.45-.16.55.55,0,0,1-.18-.43.54.54,0,0,1,.18-.43.64.64,0,0,1,.45-.16h4.58a.64.64,0,0,1,.45.16A.55.55,0,0,1,16.55,32.86Z"/>
    <path
            d="M18.27,32.26h3.46a.6.6,0,0,1,.45.17.57.57,0,0,1,.18.44.51.51,0,0,1-.18.41.64.64,0,0,1-.45.16H18.84l.09-.17v2l-.08-.08h2.41a.64.64,0,0,1,.45.17.57.57,0,0,1,.18.44.54.54,0,0,1-.18.42.64.64,0,0,1-.45.16H18.88l.05-.08v2.08l-.08-.09h2.88a.61.61,0,0,1,.45.18.58.58,0,0,1,.18.42.54.54,0,0,1-.18.42.64.64,0,0,1-.45.17H18.27a.61.61,0,0,1-.45-.18.64.64,0,0,1-.18-.45v-6a.62.62,0,0,1,.63-.63Z"/>
    <path d="M24.68,36.85h.16v-.23Z"/>
    <path
            d="M29.21,38.47a.44.44,0,0,1-.18-.2,1.39,1.39,0,0,1-.06-.33,4.57,4.57,0,0,0,0-.46,1.53,1.53,0,0,0-.13-.52,1.86,1.86,0,0,0-.3-.45,1.45,1.45,0,0,0-.29-.26,1.65,1.65,0,0,0,.42-.34,2.23,2.23,0,0,0,.42-.67,1.82,1.82,0,0,0,.16-.76,2.25,2.25,0,0,0-.28-1.15,2.22,2.22,0,0,0-.76-.79,2,2,0,0,0-1-.28h-3a.57.57,0,0,0-.45.18.61.61,0,0,0-.18.45v6a.55.55,0,0,0,.22.45.77.77,0,0,0,.52.18.49.49,0,0,0,.41-.18.73.73,0,0,0,.14-.45v-2h-.16l.16-.23v.23h1.92a1.73,1.73,0,0,1,.42,0,1,1,0,0,1,.29.17.93.93,0,0,1,.18.26.92.92,0,0,1,.06.33,2.67,2.67,0,0,0,.11.87,1.42,1.42,0,0,0,.28.55,1.62,1.62,0,0,0,.35.31,1.07,1.07,0,0,0,.3.09,1,1,0,0,0,.35,0,.51.51,0,0,0,.29-.17.52.52,0,0,0,.11-.45A.63.63,0,0,0,29.21,38.47Zm-1.45-3.31a1.66,1.66,0,0,1-.3.46.55.55,0,0,1-.37.17H24.84V36l-.14-.25h.14V33.44h-.13l.13-.33v.33h2.25a.68.68,0,0,1,.53.31,1.14,1.14,0,0,1,.24.76A2,2,0,0,1,27.76,35.16Z"/>
    <path
            d="M37.56,32.88v6a.62.62,0,0,1-.19.45.56.56,0,0,1-.46.18.59.59,0,0,1-.47-.18.61.61,0,0,1-.18-.45V34.7l-1.71,2.6a.82.82,0,0,1-.22.19.45.45,0,0,1-.29.07.43.43,0,0,1-.28-.07,1.06,1.06,0,0,1-.23-.19l-1.71-2.7v4.25a.64.64,0,0,1-.16.45.51.51,0,0,1-.43.18.55.55,0,0,1-.43-.18.69.69,0,0,1-.16-.45v-6a.63.63,0,0,1,.65-.63.73.73,0,0,1,.31.07.53.53,0,0,1,.23.21L34.09,36l2.31-3.47a.57.57,0,0,1,.51-.28.65.65,0,0,1,.65.63Z"/>
</svg>