<svg xmlns="http://www.w3.org/2000/svg" viewBox="0 0 50 50">

    <path
          d="M45.63,2.51H4.37A4.39,4.39,0,0,0,0,6.89V42.74a4.39,4.39,0,0,0,4.37,4.38h1.2V32c0-2.79,3-5.06,6.65-5.06h2.07a11.49,11.49,0,0,0,5.87,6.29A11.34,11.34,0,0,0,25,34.36,11.5,11.5,0,0,0,35.72,27H37.8a8.78,8.78,0,0,1,2.55.39,5.09,5.09,0,0,1,4.08,5.31V47.12h1.2A4.39,4.39,0,0,0,50,42.74V6.89A4.39,4.39,0,0,0,45.63,2.51Zm-9.4,17.83s0,.08,0,.12h0a11.46,11.46,0,0,1-11.21,9,11.33,11.33,0,0,1-4.84-1.08,11.49,11.49,0,0,1-6.36-7.94h0s0-.08,0-.12A11.75,11.75,0,0,1,13.55,18a11.46,11.46,0,1,1,22.91,0A11,11,0,0,1,36.23,20.34Z"/>
</svg>