<svg xmlns="http://www.w3.org/2000/svg" viewBox="0 0 50 50">

    <path
          d="M25,49.58A24.64,24.64,0,0,1,6.29,40.87,24.53,24.53,0,0,1,25,.52c.28,0,.56,0,.83,0a17.82,17.82,0,0,1,2,.15A24.48,24.48,0,0,1,49.58,25.05a24.9,24.9,0,0,1-.85,6.43A24.44,24.44,0,0,1,42.79,42,24.25,24.25,0,0,1,25,49.58Zm0-48h0a23.52,23.52,0,0,0-18,38.68,22.81,22.81,0,0,0,3.47,3.34A23.54,23.54,0,0,0,47.75,31.21a23.52,23.52,0,0,0-20-29.52,18.48,18.48,0,0,0-1.91-.14C25.56,1.53,25.32,1.53,25.08,1.53Z"/>
    <path
          d="M32.73,22.83a1.71,1.71,0,0,1,0,2.41l-5.28,5.18-4.06,4a1.47,1.47,0,0,1-2.46-1.21V14.88a1.46,1.46,0,0,1,2.46-1.2l4.06,4Z"/>
</svg>