<svg id="Layer_1" data-name="Layer 1" xmlns="http://www.w3.org/2000/svg" viewBox="0 0 50 50"><defs><style>.cls-1{fill:#f7b119;}</style></defs><title>icon (2)</title><path class="cls-1" d="M49.56,13.6A13.53,13.53,0,0,0,43.07,2.38,13.17,13.17,0,0,0,36.39.43H36A13.4,13.4,0,0,0,25.31,5.75,13.63,13.63,0,0,0,22.75,16.3a1.09,1.09,0,0,1-.27.82,3.9,3.9,0,0,1-.33.38c-.31.31-.64.61-.94.93a1.31,1.31,0,0,0,0,1.89c.18.21.38.39.61.62-.22.23-.39.39-.56.56Q11,31.76.79,42a1.13,1.13,0,0,0-.4.68C.31,44.75.27,46.82.23,48.89c0,.64.3.9.92.79,1.73-.26,3.46-.54,5.18-.86.88-.17,1.32-.94,1.82-1.59a.57.57,0,0,0,0-.39C8,45.66,8.65,45,9.82,45.24c.4.08.79.19,1.19.25a1.24,1.24,0,0,0,.64-.07,2.22,2.22,0,0,0,1.2-2.35,1.6,1.6,0,0,1,1.79-2,1.76,1.76,0,0,0,.94-.24,1.09,1.09,0,0,0,.49-1.45c-.16-.49-.38-1,.1-1.52a1.26,1.26,0,0,1,1.64-.41,1.32,1.32,0,0,0,1.6-.36,2.12,2.12,0,0,0,.79-2.53,1.59,1.59,0,0,1,1.17-1.63,1.19,1.19,0,0,1,.65.21,1.9,1.9,0,0,1,.43.42.68.68,0,0,0,1.1,0L25.14,32c1.26-1.27,2.53-2.52,3.87-3.85l.43.43a1.43,1.43,0,0,0,2.31,0l.72-.73.3-.31a1.06,1.06,0,0,1,1-.35c5.65.77,10.25-1.1,13.44-5.84A13.31,13.31,0,0,0,49.58,14C49.58,13.88,49.56,13.75,49.56,13.6ZM23.8,23.91l-19,19c-.45.46-.89.93-1.36,1.35a2.12,2.12,0,0,1-.72.25A1.91,1.91,0,0,1,3,43.77c.74-.77,1.51-1.52,2.26-2.28q9-9,18-18c.15-.16.3-.31.51-.51l.48.49C24.1,23.6,24,23.75,23.8,23.91ZM36,7.93a.64.64,0,0,1-.06-.54,1.05,1.05,0,0,1,.56-.62A1,1,0,0,1,37.8,7a.71.71,0,0,1,.06.54,1,1,0,0,1-.21.36,1.06,1.06,0,0,1-.35.27,1.13,1.13,0,0,1-1.22-.09A.55.55,0,0,1,36,7.93Zm.46,2.72-.06-.06a.74.74,0,0,1-.17-.56,1.09,1.09,0,0,1,.42-.74,1,1,0,0,1,1.36,0,.72.72,0,0,1,.17.55,1,1,0,0,1-.43.74A1,1,0,0,1,36.41,10.65Zm3.29,1.52a1.1,1.1,0,0,1-.7.54.74.74,0,0,1-.58-.09l-.09-.08a1.07,1.07,0,0,1-.1-1.33,1.2,1.2,0,0,1,.69-.54.82.82,0,0,1,.6.09A1.05,1.05,0,0,1,39.7,12.17Zm2.54,0a1.09,1.09,0,0,1-.63.57.67.67,0,0,1-.54-.05l-.13-.1a1.06,1.06,0,0,1-.15-1.24,1.11,1.11,0,0,1,.62-.57.77.77,0,0,1,.56.06A1,1,0,0,1,42.24,12.15Zm.57-2.3A1.5,1.5,0,0,1,42,10c-.23,0-.46,0-.69,0a2.63,2.63,0,0,0-.48.06l-.27,0a1.74,1.74,0,0,1-.69,0,1.54,1.54,0,0,1-.63-.3A1.85,1.85,0,0,1,38.68,8v-.1a1.94,1.94,0,0,0,0-.72,3.12,3.12,0,0,1-.09-.74,1,1,0,0,1,.17-.58,1.19,1.19,0,0,1,1-.55c.66.08,1.21.9,1.28,1a1.8,1.8,0,0,0,.48.75,1.38,1.38,0,0,0,.36.23l.27.12a2.34,2.34,0,0,1,1,.76,1.63,1.63,0,0,1,.24.54A1.14,1.14,0,0,1,42.81,9.85Z"/></svg>