<svg id="Layer_1" data-name="Layer 1" xmlns="http://www.w3.org/2000/svg" viewBox="0 0 50 50"><defs><style>.cls-1{fill:#f7b119;}.cls-2{fill:#55451a;}</style></defs><title>key1</title><circle class="cls-1" cx="25" cy="25" r="24.61"/><path class="cls-2" d="M42.09,16.12a9,9,0,0,0-4.32-7.45,8.81,8.81,0,0,0-4.43-1.29h-.29A8.9,8.9,0,0,0,26,10.91a9,9,0,0,0-1.7,7,.75.75,0,0,1-.18.55c-.07.08-.14.17-.22.25s-.43.4-.62.62a.86.86,0,0,0,0,1.25c.12.14.25.26.4.41l-.37.38L9.71,35a.72.72,0,0,0-.26.46c-.06,1.37-.08,2.75-.11,4.12,0,.43.2.6.61.53,1.15-.18,2.29-.36,3.44-.57.58-.11.87-.63,1.2-1a.41.41,0,0,0,0-.27c-.13-.78.33-1.22,1.1-1.06.27.06.52.13.79.17a.88.88,0,0,0,.43,0,1.47,1.47,0,0,0,.79-1.56,1.06,1.06,0,0,1,1.19-1.32,1.21,1.21,0,0,0,.63-.16.72.72,0,0,0,.32-1c-.1-.33-.25-.67.07-1A.85.85,0,0,1,21,32a.89.89,0,0,0,1.06-.24A1.41,1.41,0,0,0,22.6,30c-.14-.38.36-1.05.77-1.09a.75.75,0,0,1,.43.15,1.28,1.28,0,0,1,.29.28.46.46,0,0,0,.73,0l1.05-1.06,2.57-2.56.29.29a1,1,0,0,0,1.53,0l.48-.49.2-.21a.69.69,0,0,1,.69-.23,8.65,8.65,0,0,0,8.93-3.87A8.89,8.89,0,0,0,42.1,16.4C42.1,16.3,42.09,16.22,42.09,16.12ZM25,23,12.39,35.56c-.31.31-.59.62-.91.9a1.54,1.54,0,0,1-.47.16,1.13,1.13,0,0,1,.15-.47l1.5-1.52q6-6,12-12l.34-.33.31.32A3,3,0,0,0,25,23Zm8.06-10.61A.42.42,0,0,1,33,12a.65.65,0,0,1,.37-.41.68.68,0,0,1,.9.16.49.49,0,0,1,0,.36.58.58,0,0,1-.14.24.89.89,0,0,1-.24.18.75.75,0,0,1-.81-.06A.76.76,0,0,1,33.05,12.36Zm.3,1.8,0,0a.53.53,0,0,1-.11-.37.71.71,0,0,1,.28-.49.65.65,0,0,1,.9,0,.49.49,0,0,1,.12.37.69.69,0,0,1-.29.48A.67.67,0,0,1,33.35,14.16Zm2.19,1a.73.73,0,0,1-.46.36.52.52,0,0,1-.39-.06l-.06-.05a.73.73,0,0,1-.07-.89.84.84,0,0,1,.46-.36.55.55,0,0,1,.4.07A.69.69,0,0,1,35.54,15.17Zm1.68,0a.7.7,0,0,1-.41.37.47.47,0,0,1-.37,0l-.08-.06a.73.73,0,0,1-.1-.83.7.7,0,0,1,.41-.37.43.43,0,0,1,.37,0A.66.66,0,0,1,37.22,15.16Zm.38-1.53a.94.94,0,0,1-.52.07l-.46,0a1.75,1.75,0,0,0-.32,0l-.18,0a1.18,1.18,0,0,1-.46,0,1,1,0,0,1-.41-.2,1.22,1.22,0,0,1-.39-1.15V12.3a1.29,1.29,0,0,0,0-.48,2,2,0,0,1,0-.49.63.63,0,0,1,.11-.38.82.82,0,0,1,.7-.37,1.4,1.4,0,0,1,.84.7,1.29,1.29,0,0,0,.33.5,1.14,1.14,0,0,0,.23.15l.18.08a1.61,1.61,0,0,1,.7.5,1.25,1.25,0,0,1,.16.37A.76.76,0,0,1,37.6,13.63Z"/></svg>