<svg id="Layer_1" data-name="Layer 1" xmlns="http://www.w3.org/2000/svg" viewBox="0 0 50 50"><defs><style>.cls-1{fill:#f7b119;}</style></defs><title>icon (2)</title><path class="cls-1" d="M40.85,49.77H12.06a6.24,6.24,0,0,1-6.24-6.23V6.46A6.24,6.24,0,0,1,12.06.23H40.85a6.24,6.24,0,0,1,6.24,6.23V43.54A6.24,6.24,0,0,1,40.85,49.77ZM12.06,1.28A5.19,5.19,0,0,0,6.87,6.46V43.54a5.19,5.19,0,0,0,5.19,5.18H40.85A5.19,5.19,0,0,0,46,43.54V6.46a5.19,5.19,0,0,0-5.19-5.18Z"/><path class="cls-1" d="M36.75,11.2H16.17a2.1,2.1,0,0,1-2.1-2.1V8.8a2.1,2.1,0,0,1,2.1-2.09H36.75A2.1,2.1,0,0,1,38.84,8.8v.3A2.1,2.1,0,0,1,36.75,11.2ZM16.17,7.76a1,1,0,0,0-1.05,1v.3a1,1,0,0,0,1.05,1.05H36.75a1,1,0,0,0,1-1.05V8.8a1,1,0,0,0-1-1Z"/><path class="cls-1" d="M36.75,17.63H16.17a2.1,2.1,0,0,1-2.1-2.1v-.3a2.1,2.1,0,0,1,2.1-2.09H36.75a2.1,2.1,0,0,1,2.09,2.09v.3A2.1,2.1,0,0,1,36.75,17.63ZM16.17,14.19a1,1,0,0,0-1.05,1v.3a1,1,0,0,0,1.05,1H36.75a1,1,0,0,0,1-1v-.3a1,1,0,0,0-1-1Z"/><path class="cls-1" d="M36.75,23.65H16.17a2.1,2.1,0,0,1-2.1-2.09v-.3a2.1,2.1,0,0,1,2.1-2.09H36.75a2.1,2.1,0,0,1,2.09,2.09v.3A2.1,2.1,0,0,1,36.75,23.65ZM16.17,20.21a1,1,0,0,0-1.05,1.05v.3a1,1,0,0,0,1.05,1.05H36.75a1,1,0,0,0,1-1.05v-.3a1,1,0,0,0-1-1.05Z"/><path class="cls-1" d="M29.26,38.76a1.58,1.58,0,0,0-.52-.6,2.69,2.69,0,0,0-.87-.39,4.43,4.43,0,0,0-.43-.12V35.78l.34.14a1.67,1.67,0,0,1,.5.27.55.55,0,0,0,.31.08.65.65,0,0,0,.46-.18.55.55,0,0,0,.2-.4.66.66,0,0,0-.34-.54,3.6,3.6,0,0,0-1-.51,3,3,0,0,0-.43-.1V33.43a.32.32,0,0,0-.33-.3.34.34,0,0,0-.33.3v1h-.3l-.36,0v-1a.33.33,0,0,0-.65,0v1.14a1.75,1.75,0,0,0-.44.13,2.3,2.3,0,0,0-1,.71,1.68,1.68,0,0,0-.39,1.12,1.8,1.8,0,0,0,.16.79,1.67,1.67,0,0,0,.48.61,2.42,2.42,0,0,0,.8.42,3.62,3.62,0,0,0,.43.14v2l-.06,0a3.4,3.4,0,0,1-.87-.48.7.7,0,0,0-.4-.12.74.74,0,0,0-.48.17.61.61,0,0,0-.19.43.57.57,0,0,0,.09.28.74.74,0,0,0,.23.24,3.51,3.51,0,0,0,1.23.63,1.56,1.56,0,0,0,.45.09v.91a.3.3,0,0,0,.32.28.3.3,0,0,0,.33-.28v-.83h.35a1.56,1.56,0,0,0,.31,0v.84a.31.31,0,0,0,.33.28.29.29,0,0,0,.32-.28v-.93a2.25,2.25,0,0,0,.48-.15,2.54,2.54,0,0,0,1.1-.73,1.67,1.67,0,0,0,.41-1.14A2.12,2.12,0,0,0,29.26,38.76Zm-3.78-1.58a.62.62,0,0,1-.31-.2.67.67,0,0,1-.2-.5.7.7,0,0,1,.17-.45,1.35,1.35,0,0,1,.34-.24Zm.64.22V35.64l.36,0,.3,0v1.89l-.12,0Zm.36,3.2-.35,0v-2h0a3.53,3.53,0,0,1,.64.11v1.85A1.48,1.48,0,0,1,26.48,40.6Zm1.35-.43a1.22,1.22,0,0,1-.39.23V38.93a1.46,1.46,0,0,1,.4.26.74.74,0,0,1,.21.53A.63.63,0,0,1,27.83,40.17Z"/><path class="cls-1" d="M26.46,45.12A7.12,7.12,0,1,1,33.57,38,7.12,7.12,0,0,1,26.46,45.12Zm0-13.19A6.07,6.07,0,1,0,32.53,38,6.08,6.08,0,0,0,26.46,31.93Z"/></svg>