<svg id="Layer_1" data-name="Layer 1" xmlns="http://www.w3.org/2000/svg" viewBox="0 0 50 50"><defs><style>.cls-1{fill:#f7b119;}</style></defs><title>icon (2)</title><path class="cls-1" d="M29.48,38.18a1.84,1.84,0,0,0-.63-.73A3.67,3.67,0,0,0,27.78,37c-.17-.06-.33-.09-.52-.14V34.54l.41.16a2.61,2.61,0,0,1,.61.33.65.65,0,0,0,.38.11.76.76,0,0,0,.56-.22.66.66,0,0,0,.25-.5.83.83,0,0,0-.41-.66,4.77,4.77,0,0,0-1.28-.62,4.37,4.37,0,0,0-.52-.12V31.66a.39.39,0,0,0-.41-.36.4.4,0,0,0-.4.36v1.26h-.36l-.45,0V31.66a.4.4,0,0,0-.8,0v1.4a2.26,2.26,0,0,0-.54.15,2.92,2.92,0,0,0-1.27.87,2.08,2.08,0,0,0-.47,1.38,2.25,2.25,0,0,0,.19,1,2.14,2.14,0,0,0,.59.75,3.08,3.08,0,0,0,1,.52,4.1,4.1,0,0,0,.53.16v2.41l-.07,0a4.21,4.21,0,0,1-1.07-.59.92.92,0,0,0-1.07.07.73.73,0,0,0-.23.52.66.66,0,0,0,.1.34,1.14,1.14,0,0,0,.28.31,4.48,4.48,0,0,0,1.51.76,2.44,2.44,0,0,0,.55.12v1.1a.4.4,0,0,0,.8,0v-1h.44a2.36,2.36,0,0,0,.37,0v1a.39.39,0,0,0,.4.36.38.38,0,0,0,.4-.36V41.73a2.87,2.87,0,0,0,.59-.17,3.21,3.21,0,0,0,1.34-.9,2,2,0,0,0,.5-1.39A2.58,2.58,0,0,0,29.48,38.18Zm-4.63-1.92a.93.93,0,0,1-.37-.25.79.79,0,0,1-.25-.61.81.81,0,0,1,.21-.55,1.5,1.5,0,0,1,.41-.3Zm.79.27V34.36l.45,0,.36,0v2.32l-.15,0Zm.45,3.91-.44,0V38h0a4.06,4.06,0,0,1,.79.13v2.27A2.31,2.31,0,0,1,26.09,40.44Zm1.64-.53a1.28,1.28,0,0,1-.47.28V38.4a1.73,1.73,0,0,1,.48.31.88.88,0,0,1,.26.65A.71.71,0,0,1,27.73,39.91Zm1.75-1.73a1.84,1.84,0,0,0-.63-.73A3.67,3.67,0,0,0,27.78,37c-.17-.06-.33-.09-.52-.14V34.54l.41.16a2.61,2.61,0,0,1,.61.33.65.65,0,0,0,.38.11.76.76,0,0,0,.56-.22.66.66,0,0,0,.25-.5.83.83,0,0,0-.41-.66,4.77,4.77,0,0,0-1.28-.62,4.37,4.37,0,0,0-.52-.12V31.66a.39.39,0,0,0-.41-.36.4.4,0,0,0-.4.36v1.26h-.36l-.45,0V31.66a.4.4,0,0,0-.8,0v1.4a2.26,2.26,0,0,0-.54.15,2.92,2.92,0,0,0-1.27.87,2.08,2.08,0,0,0-.47,1.38,2.25,2.25,0,0,0,.19,1,2.14,2.14,0,0,0,.59.75,3.08,3.08,0,0,0,1,.52,4.1,4.1,0,0,0,.53.16v2.41l-.07,0a4.21,4.21,0,0,1-1.07-.59.92.92,0,0,0-1.07.07.73.73,0,0,0-.23.52.66.66,0,0,0,.1.34,1.14,1.14,0,0,0,.28.31,4.48,4.48,0,0,0,1.51.76,2.44,2.44,0,0,0,.55.12v1.1a.4.4,0,0,0,.8,0v-1h.44a2.36,2.36,0,0,0,.37,0v1a.39.39,0,0,0,.4.36.38.38,0,0,0,.4-.36V41.73a2.87,2.87,0,0,0,.59-.17,3.21,3.21,0,0,0,1.34-.9,2,2,0,0,0,.5-1.39A2.58,2.58,0,0,0,29.48,38.18Zm-4.63-1.92a.93.93,0,0,1-.37-.25.79.79,0,0,1-.25-.61.81.81,0,0,1,.21-.55,1.5,1.5,0,0,1,.41-.3Zm.79.27V34.36l.45,0,.36,0v2.32l-.15,0Zm.45,3.91-.44,0V38h0a4.06,4.06,0,0,1,.79.13v2.27A2.31,2.31,0,0,1,26.09,40.44Zm1.64-.53a1.28,1.28,0,0,1-.47.28V38.4a1.73,1.73,0,0,1,.48.31.88.88,0,0,1,.26.65A.71.71,0,0,1,27.73,39.91Zm1.75-1.73a1.84,1.84,0,0,0-.63-.73A3.67,3.67,0,0,0,27.78,37c-.17-.06-.33-.09-.52-.14V34.54l.41.16a2.61,2.61,0,0,1,.61.33.65.65,0,0,0,.38.11.76.76,0,0,0,.56-.22.66.66,0,0,0,.25-.5.83.83,0,0,0-.41-.66,4.77,4.77,0,0,0-1.28-.62,4.37,4.37,0,0,0-.52-.12V31.66a.39.39,0,0,0-.41-.36.4.4,0,0,0-.4.36v1.26h-.36l-.45,0V31.66a.4.4,0,0,0-.8,0v1.4a2.26,2.26,0,0,0-.54.15,2.92,2.92,0,0,0-1.27.87,2.08,2.08,0,0,0-.47,1.38,2.25,2.25,0,0,0,.19,1,2.14,2.14,0,0,0,.59.75,3.08,3.08,0,0,0,1,.52,4.1,4.1,0,0,0,.53.16v2.41l-.07,0a4.21,4.21,0,0,1-1.07-.59.92.92,0,0,0-1.07.07.73.73,0,0,0-.23.52.66.66,0,0,0,.1.34,1.14,1.14,0,0,0,.28.31,4.48,4.48,0,0,0,1.51.76,2.44,2.44,0,0,0,.55.12v1.1a.4.4,0,0,0,.8,0v-1h.44a2.36,2.36,0,0,0,.37,0v1a.39.39,0,0,0,.4.36.38.38,0,0,0,.4-.36V41.73a2.87,2.87,0,0,0,.59-.17,3.21,3.21,0,0,0,1.34-.9,2,2,0,0,0,.5-1.39A2.58,2.58,0,0,0,29.48,38.18Zm-4.63-1.92a.93.93,0,0,1-.37-.25.79.79,0,0,1-.25-.61.81.81,0,0,1,.21-.55,1.5,1.5,0,0,1,.41-.3Zm.79.27V34.36l.45,0,.36,0v2.32l-.15,0Zm.45,3.91-.44,0V38h0a4.06,4.06,0,0,1,.79.13v2.27A2.31,2.31,0,0,1,26.09,40.44Zm1.64-.53a1.28,1.28,0,0,1-.47.28V38.4a1.73,1.73,0,0,1,.48.31.88.88,0,0,1,.26.65A.71.71,0,0,1,27.73,39.91Zm1.75-1.73a1.84,1.84,0,0,0-.63-.73A3.67,3.67,0,0,0,27.78,37c-.17-.06-.33-.09-.52-.14V34.54l.41.16a2.61,2.61,0,0,1,.61.33.65.65,0,0,0,.38.11.76.76,0,0,0,.56-.22.66.66,0,0,0,.25-.5.83.83,0,0,0-.41-.66,4.77,4.77,0,0,0-1.28-.62,4.37,4.37,0,0,0-.52-.12V31.66a.39.39,0,0,0-.41-.36.4.4,0,0,0-.4.36v1.26h-.36l-.45,0V31.66a.4.4,0,0,0-.8,0v1.4a2.26,2.26,0,0,0-.54.15,2.92,2.92,0,0,0-1.27.87,2.08,2.08,0,0,0-.47,1.38,2.25,2.25,0,0,0,.19,1,2.14,2.14,0,0,0,.59.75,3.08,3.08,0,0,0,1,.52,4.1,4.1,0,0,0,.53.16v2.41l-.07,0a4.21,4.21,0,0,1-1.07-.59.92.92,0,0,0-1.07.07.73.73,0,0,0-.23.52.66.66,0,0,0,.1.34,1.14,1.14,0,0,0,.28.31,4.48,4.48,0,0,0,1.51.76,2.44,2.44,0,0,0,.55.12v1.1a.4.4,0,0,0,.8,0v-1h.44a2.36,2.36,0,0,0,.37,0v1a.39.39,0,0,0,.4.36.38.38,0,0,0,.4-.36V41.73a2.87,2.87,0,0,0,.59-.17,3.21,3.21,0,0,0,1.34-.9,2,2,0,0,0,.5-1.39A2.58,2.58,0,0,0,29.48,38.18Zm-4.63-1.92a.93.93,0,0,1-.37-.25.79.79,0,0,1-.25-.61.81.81,0,0,1,.21-.55,1.5,1.5,0,0,1,.41-.3Zm.79.27V34.36l.45,0,.36,0v2.32l-.15,0Zm.45,3.91-.44,0V38h0a4.06,4.06,0,0,1,.79.13v2.27A2.31,2.31,0,0,1,26.09,40.44Zm1.64-.53a1.28,1.28,0,0,1-.47.28V38.4a1.73,1.73,0,0,1,.48.31.88.88,0,0,1,.26.65A.71.71,0,0,1,27.73,39.91ZM40.85.17H12.05A5.8,5.8,0,0,0,6.28,6V44.06a5.79,5.79,0,0,0,5.77,5.77h28.8a5.78,5.78,0,0,0,5.78-5.77V6A5.8,5.8,0,0,0,40.85.17Zm-3,22.17H13.67a1.33,1.33,0,1,1,0-2.65H37.88a1.33,1.33,0,0,1,0,2.65Zm0-7.49H13.67a1.33,1.33,0,1,1,0-2.66H37.88a1.33,1.33,0,0,1,0,2.66Zm0-7.49H13.67a1.33,1.33,0,1,1,0-2.66H37.88a1.33,1.33,0,0,1,0,2.66ZM26.1,45.05a7.79,7.79,0,1,1,7.78-7.79A7.79,7.79,0,0,1,26.1,45.05Zm2.75-7.6A3.67,3.67,0,0,0,27.78,37c-.17-.06-.33-.09-.52-.14V34.54l.41.16a2.61,2.61,0,0,1,.61.33.65.65,0,0,0,.38.11.76.76,0,0,0,.56-.22.66.66,0,0,0,.25-.5.83.83,0,0,0-.41-.66,4.77,4.77,0,0,0-1.28-.62,4.37,4.37,0,0,0-.52-.12V31.66a.39.39,0,0,0-.41-.36.4.4,0,0,0-.4.36v1.26h-.36l-.45,0V31.66a.4.4,0,0,0-.8,0v1.4a2.26,2.26,0,0,0-.54.15,2.92,2.92,0,0,0-1.27.87,2.08,2.08,0,0,0-.47,1.38,2.25,2.25,0,0,0,.19,1,2.14,2.14,0,0,0,.59.75,3.08,3.08,0,0,0,1,.52,4.1,4.1,0,0,0,.53.16v2.41l-.07,0a4.21,4.21,0,0,1-1.07-.59.92.92,0,0,0-1.07.07.73.73,0,0,0-.23.52.66.66,0,0,0,.1.34,1.14,1.14,0,0,0,.28.31,4.48,4.48,0,0,0,1.51.76,2.44,2.44,0,0,0,.55.12v1.1a.4.4,0,0,0,.8,0v-1h.44a2.36,2.36,0,0,0,.37,0v1a.39.39,0,0,0,.4.36.38.38,0,0,0,.4-.36V41.73a2.87,2.87,0,0,0,.59-.17,3.21,3.21,0,0,0,1.34-.9,2,2,0,0,0,.5-1.39,2.58,2.58,0,0,0-.21-1.09A1.84,1.84,0,0,0,28.85,37.45Zm-4-1.19a.93.93,0,0,1-.37-.25.79.79,0,0,1-.25-.61.81.81,0,0,1,.21-.55,1.5,1.5,0,0,1,.41-.3Zm.79.27V34.36l.45,0,.36,0v2.32l-.15,0Zm.45,3.91-.44,0V38h0a4.06,4.06,0,0,1,.79.13v2.27A2.31,2.31,0,0,1,26.09,40.44Zm1.64-.53a1.28,1.28,0,0,1-.47.28V38.4a1.73,1.73,0,0,1,.48.31.88.88,0,0,1,.26.65A.71.71,0,0,1,27.73,39.91Zm1.75-1.73a1.84,1.84,0,0,0-.63-.73A3.67,3.67,0,0,0,27.78,37c-.17-.06-.33-.09-.52-.14V34.54l.41.16a2.61,2.61,0,0,1,.61.33.65.65,0,0,0,.38.11.76.76,0,0,0,.56-.22.66.66,0,0,0,.25-.5.83.83,0,0,0-.41-.66,4.77,4.77,0,0,0-1.28-.62,4.37,4.37,0,0,0-.52-.12V31.66a.39.39,0,0,0-.41-.36.4.4,0,0,0-.4.36v1.26h-.36l-.45,0V31.66a.4.4,0,0,0-.8,0v1.4a2.26,2.26,0,0,0-.54.15,2.92,2.92,0,0,0-1.27.87,2.08,2.08,0,0,0-.47,1.38,2.25,2.25,0,0,0,.19,1,2.14,2.14,0,0,0,.59.75,3.08,3.08,0,0,0,1,.52,4.1,4.1,0,0,0,.53.16v2.41l-.07,0a4.21,4.21,0,0,1-1.07-.59.92.92,0,0,0-1.07.07.73.73,0,0,0-.23.52.66.66,0,0,0,.1.34,1.14,1.14,0,0,0,.28.31,4.48,4.48,0,0,0,1.51.76,2.44,2.44,0,0,0,.55.12v1.1a.4.4,0,0,0,.8,0v-1h.44a2.36,2.36,0,0,0,.37,0v1a.39.39,0,0,0,.4.36.38.38,0,0,0,.4-.36V41.73a2.87,2.87,0,0,0,.59-.17,3.21,3.21,0,0,0,1.34-.9,2,2,0,0,0,.5-1.39A2.58,2.58,0,0,0,29.48,38.18Zm-4.63-1.92a.93.93,0,0,1-.37-.25.79.79,0,0,1-.25-.61.81.81,0,0,1,.21-.55,1.5,1.5,0,0,1,.41-.3Zm.79.27V34.36l.45,0,.36,0v2.32l-.15,0Zm.45,3.91-.44,0V38h0a4.06,4.06,0,0,1,.79.13v2.27A2.31,2.31,0,0,1,26.09,40.44Zm1.64-.53a1.28,1.28,0,0,1-.47.28V38.4a1.73,1.73,0,0,1,.48.31.88.88,0,0,1,.26.65A.71.71,0,0,1,27.73,39.91Zm1.75-1.73a1.84,1.84,0,0,0-.63-.73A3.67,3.67,0,0,0,27.78,37c-.17-.06-.33-.09-.52-.14V34.54l.41.16a2.61,2.61,0,0,1,.61.33.65.65,0,0,0,.38.11.76.76,0,0,0,.56-.22.66.66,0,0,0,.25-.5.83.83,0,0,0-.41-.66,4.77,4.77,0,0,0-1.28-.62,4.37,4.37,0,0,0-.52-.12V31.66a.39.39,0,0,0-.41-.36.4.4,0,0,0-.4.36v1.26h-.36l-.45,0V31.66a.4.4,0,0,0-.8,0v1.4a2.26,2.26,0,0,0-.54.15,2.92,2.92,0,0,0-1.27.87,2.08,2.08,0,0,0-.47,1.38,2.25,2.25,0,0,0,.19,1,2.14,2.14,0,0,0,.59.75,3.08,3.08,0,0,0,1,.52,4.1,4.1,0,0,0,.53.16v2.41l-.07,0a4.21,4.21,0,0,1-1.07-.59.92.92,0,0,0-1.07.07.73.73,0,0,0-.23.52.66.66,0,0,0,.1.34,1.14,1.14,0,0,0,.28.31,4.48,4.48,0,0,0,1.51.76,2.44,2.44,0,0,0,.55.12v1.1a.4.4,0,0,0,.8,0v-1h.44a2.36,2.36,0,0,0,.37,0v1a.39.39,0,0,0,.4.36.38.38,0,0,0,.4-.36V41.73a2.87,2.87,0,0,0,.59-.17,3.21,3.21,0,0,0,1.34-.9,2,2,0,0,0,.5-1.39A2.58,2.58,0,0,0,29.48,38.18Zm-4.63-1.92a.93.93,0,0,1-.37-.25.79.79,0,0,1-.25-.61.81.81,0,0,1,.21-.55,1.5,1.5,0,0,1,.41-.3Zm.79.27V34.36l.45,0,.36,0v2.32l-.15,0Zm.45,3.91-.44,0V38h0a4.06,4.06,0,0,1,.79.13v2.27A2.31,2.31,0,0,1,26.09,40.44Zm1.64-.53a1.28,1.28,0,0,1-.47.28V38.4a1.73,1.73,0,0,1,.48.31.88.88,0,0,1,.26.65A.71.71,0,0,1,27.73,39.91Zm1.75-1.73a1.84,1.84,0,0,0-.63-.73A3.67,3.67,0,0,0,27.78,37c-.17-.06-.33-.09-.52-.14V34.54l.41.16a2.61,2.61,0,0,1,.61.33.65.65,0,0,0,.38.11.76.76,0,0,0,.56-.22.66.66,0,0,0,.25-.5.83.83,0,0,0-.41-.66,4.77,4.77,0,0,0-1.28-.62,4.37,4.37,0,0,0-.52-.12V31.66a.39.39,0,0,0-.41-.36.4.4,0,0,0-.4.36v1.26h-.36l-.45,0V31.66a.4.4,0,0,0-.8,0v1.4a2.26,2.26,0,0,0-.54.15,2.92,2.92,0,0,0-1.27.87,2.08,2.08,0,0,0-.47,1.38,2.25,2.25,0,0,0,.19,1,2.14,2.14,0,0,0,.59.75,3.08,3.08,0,0,0,1,.52,4.1,4.1,0,0,0,.53.16v2.41l-.07,0a4.21,4.21,0,0,1-1.07-.59.92.92,0,0,0-1.07.07.73.73,0,0,0-.23.52.66.66,0,0,0,.1.34,1.14,1.14,0,0,0,.28.31,4.48,4.48,0,0,0,1.51.76,2.44,2.44,0,0,0,.55.12v1.1a.4.4,0,0,0,.8,0v-1h.44a2.36,2.36,0,0,0,.37,0v1a.39.39,0,0,0,.4.36.38.38,0,0,0,.4-.36V41.73a2.87,2.87,0,0,0,.59-.17,3.21,3.21,0,0,0,1.34-.9,2,2,0,0,0,.5-1.39A2.58,2.58,0,0,0,29.48,38.18Zm-4.63-1.92a.93.93,0,0,1-.37-.25.79.79,0,0,1-.25-.61.81.81,0,0,1,.21-.55,1.5,1.5,0,0,1,.41-.3Zm.79.27V34.36l.45,0,.36,0v2.32l-.15,0Zm.45,3.91-.44,0V38h0a4.06,4.06,0,0,1,.79.13v2.27A2.31,2.31,0,0,1,26.09,40.44Zm1.64-.53a1.28,1.28,0,0,1-.47.28V38.4a1.73,1.73,0,0,1,.48.31.88.88,0,0,1,.26.65A.71.71,0,0,1,27.73,39.91Zm1.75-1.73a1.84,1.84,0,0,0-.63-.73A3.67,3.67,0,0,0,27.78,37c-.17-.06-.33-.09-.52-.14V34.54l.41.16a2.61,2.61,0,0,1,.61.33.65.65,0,0,0,.38.11.76.76,0,0,0,.56-.22.66.66,0,0,0,.25-.5.83.83,0,0,0-.41-.66,4.77,4.77,0,0,0-1.28-.62,4.37,4.37,0,0,0-.52-.12V31.66a.39.39,0,0,0-.41-.36.4.4,0,0,0-.4.36v1.26h-.36l-.45,0V31.66a.4.4,0,0,0-.8,0v1.4a2.26,2.26,0,0,0-.54.15,2.92,2.92,0,0,0-1.27.87,2.08,2.08,0,0,0-.47,1.38,2.25,2.25,0,0,0,.19,1,2.14,2.14,0,0,0,.59.75,3.08,3.08,0,0,0,1,.52,4.1,4.1,0,0,0,.53.16v2.41l-.07,0a4.21,4.21,0,0,1-1.07-.59.92.92,0,0,0-1.07.07.73.73,0,0,0-.23.52.66.66,0,0,0,.1.34,1.14,1.14,0,0,0,.28.31,4.48,4.48,0,0,0,1.51.76,2.44,2.44,0,0,0,.55.12v1.1a.4.4,0,0,0,.8,0v-1h.44a2.36,2.36,0,0,0,.37,0v1a.39.39,0,0,0,.4.36.38.38,0,0,0,.4-.36V41.73a2.87,2.87,0,0,0,.59-.17,3.21,3.21,0,0,0,1.34-.9,2,2,0,0,0,.5-1.39A2.58,2.58,0,0,0,29.48,38.18Zm-4.63-1.92a.93.93,0,0,1-.37-.25.79.79,0,0,1-.25-.61.81.81,0,0,1,.21-.55,1.5,1.5,0,0,1,.41-.3Zm.79.27V34.36l.45,0,.36,0v2.32l-.15,0Zm.45,3.91-.44,0V38h0a4.06,4.06,0,0,1,.79.13v2.27A2.31,2.31,0,0,1,26.09,40.44Zm1.64-.53a1.28,1.28,0,0,1-.47.28V38.4a1.73,1.73,0,0,1,.48.31.88.88,0,0,1,.26.65A.71.71,0,0,1,27.73,39.91Z"/></svg>