<svg id="Layer_1" data-name="Layer 1" xmlns="http://www.w3.org/2000/svg" viewBox="0 0 50 50"><defs><style>.cls-1{fill:#f7b119;}</style></defs><title>icon (2)</title><path class="cls-1" d="M30.05,41.08a5,5,0,0,1-2,4.26c-1.38,1.1-2.69,2.28-4,3.39a11.17,11.17,0,0,1-1,.77,1.77,1.77,0,0,1-1.07.34,1.73,1.73,0,0,1-1.1-.36,2.7,2.7,0,0,1-.93-2.34c0-3.61,0-7.22,0-10.83H30C30,37.9,30,39.48,30.05,41.08Z"/><path class="cls-1" d="M41.85,14.65c-1.31,2.42-2.85,4.71-4.31,7-2.33,3.71-4.69,7.41-7,11.15a3.39,3.39,0,0,0-.47,1.36H19.88a3.13,3.13,0,0,0-.44-1.32c-3.54-5.66-7.11-11.31-10.66-17a9.78,9.78,0,0,1-.91-1.76A2.66,2.66,0,0,1,10.5,10.3c1.61,0,3.21,0,4.81,0H39.13C41.92,10.3,43.17,12.2,41.85,14.65Z"/><path class="cls-1" d="M19.5,1.66a1.5,1.5,0,0,1-.28.87L15,8.34a1.45,1.45,0,0,1-.78.54.9.9,0,0,1-.22.06h-.44a1,1,0,0,1-.23-.06,1.42,1.42,0,0,1-.77-.54L8.36,2.53A1.49,1.49,0,1,1,10.77.78l3,4.16,3-4.16A1.5,1.5,0,0,1,18.88.45,1.48,1.48,0,0,1,19.5,1.66Z"/><path class="cls-1" d="M29.92,7.46a1.55,1.55,0,0,1,.28-.87L34.41.78a1.52,1.52,0,0,1,.78-.55l.22-.05.21,0h0l.21,0,.23.05a1.5,1.5,0,0,1,.77.55l4.21,5.81a1.5,1.5,0,0,1-.33,2.08,1.5,1.5,0,0,1-2.08-.33l-3-4.16-3,4.16a1.49,1.49,0,0,1-2.7-.88Z"/></svg>