<svg id="Layer_1" data-name="Layer 1" xmlns="http://www.w3.org/2000/svg" viewBox="0 0 50 50"><defs><style>.cls-1{fill:#f7b119;}</style></defs><title>icon (2)</title><path class="cls-1" d="M25.15.5A24.59,24.59,0,1,0,49.74,25.09,24.6,24.6,0,0,0,25.15.5Zm0,38.77a3.35,3.35,0,1,1,3.35-3.35A3.35,3.35,0,0,1,25.16,39.27ZM28.6,26.79a3.47,3.47,0,0,1-6.9,0L20.39,14.63a3.39,3.39,0,0,1,3.36-3.74h2.8a3.39,3.39,0,0,1,3.37,3.74ZM27.25,35a.68.68,0,0,0-.75.46.57.57,0,0,0,.27.78.68.68,0,0,0,.76-.46A.58.58,0,0,0,27.25,35Zm-.86,1.44a.77.77,0,0,1-.29-.33,1.19,1.19,0,0,0-1-.56,1.08,1.08,0,0,0-.41.11,2,2,0,0,0-.35.27,1.91,1.91,0,0,1-.27.35,3.88,3.88,0,0,1-.31.26.91.91,0,0,0-.33.37.73.73,0,0,0,.18.83.71.71,0,0,0,.33.14,1.63,1.63,0,0,0,.95-.14,1.09,1.09,0,0,1,.71.09c.08,0,1.34.42,1.29-.73a.66.66,0,0,0-.16-.36A3.31,3.31,0,0,0,26.39,36.44Zm-.58-1.13a.64.64,0,0,0,.65-.58A.59.59,0,0,0,26,34a.61.61,0,0,0-.64.58A.59.59,0,0,0,25.81,35.31Zm-1.25,0a.62.62,0,0,0,.44-.76.69.69,0,0,0-.71-.58.6.6,0,0,0-.42.77A.66.66,0,0,0,24.56,35.28Zm-.73.19a.65.65,0,0,0-.71-.5.54.54,0,0,0-.34.74.62.62,0,0,0,.69.51A.56.56,0,0,0,23.83,35.47Z"/></svg>