<svg id="Layer_1" data-name="Layer 1" xmlns="http://www.w3.org/2000/svg" viewBox="0 0 50 50"><defs><style>.cls-1{fill:#f6b21a;}</style></defs><title>icon (2)</title><path class="cls-1" d="M41.92,47a11.85,11.85,0,0,1-1.21-2.51,8.15,8.15,0,0,1-.7-2.07,13.92,13.92,0,0,1,.47-5.63c.29-1,.47-2,.73-2.94a22.58,22.58,0,0,0,.61-3.46,14.87,14.87,0,0,0-.53-6,11.76,11.76,0,0,0-1.35-2.84c-.88-1.39-2.77-2.51-2.53-4.38A4.23,4.23,0,0,1,39,14.51a4.73,4.73,0,0,0,1.22-1.41,6.75,6.75,0,0,0,.59-4.93c-.51-2.5-.82-2.7-1.23-2.74a6.9,6.9,0,0,1-2.84-.79,7.6,7.6,0,0,0-6.61-.72L25.27.78,24.39.22l.47,7.48s-.11.21-.16.29a9.4,9.4,0,0,0-.59,1.47A9,9,0,0,0,24,16l.3.76a15.51,15.51,0,0,1,1,4.34,7.33,7.33,0,0,1-1.66,5.16c-1.56,1.9-3.94,2.87-5.68,4.59-3.15,3.13-5.44,7.79-4.25,12.28a6.71,6.71,0,0,0,1.07,2.24,20.5,20.5,0,0,1,1.5,1.78,3.46,3.46,0,0,1-2-1.2,8.39,8.39,0,0,1-1.33-2,5.51,5.51,0,0,1-.35-1.18,14.37,14.37,0,0,1,.24-5.54,18.94,18.94,0,0,0,.52-3.07c0-1.55-.52-3.12-2.25-3.36A3.8,3.8,0,0,0,9,31.07a3.13,3.13,0,0,0-1.48,2,2,2,0,0,0-.12.65c0,.48.54,1.28,1.1,1.17s.55-.66.65-1a2,2,0,0,1,.71-1.16c.64-.42,1.72-.37,1.79.56A20.88,20.88,0,0,1,11.12,39a9.11,9.11,0,0,0,0,4.58,8.94,8.94,0,0,0,2.24,3.62,6.45,6.45,0,0,0,1.19,1.09,5.14,5.14,0,0,0,2,.69,26.27,26.27,0,0,0,3.44.23c1.55.09,3.11.08,4.66.17a47,47,0,0,0,5.31-.08c.49,0,1.38,0,1.69-.44a1.19,1.19,0,0,0-.42-1.49,4.83,4.83,0,0,0-3-.73c.24-.19.46-.4.69-.61A8.5,8.5,0,0,0,31,43.68a14.9,14.9,0,0,0,1.35-2.18,25.53,25.53,0,0,0,.57,3.12c.43,1.77,1.12,5.16,3.5,5.16h.39A1.84,1.84,0,0,0,38,49.25l.09-.12a3.82,3.82,0,0,0,2,.59h.81a1.7,1.7,0,0,0,1.49-1.11A1.57,1.57,0,0,0,41.92,47ZM36.53,13.45l-.35-.34,2-1.12.35.33Zm-.1-3.9,2.12.83-.29.43L36.14,10ZM34.65,6.09a1.1,1.1,0,1,1-1.1,1.1A1.1,1.1,0,0,1,34.65,6.09ZM26.94,17.92v0l-.06,0ZM25.53,2.3l0,0h0ZM37.37,48.07s0,0,0,.06c-.23.87-1.3.65-1.88.1-.86-.83-1.25-2.52-1.52-3.65-.78-3.22-.19-7.3-2.31-10.07A10.72,10.72,0,0,0,27,31.31c-3-1.24-6.91.45-9,2.68a8,8,0,0,0-.8,10.06,6.71,6.71,0,0,0,4.38,2.71,17.66,17.66,0,0,0,2.39.35c1.49.13,3,.18,4.47.27a5.33,5.33,0,0,1,1.19.16,2.06,2.06,0,0,1,1,.73c-.45.41-1.33.16-1.89.17h-2l-3.87,0A9.29,9.29,0,0,1,17.4,47a7.45,7.45,0,0,1-1.59-1.77,9.3,9.3,0,0,1-.26-9.87,5.11,5.11,0,0,0,.38-.6,11.71,11.71,0,0,1,3.59-4l4.39-3.37c1.9-1.46,2.53-4.17,2.43-6.44a11.7,11.7,0,0,0-.46-2.81c.19.67,1.95.74,2.48.81s1,.05,1.5.11a6.84,6.84,0,0,1,5.38,3.49,14,14,0,0,1,1.22,5.88,54.77,54.77,0,0,1-.58,7.88,23.81,23.81,0,0,0-.17,6.08A6.86,6.86,0,0,0,36.6,45,6.8,6.8,0,0,1,37.37,48.07Z"/></svg>