<svg id="Layer_1" data-name="Layer 1" xmlns="http://www.w3.org/2000/svg" viewBox="0 0 50 50"><defs><style>.cls-1{fill:#f7b119;}</style></defs><title>icon (2)</title><path class="cls-1" d="M44.15,34.41H5.86a5.31,5.31,0,0,1-5.3-5.3V20.9a5.3,5.3,0,0,1,5.3-5.29H44.15a5.3,5.3,0,0,1,5.29,5.29v8.21A5.31,5.31,0,0,1,44.15,34.41ZM5.86,16.7a4.2,4.2,0,0,0-4.2,4.2v8.21a4.2,4.2,0,0,0,4.2,4.2H44.15a4.2,4.2,0,0,0,4.19-4.2V20.9a4.2,4.2,0,0,0-4.19-4.2Z"/><path class="cls-1" d="M46.2,22.8,41,28.61s0,.08-.09.08a.64.64,0,0,1-.25.15.72.72,0,0,1-.64,0,.58.58,0,0,1-.25-.15s-.08-.05-.1-.08L34.43,22.8a.87.87,0,0,1,.07-1.24,1,1,0,0,1,.6-.22,1,1,0,0,1,.64.27l4.58,5.12,4.57-5.12a1,1,0,0,1,.65-.27.92.92,0,0,1,.59.22A.86.86,0,0,1,46.2,22.8Z"/></svg>