<svg id="Layer_1" data-name="Layer 1" xmlns="http://www.w3.org/2000/svg" viewBox="0 0 50 50"><defs><style>.cls-1{fill:#f7b119;}.cls-2{fill:#fff;}.cls-3{fill:#926a02;}</style></defs><title>icon (2)</title><rect class="cls-1" x="0.67" y="9.36" width="48.67" height="26.09"/><path class="cls-2" d="M15.3,16.25a.88.88,0,0,1,.69.28,1,1,0,0,1,.27.71V27.55a1,1,0,0,1-.31.76,1,1,0,0,1-.77.31,1.33,1.33,0,0,1-.47-.08.72.72,0,0,1-.36-.22L7.4,19.5l.46-.28v8.41a1,1,0,0,1-.27.71.94.94,0,0,1-.72.28.9.9,0,0,1-.69-.28,1,1,0,0,1-.26-.71V17.33A1.06,1.06,0,0,1,7,16.25a1.4,1.4,0,0,1,.51.1.78.78,0,0,1,.39.29l6.73,8.59-.3.21v-8.2a1,1,0,0,1,.27-.71A.9.9,0,0,1,15.3,16.25Z"/><path class="cls-2" d="M20,16.25h5.92a1.1,1.1,0,0,1,.77.29,1,1,0,0,1,.31.75.9.9,0,0,1-.31.72,1.13,1.13,0,0,1-.77.27H21l.16-.3v3.45L21,21.29h4.14a1,1,0,0,1,.76.29,1,1,0,0,1,.31.75.91.91,0,0,1-.31.72,1.1,1.1,0,0,1-.76.27H21l.09-.14v3.57L21,26.59h4.93a1,1,0,0,1,.77.31,1,1,0,0,1,.31.72.92.92,0,0,1-.31.72,1.09,1.09,0,0,1-.77.28H20a1,1,0,0,1-.77-.31,1,1,0,0,1-.31-.76V17.33a1,1,0,0,1,.31-.77A1,1,0,0,1,20,16.25Z"/><path class="cls-2" d="M42.94,16.2a1.15,1.15,0,0,1,.77.31,1,1,0,0,1,.37.83,1.2,1.2,0,0,1,0,.36L40.55,28a.89.89,0,0,1-.38.49,1.23,1.23,0,0,1-.58.18,1.11,1.11,0,0,1-.59-.17,1.21,1.21,0,0,1-.45-.52L35.93,22l.16.11-2.58,5.83a1.14,1.14,0,0,1-1,.69,1.27,1.27,0,0,1-.57-.18.89.89,0,0,1-.38-.49L28,17.7a1.63,1.63,0,0,1-.05-.36,1,1,0,0,1,.38-.83,1.22,1.22,0,0,1,.79-.31,1.14,1.14,0,0,1,.62.17.88.88,0,0,1,.4.52L33,25.41l-.39,0,2.51-6a1.19,1.19,0,0,1,.41-.5.92.92,0,0,1,.6-.17.9.9,0,0,1,.6.17,1,1,0,0,1,.39.5l2.3,5.76-.28.18,2.77-8.41a.89.89,0,0,1,.41-.52A1.2,1.2,0,0,1,42.94,16.2Z"/><polygon class="cls-3" points="49.33 35.46 45.05 40.64 45.05 35.46 49.33 35.46"/></svg>