<svg id="Layer_1" data-name="Layer 1" xmlns="http://www.w3.org/2000/svg" viewBox="0 0 50 50"><defs><style>.cls-1{fill:#f7b119;}.cls-2{fill:none;stroke:#f7b119;stroke-miterlimit:10;stroke-width:0.28px;}</style></defs><title>icon (2)</title><path class="cls-1" d="M42,26.1V44.8c0,2.78-2.94,5-6.59,5H10.05c-3.64,0-6.61-2.25-6.61-5V25.46c0-2.77,3-5,6.61-5h2.06a11.38,11.38,0,0,0,21.27,0h2.07a9,9,0,0,1,2.53.38l-10.73,17L25.6,40.47a2.94,2.94,0,0,0-.41,2.32L25,47.21l2.08-1.11,1.79-.92,0,0a3.12,3.12,0,0,0,2-1.36Z"/><path class="cls-1" d="M34.12,11.55a10.85,10.85,0,0,1-.23,2.29c0,.05,0,.09,0,.12h0a11.39,11.39,0,0,1-22.25,0h0s0-.07,0-.12a11.55,11.55,0,0,1-.23-2.29,11.38,11.38,0,1,1,22.75,0Z"/><path class="cls-2" d="M45.37,20.08l-4.6-2.9.81-1.28a2.78,2.78,0,0,1,.82-.82,2.74,2.74,0,0,1,2.94,0,2.78,2.78,0,0,1,.85,3.77h0Zm-4.19-3,4.1,2.58.66-1a2.49,2.49,0,0,0-.75-3.36,2.46,2.46,0,0,0-3.36.78Z"/><path class="cls-2" d="M25.51,46.51l.13-3.83a2.55,2.55,0,0,1,.35-2l1.43-2.31,12.8-20.26L44.8,21,43.65,22.8,30.59,43.56a2.71,2.71,0,0,1-1.7,1.17l0,0-1.55.8Zm14.8-28L37,23.69l-.7,1.08L26.24,40.82a2.33,2.33,0,0,0-.31,1.82v.11L25.82,46l1.35-.72,1.64-.84a2.44,2.44,0,0,0,1.53-1.05L44.4,21.08Z"/></svg>