<svg id="Layer_1" data-name="Layer 1" xmlns="http://www.w3.org/2000/svg" viewBox="0 0 50 50"><defs><style>.cls-1{fill:#f7b119;}</style></defs><title>icon (2)</title><ellipse class="cls-1" cx="23.82" cy="35.09" rx="1.03" ry="1.38" transform="translate(-7.56 6.56) rotate(-13.55)"/><ellipse class="cls-1" cx="26.51" cy="35.03" rx="1.34" ry="1" transform="translate(-10.61 58.52) rotate(-85.21)"/><ellipse class="cls-1" cx="21.89" cy="37.19" rx="0.98" ry="1.32" transform="translate(-10.18 8.32) rotate(-17.52)"/><ellipse class="cls-1" cx="28.6" cy="36.85" rx="1.32" ry="0.98" transform="translate(-14.64 54.36) rotate(-74.23)"/><path class="cls-1" d="M25.14,36.92a1.41,1.41,0,0,0-.73.29,2,2,0,0,0-.58.57,6.07,6.07,0,0,1-.47.73c-.17.18-.35.37-.53.54a2.06,2.06,0,0,0-.54.79,1.63,1.63,0,0,0,.4,1.66,1.85,1.85,0,0,0,.63.27,2.85,2.85,0,0,0,1.7-.39,1.6,1.6,0,0,1,1.3.11c.15.06,2.48.7,2.25-1.65a1.4,1.4,0,0,0-.34-.69,3.44,3.44,0,0,0-.66-.55A2.48,2.48,0,0,1,27,38,2.12,2.12,0,0,0,25.14,36.92Z"/><polygon class="cls-1" points="30.8 14.87 30.19 14.87 30.19 12.21 20.3 12.21 20.3 14.85 19.69 14.85 19.69 11.69 30.8 11.69 30.8 14.87"/><path class="cls-1" d="M28.32,12.24H22.17V5.7h6.15Zm-5.54-.61h4.93V6.31H22.78Z"/><polygon class="cls-1" points="26.39 6.32 23.87 6.32 23.87 2.41 24.76 2.41 24.76 3.02 24.48 3.02 24.48 5.71 25.78 5.71 25.78 2.99 26.39 2.99 26.39 6.32"/><path class="cls-1" d="M31.93,30.77c-2.86,0-6.1-4.86-7.06-6.42S23.06,22.18,22,22.2c-3.16.08-6.44,6.49-6.47,6.55L15,28.48c.14-.28,3.47-6.8,7-6.9,1.29,0,2.44.8,3.4,2.46,1.88,3.05,4.82,6.48,6.87,6.08,1.25-.24,2.15-1.9,2.65-4.92l.6.1c-.55,3.3-1.6,5.12-3.13,5.42A2.4,2.4,0,0,1,31.93,30.77Z"/><path class="cls-1" d="M31.75,14.26h-13A3.78,3.78,0,0,0,15,18V49.91H35.53V18A3.78,3.78,0,0,0,31.75,14.26Zm-16.17,35V27.67a20.16,20.16,0,0,1,2.27-3.28,7.27,7.27,0,0,1,3.69-2.32,2.6,2.6,0,0,1,2.32.38,3.35,3.35,0,0,1,.57.72c1.7,2.59,3.41,5.32,6.06,6.93a3,3,0,0,0,1.64.54c1.65-.07,2.42-1.71,2.78-3.54V49.3Z"/><path class="cls-1" d="M27.81.9A9.51,9.51,0,0,0,24.17.25,13.48,13.48,0,0,0,21.8.49a2.17,2.17,0,0,1-.41.07l-.05,0a8.3,8.3,0,0,0-.84.27c-1.07.44-1.66,1-1.66,1.74v.12c0,.4,0,.83.78.93l.07,0a.49.49,0,0,0,.46-.13c1.5-1,4.28-.91,8.24.42l.15,0,.13-.1a1.61,1.61,0,0,0,.79-1.27C29.45,2,28.87,1.34,27.81.9Z"/></svg>