<svg id="Layer_1" data-name="Layer 1" xmlns="http://www.w3.org/2000/svg" viewBox="0 0 50 50"><defs><style>.cls-1{fill:none;stroke:#f7b119;stroke-miterlimit:10;stroke-width:0.28px;}.cls-2{fill:#f7b119;}</style></defs><title>icon (2)</title><path class="cls-1" d="M30.06,31.74a.89.89,0,0,1,0,1.6,1.05,1.05,0,0,1-.42.22,3.39,3.39,0,0,1-.44,0H20.82a7.16,7.16,0,0,1-5.37-2.09.91.91,0,0,1-.17-.17A3.67,3.67,0,0,1,14.54,30,3.46,3.46,0,0,1,14.4,29V20.93a3.56,3.56,0,0,1,.42-1.59,4.88,4.88,0,0,1,.49-.69c0-.06.08-.09.11-.14a7.23,7.23,0,0,1,5.4-2.09H29.2c.25,0,.53,0,.77,0,0,0,.06,0,.09.09a.87.87,0,0,1,0,1.57,1.91,1.91,0,0,1-.66.3H19.86a4.65,4.65,0,0,0-1.08.11,3.16,3.16,0,0,0-.55.14,3.8,3.8,0,0,0-1.26.69,2.21,2.21,0,0,0-.91,1.73v7.86a1.75,1.75,0,0,0,.33,1,3.16,3.16,0,0,0,1.82,1.37,2,2,0,0,0,.6.17,4.51,4.51,0,0,0,1.05.11h10A2.11,2.11,0,0,1,30.06,31.74Z"/><path class="cls-2" d="M15.29,31.33A3.59,3.59,0,0,1,14.54,30,3,3,0,0,1,14.4,29v-8.1a3.64,3.64,0,0,1,.42-1.61,6.74,6.74,0,0,1,.49-.68c0-.06.09-.09.12-.14H5.36a3.21,3.21,0,0,0-3.19,3.2V28.3a3.22,3.22,0,0,0,3.19,3.19H15.45A.8.8,0,0,1,15.29,31.33ZM5.9,25.6a.6.6,0,0,1-.62-.6.62.62,0,1,1,1.23,0A.6.6,0,0,1,5.9,25.6Zm4.56,0a.61.61,0,0,1-.62-.6.62.62,0,1,1,1.24,0A.61.61,0,0,1,10.46,25.6Z"/><path class="cls-2" d="M44.64,18.51h-5v13h5a3.19,3.19,0,0,0,3.19-3.19V21.71A3.19,3.19,0,0,0,44.64,18.51Zm-.86,7.09a.6.6,0,0,1-.62-.6.62.62,0,0,1,.62-.62.62.62,0,0,1,.62.62A.61.61,0,0,1,43.78,25.6Zm-25.55-7a4.19,4.19,0,0,0-1.26.68,2.24,2.24,0,0,0-.91,1.74v7.86a1.75,1.75,0,0,0,.33,1,3.14,3.14,0,0,0,1.82,1.38,2,2,0,0,0,.6.16H35.17v-13H18.79A3.28,3.28,0,0,0,18.23,18.65Zm4.45,5.94a.34.34,0,0,1,.34-.34h5.35a.34.34,0,0,1,.34.34v.8a.34.34,0,0,1-.34.34H23a.34.34,0,0,1-.34-.34Z"/><path class="cls-1" d="M39.64,18.39V31.61a.47.47,0,0,1-.46.47H35.64a.48.48,0,0,1-.47-.47V18.39a.47.47,0,0,1,.47-.48h3.54A.47.47,0,0,1,39.64,18.39Z"/></svg>