<svg id="Layer_1" data-name="Layer 1" xmlns="http://www.w3.org/2000/svg" viewBox="0 0 50 50"><defs><style>.cls-1{fill:#f7b119;}.cls-2{fill:#fff;}</style></defs><title>icon (2)</title><path class="cls-1" d="M27.58,1.46a17.71,17.71,0,0,0-1.94-.14Z"/><path class="cls-1" d="M49.54,25.05A24.54,24.54,0,1,1,25,.52,24.44,24.44,0,0,1,49.54,25.05Z"/><path class="cls-2" d="M40.39,33.1v11a24.51,24.51,0,0,1-30.78,0v-11c0-2.21,2.35-4,5.26-4h1.64a9.12,9.12,0,0,0,4.64,5,9.14,9.14,0,0,0,7.7,0,9.12,9.12,0,0,0,4.64-5h1.64C38,29.09,40.39,30.89,40.39,33.1Z"/><path class="cls-2" d="M34.08,22a9,9,0,0,1-.19,1.82h0a.36.36,0,0,1,0,.1h0a9.08,9.08,0,0,1-17.74,0h0a.36.36,0,0,1,0-.1h0A9,9,0,0,1,15.92,22a9.08,9.08,0,1,1,18.16,0Z"/></svg>