<svg id="Layer_1" data-name="Layer 1" xmlns="http://www.w3.org/2000/svg" viewBox="0 0 50 50"><defs><style>.cls-1{fill:#f6b11a;}.cls-2{fill:#f7b119;}</style></defs><title>icon (2)</title><path class="cls-1" d="M33.62,22.5a2.33,2.33,0,0,1,.84-.38l-.61,3.05a1.88,1.88,0,0,1-.58-.58,1.46,1.46,0,0,1-.22-1.18A1.41,1.41,0,0,1,33.62,22.5Z"/><path class="cls-1" d="M36.76,22.18a5.53,5.53,0,0,1,.64.17l-.83,4.16-.26-.11-1.13-.46L36,22.06C36.22,22.09,36.47,22.12,36.76,22.18Z"/><path class="cls-1" d="M34.67,28.58a11.79,11.79,0,0,1,1.38.53l-.82,4.06a3.31,3.31,0,0,1-.68-.08l-.77-.19.87-4.32Z"/><path class="cls-1" d="M38.15,30.61a1.59,1.59,0,0,1,.23,1.24,1.38,1.38,0,0,1-.68.89,2.68,2.68,0,0,1-1,.35l.65-3.23A3,3,0,0,1,38.15,30.61Z"/><path class="cls-1" d="M38.51,13.47A14.21,14.21,0,1,0,49.65,30.2,14.22,14.22,0,0,0,38.51,13.47ZM40,34.62a6.23,6.23,0,0,1-2.71,1.12,7,7,0,0,1-1.12.1l-.41,2a.7.7,0,0,1-.86.49.71.71,0,0,1-.59-.78l.37-1.84a3.84,3.84,0,0,1-.68-.09c-.27-.06-.52-.11-.77-.18L32.9,37.3A.73.73,0,0,1,31.47,37l.4-2a5.44,5.44,0,0,1-.95-.41,7.85,7.85,0,0,1-2.41-1.91,1.79,1.79,0,0,1-.39-.65,1.26,1.26,0,0,1-.07-.65,1.22,1.22,0,0,1,.61-.83,1.5,1.5,0,0,1,1.12-.18,1.6,1.6,0,0,1,.81.43,8,8,0,0,0,1.7,1.44.37.37,0,0,0,.12.07L33.28,28c-.32-.17-.62-.32-.9-.49a5.92,5.92,0,0,1-1.55-1.28,4,4,0,0,1-.78-1.55,4.32,4.32,0,0,1,0-1.79,3.8,3.8,0,0,1,1.34-2.3A5.21,5.21,0,0,1,34,19.52a6.54,6.54,0,0,1,1-.09l.5-2.49a.7.7,0,0,1,.85-.51.71.71,0,0,1,.58.8l-.46,2.27a5.87,5.87,0,0,1,.81.12c.23,0,.44.09.64.14l.45-2.24a.73.73,0,0,1,.85-.51.72.72,0,0,1,.6.8l-.49,2.43c.31.13.61.26.89.41a7.83,7.83,0,0,1,2.06,1.57,1.46,1.46,0,0,1,.5,1.32,1.2,1.2,0,0,1-.62.8,1.35,1.35,0,0,1-1.09.21,1.18,1.18,0,0,1-.63-.34,4.79,4.79,0,0,0-1-.81L38.79,23,38,27.07c.33.15.61.28.88.43a6.34,6.34,0,0,1,1.73,1.26,3.29,3.29,0,0,1,.88,1.53,4.65,4.65,0,0,1,0,2A3.78,3.78,0,0,1,40,34.62Z"/><path class="cls-2" d="M25.6,40.48H2.94A2.74,2.74,0,0,1,.2,37.74V34.59a2.74,2.74,0,0,1,2.74-2.74H25.6a2.74,2.74,0,0,1,2.74,2.74v3.15A2.74,2.74,0,0,1,25.6,40.48ZM2.94,33a1.56,1.56,0,0,0-1.56,1.56v3.15A1.56,1.56,0,0,0,2.94,39.3H25.6a1.55,1.55,0,0,0,1.55-1.56V34.59A1.55,1.55,0,0,0,25.6,33Z"/><path class="cls-2" d="M25.6,32.51H2.94A2.74,2.74,0,0,1,.2,29.77V26.61a2.74,2.74,0,0,1,2.74-2.74H25.6a2.74,2.74,0,0,1,2.74,2.74v3.16A2.74,2.74,0,0,1,25.6,32.51ZM2.94,25.06a1.56,1.56,0,0,0-1.56,1.55v3.16a1.56,1.56,0,0,0,1.56,1.56H25.6a1.55,1.55,0,0,0,1.55-1.56V26.61a1.55,1.55,0,0,0-1.55-1.55Z"/><path class="cls-2" d="M25.6,24.54H2.94A2.74,2.74,0,0,1,.2,21.8V18.64A2.74,2.74,0,0,1,2.94,15.9H25.6a2.74,2.74,0,0,1,2.74,2.74V21.8A2.74,2.74,0,0,1,25.6,24.54ZM2.94,17.09a1.55,1.55,0,0,0-1.56,1.55V21.8a1.55,1.55,0,0,0,1.56,1.55H25.6a1.54,1.54,0,0,0,1.55-1.55V18.64a1.54,1.54,0,0,0-1.55-1.55Z"/><path class="cls-2" d="M25.6,17.05H2.94A2.74,2.74,0,0,1,.2,14.31V11.15A2.74,2.74,0,0,1,2.94,8.41H25.6a2.74,2.74,0,0,1,2.74,2.74v3.16A2.74,2.74,0,0,1,25.6,17.05ZM2.94,9.6a1.56,1.56,0,0,0-1.56,1.55v3.16a1.56,1.56,0,0,0,1.56,1.56H25.6a1.55,1.55,0,0,0,1.55-1.56V11.15A1.55,1.55,0,0,0,25.6,9.6Z"/></svg>