<svg id="Layer_1" data-name="Layer 1" xmlns="http://www.w3.org/2000/svg" viewBox="0 0 50 50"><defs><style>.cls-1{fill:#f6b21a;}</style></defs><title>icon (2)</title><circle class="cls-1" cx="4.49" cy="34.43" r="2.46"/><path class="cls-1" d="M42.67,15.85c-.8-.16-2.26-1.81-3.3-2.07a16.23,16.23,0,0,0-8-9.51A22.42,22.42,0,0,1,31.5-.06S39.39,3.76,42.67,15.85Z"/><path class="cls-1" d="M38.94,14.47s-.07-.27-.23-.74a16.64,16.64,0,0,0-8.23-9.34,18.37,18.37,0,0,0-4.6-1.56c.21,2.22-1.53,9.86,7.22,13.51-4,2.83-1,6.78-.85,7C31.61,23.15,7.93,15,7.39,37.75c.35,7.3,5.55,10.93,11.87,11.78a36.81,36.81,0,0,0,10.79,0,4,4,0,0,0-1.59-3.68c-1-.75-2.69-1.28-5.38-1.15,1.54-.19,9.18-7.58,1.68-12.43A6.73,6.73,0,0,1,27,33.86a6.51,6.51,0,0,1,1.78,2.73c.57,2.29-1.39,4.25-1.18,6.44.13,1.34,1.07,2,1.82,3,1.48,1.94,2.14,3.07,4.84,2.7a3.28,3.28,0,0,0,1.88-.84c1-1-1.87-4.1-2.47-4.8-.81-1,.24-4.22.24-4.22,6.48-2,6.6-9.57,7.21-11.07C57.59,22.83,38.94,14.47,38.94,14.47ZM33,9.73A18.08,18.08,0,0,1,29,5.1c.35.38,1.93,1,2.34,1.28a14.61,14.61,0,0,1,2,2c1.22,1.43,2.22,3,3.29,4.56C35.44,11.92,34.24,10.8,33,9.73Zm6.56,9.57a1.1,1.1,0,0,1,0-2.19,1.1,1.1,0,1,1,0,2.19Z"/></svg>