<svg id="Layer_1" data-name="Layer 1" xmlns="http://www.w3.org/2000/svg" viewBox="0 0 50 50"><defs><style>.cls-1{fill:none;}.cls-2{fill:#f7b119;}</style></defs><title>icon (2)</title><path class="cls-1" d="M46.72,41.76a3.31,3.31,0,0,1-.29.47"/><path class="cls-2" d="M24.12,27.21a1.65,1.65,0,0,1,1.64,0l11,6.33,10.8,6.2a.32.32,0,0,1-.16.6H2.47a.32.32,0,0,1-.16-.6l10.79-6.2Z"/><path class="cls-2" d="M24.12,22.79a1.65,1.65,0,0,0,1.64,0l11-6.33,10.8-6.2a.32.32,0,0,0-.16-.6H2.47a.32.32,0,0,0-.16.6l10.79,6.2Z"/><path class="cls-2" d="M.78,12.58V37.42a.68.68,0,0,0,1,.59L22.18,26.3a1.49,1.49,0,0,0,0-2.6L1.81,12A.68.68,0,0,0,.78,12.58Z"/><path class="cls-2" d="M48.07,12,27.69,23.7a1.5,1.5,0,0,0,0,2.6L48.07,38a.68.68,0,0,0,1-.59V12.58A.68.68,0,0,0,48.07,12Z"/></svg>