<svg id="Layer_1" data-name="Layer 1" xmlns="http://www.w3.org/2000/svg" viewBox="0 0 50 50"><defs><style>.cls-1{fill:#f7b119;}.cls-2{fill:none;}</style></defs><title>icon (2)</title><path class="cls-1" d="M22.35,40.86c-15.7,0-20-2.09-21.14-3.39a1.45,1.45,0,0,1-.3-1.28l2.3-10.61A1.54,1.54,0,0,1,4,24.52a1.47,1.47,0,0,1,1.28,0c4.67,2.22,19.74,2.39,19.89,2.39,12.73.37,17.87-1.32,19.8-2.36a1.48,1.48,0,0,1,1.33,0,1.57,1.57,0,0,1,.86,1.07L49.47,36a1.5,1.5,0,0,1-.42,1.42C46,40.17,32.8,40.74,25.21,40.84,24.22,40.86,23.26,40.86,22.35,40.86ZM3.78,25.7,1.47,36.31a.92.92,0,0,0,.17.78c.93,1,5.08,3.45,23.56,3.17,6.05-.08,20.43-.55,23.46-3.26a.9.9,0,0,0,.24-.86L46.63,25.69a1,1,0,0,0-.54-.67.92.92,0,0,0-.81,0c-2.42,1.3-7.87,2.78-20.08,2.43-.15,0-15.34-.17-20.13-2.44a.87.87,0,0,0-.77,0,.94.94,0,0,0-.52.66Z"/><path class="cls-1" d="M23.56,23.64c-1,0-2,0-2.95,0a77.86,77.86,0,0,1-9-.64h-.08l-.07-.06a4.58,4.58,0,0,1-.58-.61,5.89,5.89,0,0,1-2.63-2.13,5.58,5.58,0,0,1-3.45-5.53c.28-3.14,3.32-5.49,6.76-5.26A6.45,6.45,0,0,1,15,10.55a4.27,4.27,0,0,1,3.52-1.4,4.13,4.13,0,0,1,3.14,1.72l.34,0a4.13,4.13,0,0,1,2.81.95A3.5,3.5,0,0,1,26,13.73a4.25,4.25,0,0,1,2.73-1.08,4.11,4.11,0,0,1,3.6,1.77,4.18,4.18,0,0,1,2.94-1.27,4,4,0,0,1,3.94,2.41,4.12,4.12,0,0,1,1.87.78,3.54,3.54,0,0,1,1.44,2.71,3.74,3.74,0,0,1-2.72,3.62l-.08,0-.69.08-.87.09c-3,.35-6.34.58-9.9.7C26.66,23.61,25.09,23.64,23.56,23.64ZM11.79,22.41a77.86,77.86,0,0,0,8.83.62c2.44,0,5,0,7.6-.05,3.54-.12,6.86-.35,9.86-.69l.86-.1.71-.08a3.16,3.16,0,0,0,2.27-3,3,3,0,0,0-1.21-2.27,3.65,3.65,0,0,0-1.77-.69l-.18,0-.06-.18a3.41,3.41,0,0,0-3.43-2.18,3.59,3.59,0,0,0-2.78,1.36l-.28.37L32,15.05a3.47,3.47,0,0,0-3.27-1.82A3.6,3.6,0,0,0,26,14.58l-.5.65,0-.93a2.84,2.84,0,0,0-1-2.07A3.57,3.57,0,0,0,22,11.42a3.44,3.44,0,0,0-.45.05l-.19,0-.11-.17a3.52,3.52,0,0,0-2.79-1.61,3.64,3.64,0,0,0-3.2,1.4l-.18.24-.23-.19A5.88,5.88,0,0,0,11.54,10h0a5.59,5.59,0,0,0-6.15,4.73,5,5,0,0,0,3.18,5l.08,0,0,.07a5.25,5.25,0,0,0,2.48,2l.09,0,.05.07A3.08,3.08,0,0,0,11.79,22.41Z"/><path class="cls-1" d="M42.22,19.54l-.15.56.2.06h0a5.88,5.88,0,0,0-.23.71,2.88,2.88,0,0,1-2.36,1.55,55.35,55.35,0,0,1-12.06.84c-2,0-4-.08-6-.1-.59,0-1.18,0-1.77,0a4.22,4.22,0,0,0-.71,0l-.11,0a8.91,8.91,0,0,1-2.3-.16,1.89,1.89,0,0,1,.35.17c-.27-.08-.54-.16-.81-.22-1.84-.38-3.94.1-5.52-.93C9.85,21.53,9.28,20.59,8.4,20L8.29,20l0-.12v-.32H8.18c-2.25.61-3.35,1.31-3.35,2.13,0,2.43,10.5,3.74,20.38,3.74s20.37-1.31,20.37-3.74C45.58,20.85,44.48,20.15,42.22,19.54ZM20.23,24a5.72,5.72,0,0,0,.57-.11A2.87,2.87,0,0,1,20.23,24Zm-10.12-.29-.26,0H10Z"/><path class="cls-2" d="M43.05,20.56a2.27,2.27,0,0,0-.87-.24.83.83,0,0,0-.77.4,2,2,0,0,0,0,.88c.19,0,.31-.21.46-.33a4,4,0,0,1,.59-.28c.2-.1.36-.33.26-.53"/><path class="cls-1" d="M31.13,33.38a1.81,1.81,0,0,0,0-2.56,1.81,1.81,0,0,0-3.08,1.5h-5.6A1.84,1.84,0,0,0,21.92,31a1.82,1.82,0,0,0-2.6,2.54l0,0a1.76,1.76,0,0,0-.54,1.28,1.81,1.81,0,0,0,1.63,1.8,1.82,1.82,0,0,0,2-2H28A1.84,1.84,0,0,0,28.5,36a1.81,1.81,0,0,0,2.56,0,1.84,1.84,0,0,0,.54-1.29,1.78,1.78,0,0,0-.51-1.25Zm.06-1.28a1.31,1.31,0,0,1-.11.52,1.46,1.46,0,0,0,0-1A1.32,1.32,0,0,1,31.19,32.1Zm-.46,3.52,0,0a1.47,1.47,0,0,0,.41-1,.43.43,0,0,0,0,.05A1.34,1.34,0,0,1,30.73,35.62Z"/></svg>