<svg id="Layer_1" data-name="Layer 1" xmlns="http://www.w3.org/2000/svg" viewBox="0 0 50 50"><defs><style>.cls-1{fill:#f7b119;}.cls-2{fill:none;stroke:#f7b119;stroke-miterlimit:10;}</style></defs><title>icon (2)</title><path class="cls-1" d="M16,21,11.77,7.58a5.88,5.88,0,0,0-10.83-1,5.8,5.8,0,0,0-.4,4.49L4.75,24.54a5.9,5.9,0,0,0,5.62,4.11,5.34,5.34,0,0,0,1.76-.27A5.87,5.87,0,0,0,16,21ZM3.22,17.26l-2-6.35A5.17,5.17,0,0,1,1.58,7a5,5,0,0,1,3-2.54,4.87,4.87,0,0,1,1.55-.24,5.18,5.18,0,0,1,2.4.58,5.11,5.11,0,0,1,2.54,3l2,6.37Z"/><path class="cls-2" d="M17.84,33.2l15.8-20.8A1.73,1.73,0,0,1,36,12.05l4.8,3.64a1.71,1.71,0,0,1,.32,2.38L25.33,38.89a1.69,1.69,0,0,1-2.38.33l-4.77-3.63A1.72,1.72,0,0,1,17.84,33.2Z"/><rect class="cls-1" x="17.18" y="37.12" width="5.1" height="2.74" rx="0.44" ry="0.44" transform="translate(12.15 81.07) rotate(-142.77)"/><line class="cls-2" x1="11.53" y1="49.25" x2="18.91" y2="39.59"/><line class="cls-2" x1="45.11" y1="5.08" x2="40.03" y2="11.77"/><path class="cls-1" d="M33.92,8.79a1.33,1.33,0,0,1,1.85-.25L44.28,15a1.32,1.32,0,0,1,.26,1.84,1.33,1.33,0,0,1-1.85.26l-8.52-6.47A1.34,1.34,0,0,1,33.92,8.79Z"/><rect class="cls-1" x="40.99" y="3.33" width="9.41" height="1.96" rx="0.31" ry="0.31" transform="translate(79.48 35.38) rotate(-142.77)"/></svg>