<svg id="Layer_1" data-name="Layer 1" xmlns="http://www.w3.org/2000/svg" viewBox="0 0 50 50"><defs><style>.cls-1{fill:#f7b119;}</style></defs><title>icon (2)</title><path class="cls-1" d="M42.84,2,43,22.07l-3.07,0a19.85,19.85,0,0,0-7.07,1.34l-2.3.87a12.09,12.09,0,0,1-7.93.25c-1.2-.38-2.31-1-3.48-1.42l-1.5-.57-3.19-1.18V18.66l0-3.74,0-4.34,0-4.14,0-3.14V2.37a1.2,1.2,0,0,0,0-.27c0-.11-.06-.14,0-.25s.45-.21.63-.2a3.14,3.14,0,0,1,.79.19c.68.21,1.35.46,2,.7l1.11.39c1.2.43,2.31,1.07,3.52,1.46A11.81,11.81,0,0,0,26.12,5a12.06,12.06,0,0,0,4.41-.86l1.62-.66A20.15,20.15,0,0,1,39.47,2Z"/><rect class="cls-1" x="10.09" y="0.8" width="3.8" height="48.77" rx="1.49" ry="1.49" transform="translate(-0.15 0.07) rotate(-0.35)"/></svg>