<svg id="Layer_1" data-name="Layer 1" xmlns="http://www.w3.org/2000/svg" viewBox="0 0 50 50"><defs><style>.cls-1{fill:#f7b119;}</style></defs><title>icon (2)</title><path class="cls-1" d="M20.12,8.35h-.46l-1.05,0h0C8.35,8.84.19,16.12.19,25a15.13,15.13,0,0,0,4,10.1l-1.1,3.4A1.65,1.65,0,0,0,5.2,40.58l4.23-1.42a20,20,0,0,0,2.91,1.26,22.26,22.26,0,0,0,15.28-.23c.26-.1.51-.2.75-.32a13,13,0,0,1-6.6-11.3,13.18,13.18,0,0,1,13-13.08h.9A20.44,20.44,0,0,0,20.12,8.35Zm-10,17.42a1.12,1.12,0,1,1,1.12-1.11A1.12,1.12,0,0,1,10.16,25.77Zm4.22,0a1.12,1.12,0,1,1,1.12-1.11A1.11,1.11,0,0,1,14.38,25.77Zm4.41,0a1.12,1.12,0,0,1,0-2.23,1.12,1.12,0,1,1,0,2.23Z"/><path class="cls-1" d="M47,36.25a12,12,0,0,0,2.82-7.65c0-6.73-5.76-12.24-13-12.59h0c-.25,0-.49,0-.74,0h-.33c-7.42.16-13.4,5.75-13.4,12.61a12.63,12.63,0,0,0,8.11,11.51,14.74,14.74,0,0,0,5.62,1.1,14.16,14.16,0,0,0,5.16-.94,12,12,0,0,0,2.06-1l3,1.09a1.21,1.21,0,0,0,1.48-1.58ZM31.31,30.11A1.12,1.12,0,1,1,32.42,29,1.11,1.11,0,0,1,31.31,30.11Zm4.21,0a1.12,1.12,0,0,1,0-2.23,1.12,1.12,0,1,1,0,2.23Zm4.42,0a1.12,1.12,0,0,1,0-2.23,1.12,1.12,0,1,1,0,2.23Z"/></svg>