<svg id="Layer_1" data-name="Layer 1" xmlns="http://www.w3.org/2000/svg" viewBox="0 0 50 50"><defs><style>.cls-1{fill:#f7b119;}</style></defs><title>icon (2)</title><path class="cls-1" d="M25,48.36v0h.2Z"/><path class="cls-1" d="M48.69,22.49a23.1,23.1,0,0,0-3.53-10.21,23.89,23.89,0,0,0-1.74-2.41,23.63,23.63,0,0,0-2-2.12A22,22,0,0,0,36.77,4.3a12,12,0,0,0-1.29-.66,10.67,10.67,0,0,0-1.33-.58A20.36,20.36,0,0,0,29,1.6a5.93,5.93,0,0,0-.83-.12,24,24,0,0,0-14,2.64,23.71,23.71,0,0,0-8.72,8.16A23,23,0,0,0,1.85,22.49a20.91,20.91,0,0,0-.13,2.37A22.8,22.8,0,0,0,4.13,35.2,22.82,22.82,0,0,0,5.74,38a23.33,23.33,0,0,0,8.58,7.72A23.73,23.73,0,0,0,26,48.39c.69,0,1.38-.08,2.06-.15a23.28,23.28,0,0,0,11.05-4.32,19.51,19.51,0,0,0,2.45-2.08,23.69,23.69,0,0,0,4.82-6.64,22.92,22.92,0,0,0,2.4-10.34A23.51,23.51,0,0,0,48.69,22.49Zm-6.48-7.06a19.75,19.75,0,0,1,2,5.19h-7A28.71,28.71,0,0,0,36,15.43ZM31.5,6.5c.54.17,1,.38,1.53.58a14,14,0,0,1,2,1,18.39,18.39,0,0,1,4,3.16H34.28a27.87,27.87,0,0,0-3-4.82A.19.19,0,0,1,31.5,6.5Zm1.82,18.27a22.09,22.09,0,0,1-.54,5H17.67a25.36,25.36,0,0,1-.46-4.69v-.34ZM17.63,20.62a22.92,22.92,0,0,1,1.53-5.19H31.58A24.89,24.89,0,0,1,33,20.62ZM25.52,6.25a22.91,22.91,0,0,1,4,5H21.28A23.54,23.54,0,0,1,25.52,6.25Zm-5.78,0a30.6,30.6,0,0,0-3.28,5h-5A18.35,18.35,0,0,1,19.74,6.3ZM8.37,15.43h6.31a28,28,0,0,0-1.25,5.19H6.33A18.58,18.58,0,0,1,8.37,15.43ZM6.54,29.8a17.83,17.83,0,0,1-.66-4.94v-.09h7.18v.34a29.28,29.28,0,0,0,.37,4.69ZM8.16,34h6.27a7.46,7.46,0,0,0,.33,1,30.29,30.29,0,0,0,4.57,8.35A19.07,19.07,0,0,1,8.16,34ZM25,48.4v0l.2,0Zm0-4.9A25.08,25.08,0,0,1,18.83,34H31.54A25.23,25.23,0,0,1,25,43.5Zm9.67-1.7a5.47,5.47,0,0,1-1.16.58,6.11,6.11,0,0,1-1.12.5l-.29.13a9.13,9.13,0,0,1-1.37.45,0,0,0,0,0,0,0A29.46,29.46,0,0,0,35.61,35,10.33,10.33,0,0,0,35.94,34h6.4A18.35,18.35,0,0,1,34.69,41.8Zm10-16.94A18.22,18.22,0,0,1,44,29.8H37a25.61,25.61,0,0,0,.5-5h7.18Z"/></svg>