<svg id="Layer_1" data-name="Layer 1" xmlns="http://www.w3.org/2000/svg" viewBox="0 0 50 50"><defs><style>.cls-1{fill:#d32027;}</style></defs><title>icon (2)</title><ellipse class="cls-1" cx="22.4" cy="18.72" rx="2.03" ry="2.72" transform="translate(-2.96 4.26) rotate(-10.2)"/><ellipse class="cls-1" cx="27.7" cy="18.91" rx="2.64" ry="1.97" transform="translate(5.05 43.65) rotate(-81.85)"/><ellipse class="cls-1" cx="18.36" cy="22.64" rx="1.94" ry="2.59" transform="translate(-4.98 5.18) rotate(-14.17)"/><ellipse class="cls-1" cx="31.6" cy="22.75" rx="2.59" ry="1.94" transform="translate(-0.25 45.15) rotate(-70.87)"/><path class="cls-1" d="M24.77,22.48A2.88,2.88,0,0,0,23.3,23,4.22,4.22,0,0,0,22.1,24a11.16,11.16,0,0,1-1,1.37c-.35.34-.73.68-1.11,1a4,4,0,0,0-1.15,1.49,3.19,3.19,0,0,0,.6,3.32,3.28,3.28,0,0,0,1.2.59c1.21.37,2.27-.19,3.39-.56a3.11,3.11,0,0,1,2.55.37c.29.13,4.8,1.65,4.6-3a2.57,2.57,0,0,0-.59-1.4,6.38,6.38,0,0,0-1.22-1.16,5,5,0,0,1-1-1.34A4.15,4.15,0,0,0,24.77,22.48Z"/><path class="cls-1" d="M25,46.61a1.19,1.19,0,0,1-.85-.35l-17-16.93-.92-.9C4.05,26.31,1.8,24.12.76,21.18a13.35,13.35,0,0,1,23-12.76,1.56,1.56,0,0,0,2.4,0,13.35,13.35,0,0,1,23.74,7.1h0a13.28,13.28,0,0,1-3.85,10.66L46,26.13c-.36.46-1.23,1.32-3.11,3.19l-17,16.94A1.19,1.19,0,0,1,25,46.61ZM13.34,4.55l-.85,0A12.18,12.18,0,0,0,1.86,20.79C2.81,23.47,5,25.57,7,27.6c.31.3.62.6.92.91L25,45.44c.24-.2,19.08-18.91,20.2-20l.06-.06a12.26,12.26,0,0,0,2.84-4.47,12.13,12.13,0,0,0,.67-5.25h0A12.18,12.18,0,0,0,27.11,9.15a2.68,2.68,0,0,1-4.22,0A12.22,12.22,0,0,0,13.34,4.55Z"/></svg>