<svg id="Layer_1" data-name="Layer 1" xmlns="http://www.w3.org/2000/svg" viewBox="0 0 50 50"><defs><style>.cls-1{fill:#d32027;}</style></defs><title>icon (2)</title><path class="cls-1" d="M49.91,15.37A13.17,13.17,0,0,0,37.69,3.52a13,13,0,0,0-11,4.9,2.17,2.17,0,0,1-3.39,0A13,13,0,0,0,12.17,3.53,13.17,13.17,0,0,0,.08,15.43a13.35,13.35,0,0,0,.69,5.46c1.18,3.29,4,5.7,6.39,8.11l8.11,8q3.82,3.81,7.64,7.59c.56.57,1.12,1.11,1.67,1.68a.66.66,0,0,0,.46.19.63.63,0,0,0,.43-.19L46.14,25.78a13,13,0,0,0,3.77-10.41ZM25.76,19.06a2.34,2.34,0,0,1,2.38-2.13,2.16,2.16,0,0,1,1.61,2.65,2.33,2.33,0,0,1-2.38,2.13A2.16,2.16,0,0,1,25.76,19.06ZM21.84,16.7a2.43,2.43,0,0,1,2.54,2.11,2.18,2.18,0,0,1-1.55,2.77,2.41,2.41,0,0,1-2.54-2.11A2.22,2.22,0,0,1,21.84,16.7ZM16.3,23.16a2.06,2.06,0,0,1,1.27-2.72,2.35,2.35,0,0,1,2.57,1.86A2.07,2.07,0,0,1,18.87,25,2.34,2.34,0,0,1,16.3,23.16Zm10.32,7.77A3.52,3.52,0,0,0,24,30.59a6.15,6.15,0,0,1-3.46.51,3.62,3.62,0,0,1-1.22-.53,2.68,2.68,0,0,1-.62-3,3.6,3.6,0,0,1,1.19-1.36c.37-.3.76-.61,1.12-.92A9.52,9.52,0,0,0,22,24a4.11,4.11,0,0,1,1.24-1,3,3,0,0,1,1.5-.43,4.22,4.22,0,0,1,3.63,2.05,5.16,5.16,0,0,0,1.07,1.22,6.33,6.33,0,0,1,1.25,1.06,2.29,2.29,0,0,1,.61,1.29C31.52,32.43,26.91,31,26.62,30.93Zm7-7.51a2.4,2.4,0,0,1-2.74,1.65,2,2,0,0,1-1-2.83,2.42,2.42,0,0,1,2.74-1.66A2.06,2.06,0,0,1,33.62,23.42Z"/></svg>